STARTFONT 2.1
FONT -Adobe-Helvetica-Medium-O-Normal--18-180-75-75-P-98-ISO10646-1
SIZE 18 75 75
FONTBOUNDINGBOX 23 29 -2 -7
COMMENT $Xorg: $
COMMENT ISO10646-1 extension by Markus Kuhn <mkuhn@acm.org>, 2001-03-20
COMMENT 
COMMENT +
COMMENT  Copyright 1984-1989, 1994 Adobe Systems Incorporated.
COMMENT  Copyright 1988, 1994 Digital Equipment Corporation.
COMMENT
COMMENT  Adobe is a trademark of Adobe Systems Incorporated which may be
COMMENT  registered in certain jurisdictions.
COMMENT  Permission to use these trademarks is hereby granted only in
COMMENT  association with the images described in this file.
COMMENT
COMMENT  Permission to use, copy, modify, distribute and sell this software
COMMENT  and its documentation for any purpose and without fee is hereby
COMMENT  granted, provided that the above copyright notices appear in all
COMMENT  copies and that both those copyright notices and this permission
COMMENT  notice appear in supporting documentation, and that the names of
COMMENT  Adobe Systems and Digital Equipment Corporation not be used in
COMMENT  advertising or publicity pertaining to distribution of the software
COMMENT  without specific, written prior permission.  Adobe Systems and
COMMENT  Digital Equipment Corporation make no representations about the
COMMENT  suitability of this software for any purpose.  It is provided "as
COMMENT  is" without express or implied warranty.
COMMENT -
STARTPROPERTIES 26
FOUNDRY "Adobe"
FAMILY_NAME "Helvetica"
WEIGHT_NAME "Medium"
SLANT "O"
SETWIDTH_NAME "Normal"
ADD_STYLE_NAME ""
PIXEL_SIZE 18
POINT_SIZE 180
RESOLUTION_X 75
RESOLUTION_Y 75
SPACING "P"
AVERAGE_WIDTH 98
CHARSET_REGISTRY "ISO10646"
CHARSET_ENCODING "1"
CAP_HEIGHT 14
X_HEIGHT 10
FONT_ASCENT 16
FONT_DESCENT 5
FACE_NAME "Helvetica Oblique"
COPYRIGHT "Copyright (c) 1984, 1987 Adobe Systems Incorporated. All Rights Reserved. Copyright (c) 1988, 1991 Digital Equipment Corporation. All Rights Reserved."

STARTCHAR char0
ENCODING 0
SWIDTH 722 0
DWIDTH 14 0
BBX 13 13 2 0
BITMAP
AAA8
0000
8008
0000
8008
0000
8008
0000
8008
0000
8008
0000
AAA8
ENDCHAR
STARTCHAR space
ENCODING 32
SWIDTH 278 0
DWIDTH 5 0
BBX 1 1 0 0
BITMAP
00
ENDCHAR
STARTCHAR exclam
ENCODING 33
SWIDTH 278 0
DWIDTH 5 0
BBX 5 14 2 0
BITMAP
18
18
18
30
30
30
30
60
60
60
00
00
C0
C0
ENDCHAR
STARTCHAR quotedbl
ENCODING 34
SWIDTH 355 0
DWIDTH 7 0
BBX 6 4 3 10
BITMAP
6C
6C
D8
90
ENDCHAR
STARTCHAR numbersign
ENCODING 35
SWIDTH 556 0
DWIDTH 11 0
BBX 11 13 1 0
BITMAP
0240
06C0
0480
3FE0
3FE0
0900
1B00
1200
FF80
FF80
2400
6C00
4800
ENDCHAR
STARTCHAR dollar
ENCODING 36
SWIDTH 556 0
DWIDTH 10 0
BBX 10 15 1 -1
BITMAP
0200
1F00
3F80
64C0
64C0
7400
3C00
0F00
0B80
0980
C980
CB80
FF00
7E00
1000
ENDCHAR
STARTCHAR percent
ENCODING 37
SWIDTH 889 0
DWIDTH 16 0
BBX 12 13 3 0
BITMAP
3830
6C60
C4C0
8C80
D980
7300
0600
0CE0
09B0
1B10
3230
6360
C1C0
ENDCHAR
STARTCHAR ampersand
ENCODING 38
SWIDTH 667 0
DWIDTH 12 0
BBX 10 13 1 0
BITMAP
0F00
1B80
3180
3180
1B00
1E00
3CC0
66C0
C380
C300
C780
FCC0
78C0
ENDCHAR
STARTCHAR quotesingle
ENCODING 39
SWIDTH 191 0
DWIDTH 4 0
BBX 3 4 3 10
BITMAP
60
60
C0
80
ENDCHAR
STARTCHAR parenleft
ENCODING 40
SWIDTH 333 0
DWIDTH 6 0
BBX 8 18 1 -4
BITMAP
03
06
0C
18
30
30
60
60
C0
C0
C0
C0
C0
C0
C0
60
60
30
ENDCHAR
STARTCHAR parenright
ENCODING 41
SWIDTH 333 0
DWIDTH 6 0
BBX 8 18 -1 -4
BITMAP
0C
06
06
03
03
03
03
03
03
03
06
06
0C
0C
18
30
60
C0
ENDCHAR
STARTCHAR asterisk
ENCODING 42
SWIDTH 389 0
DWIDTH 8 0
BBX 5 6 3 8
BITMAP
20
A8
70
60
D0
90
ENDCHAR
STARTCHAR plus
ENCODING 43
SWIDTH 584 0
DWIDTH 10 0
BBX 8 10 2 0
BITMAP
0C
0C
0C
18
FF
FF
18
30
30
30
ENDCHAR
STARTCHAR comma
ENCODING 44
SWIDTH 278 0
DWIDTH 5 0
BBX 3 5 1 -3
BITMAP
60
60
20
40
80
ENDCHAR
STARTCHAR hyphen
ENCODING 45
SWIDTH 333 0
DWIDTH 7 0
BBX 6 2 2 4
BITMAP
FC
FC
ENDCHAR
STARTCHAR period
ENCODING 46
SWIDTH 278 0
DWIDTH 5 0
BBX 2 2 2 0
BITMAP
C0
C0
ENDCHAR
STARTCHAR slash
ENCODING 47
SWIDTH 278 0
DWIDTH 5 0
BBX 8 14 0 0
BITMAP
03
03
06
04
0C
0C
18
10
30
30
60
40
C0
C0
ENDCHAR
STARTCHAR zero
ENCODING 48
SWIDTH 556 0
DWIDTH 10 0
BBX 9 13 2 0
BITMAP
0F00
3F80
3180
6180
6180
6180
C180
C300
C300
C300
C600
FE00
7800
ENDCHAR
STARTCHAR one
ENCODING 49
SWIDTH 556 0
DWIDTH 10 0
BBX 5 13 5 0
BITMAP
18
78
F0
30
30
30
60
60
60
60
C0
C0
C0
ENDCHAR
STARTCHAR two
ENCODING 50
SWIDTH 556 0
DWIDTH 10 0
BBX 10 13 1 0
BITMAP
0F80
1FC0
38C0
30C0
01C0
0380
0F00
1C00
3800
6000
C000
FF00
FF00
ENDCHAR
STARTCHAR three
ENCODING 51
SWIDTH 556 0
DWIDTH 10 0
BBX 10 13 1 0
BITMAP
0F80
1FC0
30C0
30C0
01C0
0780
0700
0180
0180
C180
E380
7F00
3E00
ENDCHAR
STARTCHAR four
ENCODING 52
SWIDTH 556 0
DWIDTH 10 0
BBX 9 13 2 0
BITMAP
0180
0380
0700
0F00
1B00
3300
6600
C600
FF00
FF00
0C00
0C00
0C00
ENDCHAR
STARTCHAR five
ENCODING 53
SWIDTH 556 0
DWIDTH 10 0
BBX 10 13 1 0
BITMAP
0FC0
1FC0
1800
3000
3E00
7F00
6380
0180
0180
0180
C300
FF00
7C00
ENDCHAR
STARTCHAR six
ENCODING 54
SWIDTH 556 0
DWIDTH 10 0
BBX 10 13 1 0
BITMAP
0780
0FC0
18C0
3000
6000
6E00
FF00
E380
C180
C180
E300
7F00
3C00
ENDCHAR
STARTCHAR seven
ENCODING 55
SWIDTH 556 0
DWIDTH 10 0
BBX 10 13 2 0
BITMAP
7FC0
7FC0
0180
0300
0600
0C00
1800
3000
3000
6000
6000
C000
C000
ENDCHAR
STARTCHAR eight
ENCODING 56
SWIDTH 556 0
DWIDTH 10 0
BBX 9 13 2 0
BITMAP
0F00
3F80
3180
6180
6380
3F00
7600
E300
C300
C300
C700
FE00
7C00
ENDCHAR
STARTCHAR nine
ENCODING 57
SWIDTH 556 0
DWIDTH 10 0
BBX 10 13 1 0
BITMAP
0780
1FC0
18C0
30C0
30C0
31C0
3FC0
1F80
0180
0380
C700
FE00
7C00
ENDCHAR
STARTCHAR colon
ENCODING 58
SWIDTH 278 0
DWIDTH 5 0
BBX 4 10 1 0
BITMAP
30
30
00
00
00
00
00
00
C0
C0
ENDCHAR
STARTCHAR semicolon
ENCODING 59
SWIDTH 278 0
DWIDTH 5 0
BBX 5 13 0 -3
BITMAP
18
18
00
00
00
00
00
00
60
60
20
40
80
ENDCHAR
STARTCHAR less
ENCODING 60
SWIDTH 584 0
DWIDTH 11 0
BBX 8 7 2 1
BITMAP
07
1C
70
C0
70
1C
06
ENDCHAR
STARTCHAR equal
ENCODING 61
SWIDTH 584 0
DWIDTH 11 0
BBX 8 5 2 2
BITMAP
7F
7F
00
FE
FE
ENDCHAR
STARTCHAR greater
ENCODING 62
SWIDTH 584 0
DWIDTH 11 0
BBX 8 7 2 1
BITMAP
60
38
0E
03
0E
38
E0
ENDCHAR
STARTCHAR question
ENCODING 63
SWIDTH 556 0
DWIDTH 10 0
BBX 8 14 3 0
BITMAP
3E
7F
E3
C7
0E
1C
38
70
60
60
00
00
C0
C0
ENDCHAR
STARTCHAR at
ENCODING 64
SWIDTH 1015 0
DWIDTH 18 0
BBX 17 17 2 -3
BITMAP
01F800
07FE00
0E0700
180300
30ED80
63B980
671980
C63180
CC3300
CC6300
CCE600
CDEC00
C77800
600000
700000
3FE000
0FE000
ENDCHAR
STARTCHAR A
ENCODING 65
SWIDTH 667 0
DWIDTH 12 0
BBX 11 14 0 0
BITMAP
00C0
01C0
03C0
0360
0660
0660
0C60
1C60
1860
3FE0
7FE0
6060
C060
C060
ENDCHAR
STARTCHAR B
ENCODING 66
SWIDTH 667 0
DWIDTH 13 0
BBX 11 14 2 0
BITMAP
1FC0
1FE0
1860
3060
3060
30C0
3F80
7FC0
60E0
6060
6060
C0E0
FFC0
FF00
ENDCHAR
STARTCHAR C
ENCODING 67
SWIDTH 722 0
DWIDTH 13 0
BBX 12 14 2 0
BITMAP
03C0
0FE0
3C70
3030
6000
E000
C000
C000
C000
C060
E0E0
61C0
7F80
1E00
ENDCHAR
STARTCHAR D
ENCODING 68
SWIDTH 722 0
DWIDTH 13 0
BBX 13 14 1 0
BITMAP
1FE0
1FF0
1830
3018
3018
3018
3018
6018
6038
6030
6070
C0E0
FF80
FF00
ENDCHAR
STARTCHAR E
ENCODING 69
SWIDTH 667 0
DWIDTH 12 0
BBX 12 14 2 0
BITMAP
1FF0
1FF0
1800
3000
3000
3000
3FC0
7FC0
6000
6000
6000
C000
FF80
FF80
ENDCHAR
STARTCHAR F
ENCODING 70
SWIDTH 611 0
DWIDTH 11 0
BBX 12 14 2 0
BITMAP
1FF0
1FF0
1800
3000
3000
3000
3F80
7F80
6000
6000
6000
C000
C000
C000
ENDCHAR
STARTCHAR G
ENCODING 71
SWIDTH 778 0
DWIDTH 14 0
BBX 12 14 2 0
BITMAP
03E0
0FF0
1C30
3030
7000
6000
6000
C3F0
C3F0
C060
E060
60C0
7FC0
1EC0
ENDCHAR
STARTCHAR H
ENCODING 72
SWIDTH 722 0
DWIDTH 14 0
BBX 13 14 2 0
BITMAP
1818
1818
1818
3030
3030
3030
3FF0
7FE0
6060
6060
6060
C0C0
C0C0
C0C0
ENDCHAR
STARTCHAR I
ENCODING 73
SWIDTH 278 0
DWIDTH 6 0
BBX 5 14 2 0
BITMAP
18
18
18
30
30
30
30
60
60
60
60
C0
C0
C0
ENDCHAR
STARTCHAR J
ENCODING 74
SWIDTH 500 0
DWIDTH 9 0
BBX 10 14 0 0
BITMAP
00C0
00C0
00C0
0180
0180
0180
0180
0300
0300
0300
C300
C600
FE00
7C00
ENDCHAR
STARTCHAR K
ENCODING 75
SWIDTH 667 0
DWIDTH 13 0
BBX 13 14 1 0
BITMAP
1818
1830
18E0
31C0
3380
3700
3E00
7E00
7700
6380
61C0
C0E0
C070
C030
ENDCHAR
STARTCHAR L
ENCODING 76
SWIDTH 556 0
DWIDTH 10 0
BBX 7 14 2 0
BITMAP
18
18
18
30
30
30
30
60
60
60
60
C0
FE
FE
ENDCHAR
STARTCHAR M
ENCODING 77
SWIDTH 833 0
DWIDTH 15 0
BBX 16 14 1 0
BITMAP
1803
1807
1C0F
3C0E
361E
3636
3636
666C
66EC
66CC
638C
C398
C318
C318
ENDCHAR
STARTCHAR N
ENCODING 78
SWIDTH 722 0
DWIDTH 14 0
BBX 13 14 2 0
BITMAP
1818
1818
1C18
3C30
3630
3630
3630
6660
6360
6360
6360
C1C0
C1C0
C0C0
ENDCHAR
STARTCHAR O
ENCODING 79
SWIDTH 778 0
DWIDTH 15 0
BBX 14 14 2 0
BITMAP
03E0
0FF8
1C18
301C
700C
600C
600C
C018
C018
C038
E030
60E0
7FC0
1F00
ENDCHAR
STARTCHAR P
ENCODING 80
SWIDTH 667 0
DWIDTH 12 0
BBX 11 14 2 0
BITMAP
1FC0
1FE0
3860
3060
3060
30E0
7FC0
7F00
6000
6000
6000
C000
C000
C000
ENDCHAR
STARTCHAR Q
ENCODING 81
SWIDTH 778 0
DWIDTH 15 0
BBX 14 15 2 -1
BITMAP
03E0
0FF8
1C18
301C
700C
600C
600C
C018
C018
C1B8
E1F0
60E0
7FE0
1F70
0030
ENDCHAR
STARTCHAR R
ENCODING 82
SWIDTH 722 0
DWIDTH 14 0
BBX 12 14 2 0
BITMAP
1FE0
1FF0
1830
3030
3030
3070
3FE0
7FC0
60E0
6060
6060
C0C0
C0C0
C0C0
ENDCHAR
STARTCHAR S
ENCODING 83
SWIDTH 667 0
DWIDTH 12 0
BBX 10 14 2 0
BITMAP
0F80
3FC0
70C0
60C0
6000
7C00
3F00
0780
01C0
00C0
C0C0
C180
FF80
7E00
ENDCHAR
STARTCHAR T
ENCODING 84
SWIDTH 611 0
DWIDTH 11 0
BBX 10 14 3 0
BITMAP
FFC0
FFC0
0C00
1800
1800
1800
1800
3000
3000
3000
3000
6000
6000
6000
ENDCHAR
STARTCHAR U
ENCODING 85
SWIDTH 722 0
DWIDTH 14 0
BBX 12 14 3 0
BITMAP
3030
3030
3030
6060
6060
6060
6060
C0C0
C0C0
C0C0
C1C0
E380
7F00
3E00
ENDCHAR
STARTCHAR V
ENCODING 86
SWIDTH 667 0
DWIDTH 12 0
BBX 10 14 4 0
BITMAP
C0C0
C0C0
C180
C180
C300
C300
C600
C600
CC00
CC00
D800
7800
7000
6000
ENDCHAR
STARTCHAR W
ENCODING 87
SWIDTH 944 0
DWIDTH 17 0
BBX 16 14 3 0
BITMAP
C183
C183
C386
C386
C6CC
C6CC
CCCC
CCD8
D8D8
7878
7070
7070
6060
6060
ENDCHAR
STARTCHAR X
ENCODING 88
SWIDTH 667 0
DWIDTH 12 0
BBX 12 14 1 0
BITMAP
3030
3070
3860
18C0
0D80
0F80
0700
0F00
1F00
1980
3180
61C0
E0C0
C0C0
ENDCHAR
STARTCHAR Y
ENCODING 89
SWIDTH 667 0
DWIDTH 12 0
BBX 10 14 4 0
BITMAP
C0C0
C0C0
C180
C380
C300
6600
6E00
6C00
7800
3800
3000
6000
6000
6000
ENDCHAR
STARTCHAR Z
ENCODING 90
SWIDTH 611 0
DWIDTH 11 0
BBX 13 14 0 0
BITMAP
0FF8
0FF8
0030
0060
00C0
0180
0300
0600
0C00
1800
3000
6000
FFC0
FFC0
ENDCHAR
STARTCHAR bracketleft
ENCODING 91
SWIDTH 278 0
DWIDTH 5 0
BBX 8 18 0 -4
BITMAP
0F
0F
18
18
18
30
30
30
30
60
60
60
60
C0
C0
C0
F0
F0
ENDCHAR
STARTCHAR backslash
ENCODING 92
SWIDTH 278 0
DWIDTH 5 0
BBX 4 14 2 0
BITMAP
80
C0
C0
40
40
60
60
60
20
20
30
30
10
10
ENDCHAR
STARTCHAR bracketright
ENCODING 93
SWIDTH 278 0
DWIDTH 5 0
BBX 8 18 -1 -4
BITMAP
0F
0F
03
03
03
06
06
06
06
0C
0C
0C
0C
18
18
18
F0
F0
ENDCHAR
STARTCHAR asciicircum
ENCODING 94
SWIDTH 469 0
DWIDTH 10 0
BBX 8 8 2 5
BITMAP
0C
1C
36
36
66
63
C3
C3
ENDCHAR
STARTCHAR underscore
ENCODING 95
SWIDTH 556 0
DWIDTH 10 0
BBX 11 2 -1 -4
BITMAP
FFE0
FFE0
ENDCHAR
STARTCHAR grave
ENCODING 96
SWIDTH 333 0
DWIDTH 4 0
BBX 4 3 3 11
BITMAP
C0
60
30
ENDCHAR
STARTCHAR a
ENCODING 97
SWIDTH 556 0
DWIDTH 10 0
BBX 9 10 1 0
BITMAP
0F00
3F80
3180
0780
3F00
7300
E300
C600
FE00
7600
ENDCHAR
STARTCHAR b
ENCODING 98
SWIDTH 556 0
DWIDTH 11 0
BBX 10 14 1 0
BITMAP
1800
1800
1800
3000
3780
3FC0
38C0
70C0
60C0
60C0
6180
E380
FF00
DE00
ENDCHAR
STARTCHAR c
ENCODING 99
SWIDTH 500 0
DWIDTH 9 0
BBX 9 10 1 0
BITMAP
0F00
3F80
7180
6000
C000
C000
C000
C600
FE00
7800
ENDCHAR
STARTCHAR d
ENCODING 100
SWIDTH 556 0
DWIDTH 11 0
BBX 11 14 1 0
BITMAP
0060
0060
0060
00C0
1EC0
3FC0
71C0
6180
C180
C180
C380
C700
FF00
7B00
ENDCHAR
STARTCHAR e
ENCODING 101
SWIDTH 556 0
DWIDTH 9 0
BBX 9 10 1 0
BITMAP
0F00
3F80
7180
6180
FF00
C000
C000
C600
FE00
7800
ENDCHAR
STARTCHAR f
ENCODING 102
SWIDTH 278 0
DWIDTH 5 0
BBX 7 14 1 0
BITMAP
0E
1E
18
30
FC
FC
30
60
60
60
60
C0
C0
C0
ENDCHAR
STARTCHAR g
ENCODING 103
SWIDTH 556 0
DWIDTH 10 0
BBX 11 14 0 -4
BITMAP
0760
1FE0
3860
30C0
60C0
60C0
61C0
6380
7F80
3D80
0300
C700
FE00
3800
ENDCHAR
STARTCHAR h
ENCODING 104
SWIDTH 556 0
DWIDTH 11 0
BBX 10 14 1 0
BITMAP
1800
1800
1800
3000
3380
3FC0
38C0
70C0
6180
6180
6180
C300
C300
C300
ENDCHAR
STARTCHAR i
ENCODING 105
SWIDTH 222 0
DWIDTH 4 0
BBX 5 14 1 0
BITMAP
18
18
00
00
30
30
30
60
60
60
60
C0
C0
C0
ENDCHAR
STARTCHAR j
ENCODING 106
SWIDTH 222 0
DWIDTH 4 0
BBX 8 18 -2 -4
BITMAP
03
03
00
00
06
06
06
0C
0C
0C
0C
18
18
18
18
30
F0
E0
ENDCHAR
STARTCHAR k
ENCODING 107
SWIDTH 500 0
DWIDTH 9 0
BBX 9 14 1 0
BITMAP
1800
1800
1800
3000
3180
3300
3600
3C00
7C00
6600
6600
C600
C300
C300
ENDCHAR
STARTCHAR l
ENCODING 108
SWIDTH 222 0
DWIDTH 4 0
BBX 5 14 1 0
BITMAP
18
18
18
30
30
30
30
60
60
60
60
C0
C0
C0
ENDCHAR
STARTCHAR m
ENCODING 109
SWIDTH 833 0
DWIDTH 14 0
BBX 14 10 1 0
BITMAP
3318
37BC
39CC
6318
6318
6318
6318
C630
C630
C630
ENDCHAR
STARTCHAR n
ENCODING 110
SWIDTH 556 0
DWIDTH 11 0
BBX 10 10 1 0
BITMAP
3380
37C0
38C0
70C0
6180
6180
6180
C300
C300
C300
ENDCHAR
STARTCHAR o
ENCODING 111
SWIDTH 556 0
DWIDTH 10 0
BBX 9 10 1 0
BITMAP
0F00
3F80
7180
6180
C180
C180
C300
C700
FE00
7800
ENDCHAR
STARTCHAR p
ENCODING 112
SWIDTH 556 0
DWIDTH 11 0
BBX 11 14 0 -4
BITMAP
1BC0
1FE0
1C60
3860
3060
3060
30C0
71C0
7F80
6F00
6000
C000
C000
C000
ENDCHAR
STARTCHAR q
ENCODING 113
SWIDTH 556 0
DWIDTH 10 0
BBX 10 14 1 -4
BITMAP
1EC0
3FC0
71C0
6180
C180
C180
C380
C700
FF00
7B00
0300
0600
0600
0600
ENDCHAR
STARTCHAR r
ENCODING 114
SWIDTH 333 0
DWIDTH 7 0
BBX 7 10 1 0
BITMAP
36
3E
38
60
60
60
60
C0
C0
C0
ENDCHAR
STARTCHAR s
ENCODING 115
SWIDTH 500 0
DWIDTH 9 0
BBX 9 10 1 0
BITMAP
0F00
3F80
7180
6000
3C00
1F00
0300
C300
FE00
7C00
ENDCHAR
STARTCHAR t
ENCODING 116
SWIDTH 278 0
DWIDTH 5 0
BBX 6 13 1 0
BITMAP
18
18
30
FC
FC
30
60
60
60
C0
C0
E0
60
ENDCHAR
STARTCHAR u
ENCODING 117
SWIDTH 556 0
DWIDTH 10 0
BBX 10 10 1 0
BITMAP
30C0
30C0
30C0
6180
6180
6180
C380
C700
FB00
7300
ENDCHAR
STARTCHAR v
ENCODING 118
SWIDTH 500 0
DWIDTH 9 0
BBX 8 10 2 0
BITMAP
C3
C3
C7
C6
CE
CC
D8
F8
70
60
ENDCHAR
STARTCHAR w
ENCODING 119
SWIDTH 722 0
DWIDTH 13 0
BBX 12 10 2 0
BITMAP
C630
C630
C660
CE60
CE60
DEC0
D6C0
7380
6300
6300
ENDCHAR
STARTCHAR x
ENCODING 120
SWIDTH 500 0
DWIDTH 10 0
BBX 10 10 1 0
BITMAP
30C0
30C0
1980
1B00
0E00
1C00
3E00
6600
C300
C300
ENDCHAR
STARTCHAR y
ENCODING 121
SWIDTH 500 0
DWIDTH 10 0
BBX 10 14 0 -4
BITMAP
30C0
30C0
30C0
3180
3180
3300
1B00
1E00
0C00
1800
1800
3000
E000
C000
ENDCHAR
STARTCHAR z
ENCODING 122
SWIDTH 500 0
DWIDTH 9 0
BBX 9 10 1 0
BITMAP
3F80
3F80
0300
0600
0C00
1800
3000
6000
FE00
FE00
ENDCHAR
STARTCHAR braceleft
ENCODING 123
SWIDTH 334 0
DWIDTH 6 0
BBX 8 18 1 -4
BITMAP
07
0C
18
18
18
18
30
60
C0
60
60
60
C0
C0
C0
C0
C0
70
ENDCHAR
STARTCHAR bar
ENCODING 124
SWIDTH 260 0
DWIDTH 4 0
BBX 6 18 0 -4
BITMAP
0C
0C
0C
18
18
18
18
30
30
30
30
60
60
60
60
C0
C0
C0
ENDCHAR
STARTCHAR braceright
ENCODING 125
SWIDTH 334 0
DWIDTH 7 0
BBX 8 18 0 -4
BITMAP
1C
06
06
06
06
0C
0C
06
03
06
0C
18
18
18
18
18
30
E0
ENDCHAR
STARTCHAR asciitilde
ENCODING 126
SWIDTH 584 0
DWIDTH 10 0
BBX 8 3 2 4
BITMAP
73
FF
CE
ENDCHAR
STARTCHAR space
ENCODING 160
SWIDTH 278 0
DWIDTH 5 0
BBX 1 1 0 0
BITMAP
00
ENDCHAR
STARTCHAR exclamdown
ENCODING 161
SWIDTH 333 0
DWIDTH 6 0
BBX 5 14 1 -4
BITMAP
18
18
00
00
30
30
30
60
60
60
60
C0
C0
C0
ENDCHAR
STARTCHAR cent
ENCODING 162
SWIDTH 556 0
DWIDTH 10 0
BBX 9 14 2 -2
BITMAP
0100
0100
0F00
3F80
7580
6400
C800
C800
D000
D300
FE00
7C00
4000
4000
ENDCHAR
STARTCHAR sterling
ENCODING 163
SWIDTH 556 0
DWIDTH 10 0
BBX 11 13 1 0
BITMAP
07C0
0FE0
1C60
1800
1800
0C00
3F00
0C00
1C00
3800
7080
FF80
DF00
ENDCHAR
STARTCHAR currency
ENCODING 164
SWIDTH 556 0
DWIDTH 11 0
BBX 9 7 2 3
BITMAP
6180
7F80
3300
6200
6600
FF00
C300
ENDCHAR
STARTCHAR yen
ENCODING 165
SWIDTH 556 0
DWIDTH 10 0
BBX 11 13 2 0
BITMAP
6060
60C0
3180
3300
1E00
0C00
7F00
1800
FE00
1800
3000
3000
3000
ENDCHAR
STARTCHAR brokenbar
ENCODING 166
SWIDTH 260 0
DWIDTH 4 0
BBX 5 17 1 -3
BITMAP
18
18
18
18
30
30
30
00
00
00
60
60
60
C0
C0
C0
C0
ENDCHAR
STARTCHAR section
ENCODING 167
SWIDTH 556 0
DWIDTH 10 0
BBX 11 18 0 -4
BITMAP
07C0
0FE0
1C60
1860
1E00
0F00
1B80
31C0
30C0
30C0
38C0
1D80
0F00
C700
C300
E700
7E00
3C00
ENDCHAR
STARTCHAR dieresis
ENCODING 168
SWIDTH 333 0
DWIDTH 6 0
BBX 5 2 3 11
BITMAP
D8
D8
ENDCHAR
STARTCHAR copyright
ENCODING 169
SWIDTH 737 0
DWIDTH 15 0
BBX 15 13 1 0
BITMAP
03E0
0C18
1004
21C4
4622
4402
8802
8804
8C44
4788
4010
3060
0F80
ENDCHAR
STARTCHAR ordfeminine
ENCODING 170
SWIDTH 370 0
DWIDTH 7 0
BBX 7 9 2 5
BITMAP
3C
66
1E
34
6C
74
00
F8
F8
ENDCHAR
STARTCHAR guillemotleft
ENCODING 171
SWIDTH 556 0
DWIDTH 10 0
BBX 8 6 2 3
BITMAP
1B
36
6C
D8
6C
36
ENDCHAR
STARTCHAR logicalnot
ENCODING 172
SWIDTH 584 0
DWIDTH 11 0
BBX 9 5 2 2
BITMAP
FF80
FF80
0180
0300
0300
ENDCHAR
STARTCHAR hyphen
ENCODING 173
SWIDTH 333 0
DWIDTH 7 0
BBX 6 2 2 4
BITMAP
FC
FC
ENDCHAR
STARTCHAR registered
ENCODING 174
SWIDTH 737 0
DWIDTH 15 0
BBX 15 13 1 0
BITMAP
03E0
0C18
1004
23C4
4222
4422
87C2
8484
8844
4828
4010
3060
0F80
ENDCHAR
STARTCHAR macron
ENCODING 175
SWIDTH 333 0
DWIDTH 5 0
BBX 5 1 3 12
BITMAP
F8
ENDCHAR
STARTCHAR degree
ENCODING 176
SWIDTH 400 0
DWIDTH 7 0
BBX 6 5 2 8
BITMAP
78
CC
CC
CC
78
ENDCHAR
STARTCHAR plusminus
ENCODING 177
SWIDTH 584 0
DWIDTH 10 0
BBX 9 11 1 0
BITMAP
0600
0600
0C00
7F80
7F80
0C00
1800
1800
0000
FF00
FF00
ENDCHAR
STARTCHAR twosuperior
ENCODING 178
SWIDTH 333 0
DWIDTH 6 0
BBX 6 8 1 5
BITMAP
38
4C
0C
18
30
60
C0
F8
ENDCHAR
STARTCHAR threesuperior
ENCODING 179
SWIDTH 333 0
DWIDTH 6 0
BBX 7 8 0 5
BITMAP
1C
26
06
18
0C
0C
98
70
ENDCHAR
STARTCHAR acute
ENCODING 180
SWIDTH 333 0
DWIDTH 4 0
BBX 4 3 3 11
BITMAP
30
60
C0
ENDCHAR
STARTCHAR mu
ENCODING 181
SWIDTH 556 0
DWIDTH 10 0
BBX 12 14 -1 -4
BITMAP
0C30
0C30
0C30
1860
1860
1860
30E0
31C0
3EC0
6CC0
6000
6000
C000
C000
ENDCHAR
STARTCHAR paragraph
ENCODING 182
SWIDTH 537 0
DWIDTH 10 0
BBX 10 18 2 -4
BITMAP
0FC0
3C80
7D80
F900
F900
F900
FA00
F200
7200
3400
2400
2400
2400
2800
4800
4800
4800
4800
ENDCHAR
STARTCHAR periodcentered
ENCODING 183
SWIDTH 278 0
DWIDTH 4 0
BBX 2 2 2 4
BITMAP
C0
C0
ENDCHAR
STARTCHAR cedilla
ENCODING 184
SWIDTH 333 0
DWIDTH 5 0
BBX 5 6 -1 -5
BITMAP
10
30
18
18
D8
70
ENDCHAR
STARTCHAR onesuperior
ENCODING 185
SWIDTH 333 0
DWIDTH 6 0
BBX 4 8 2 5
BITMAP
30
F0
30
60
60
C0
C0
C0
ENDCHAR
STARTCHAR ordmasculine
ENCODING 186
SWIDTH 365 0
DWIDTH 7 0
BBX 7 9 2 5
BITMAP
1C
36
36
6C
6C
38
00
F8
F8
ENDCHAR
STARTCHAR guillemotright
ENCODING 187
SWIDTH 556 0
DWIDTH 10 0
BBX 8 6 2 3
BITMAP
6C
36
1B
36
6C
D8
ENDCHAR
STARTCHAR onequarter
ENCODING 188
SWIDTH 834 0
DWIDTH 15 0
BBX 13 13 3 0
BITMAP
3060
F0C0
30C0
6180
6300
C310
C630
CC70
0CF0
19A0
33F8
3060
6060
ENDCHAR
STARTCHAR onehalf
ENCODING 189
SWIDTH 834 0
DWIDTH 15 0
BBX 13 13 3 0
BITMAP
3060
F0C0
30C0
6180
6300
C370
C698
CC18
0C30
1860
30C0
7180
61F0
ENDCHAR
STARTCHAR threequarters
ENCODING 190
SWIDTH 834 0
DWIDTH 15 0
BBX 15 13 0 0
BITMAP
1C18
2630
0630
1860
0CC0
0CC4
998C
731C
032C
0648
0CFE
0C18
1818
ENDCHAR
STARTCHAR questiondown
ENCODING 191
SWIDTH 611 0
DWIDTH 9 0
BBX 8 14 0 -4
BITMAP
03
03
00
00
06
06
0E
1C
38
70
E3
C7
FE
7C
ENDCHAR
STARTCHAR Agrave
ENCODING 192
SWIDTH 667 0
DWIDTH 12 0
BBX 11 17 0 0
BITMAP
0180
00C0
0000
00C0
01C0
03C0
0360
0660
0660
0C60
1C60
1860
3FE0
7FE0
6060
C060
C060
ENDCHAR
STARTCHAR Aacute
ENCODING 193
SWIDTH 667 0
DWIDTH 12 0
BBX 11 17 0 0
BITMAP
0060
00C0
0000
00C0
01C0
03C0
0360
0660
0660
0C60
1C60
1860
3FE0
7FE0
6060
C060
C060
ENDCHAR
STARTCHAR Acircumflex
ENCODING 194
SWIDTH 667 0
DWIDTH 12 0
BBX 12 17 0 0
BITMAP
00E0
01B0
0000
00C0
01C0
03C0
0360
0660
0660
0C60
1C60
1860
3FE0
7FE0
6060
C060
C060
ENDCHAR
STARTCHAR Atilde
ENCODING 195
SWIDTH 667 0
DWIDTH 12 0
BBX 12 17 0 0
BITMAP
01D0
02E0
0000
00C0
01C0
03C0
0360
0660
0660
0C60
1C60
1860
3FE0
7FE0
6060
C060
C060
ENDCHAR
STARTCHAR Adieresis
ENCODING 196
SWIDTH 667 0
DWIDTH 12 0
BBX 12 17 0 0
BITMAP
0330
0330
0000
01C0
01C0
03C0
0360
0660
0660
0C60
1C60
1860
3FE0
7FE0
6060
C060
C060
ENDCHAR
STARTCHAR Aring
ENCODING 197
SWIDTH 667 0
DWIDTH 12 0
BBX 11 17 0 0
BITMAP
00E0
0120
0120
01C0
01C0
03C0
0360
0660
0660
0C60
1C60
1860
3FE0
7FE0
6060
C060
C060
ENDCHAR
STARTCHAR AE
ENCODING 198
SWIDTH 1000 0
DWIDTH 17 0
BBX 19 14 0 0
BITMAP
00FFE0
01FFE0
01B000
033000
066000
066000
0C7F80
1CFF80
18C000
3FC000
7FC000
618000
C1FF00
C1FF00
ENDCHAR
STARTCHAR Ccedilla
ENCODING 199
SWIDTH 722 0
DWIDTH 13 0
BBX 12 19 2 -5
BITMAP
03C0
0FE0
3C70
3030
6000
E000
C000
C000
C000
C060
E0E0
61C0
7F80
3E00
1000
3000
1800
D800
7000
ENDCHAR
STARTCHAR Egrave
ENCODING 200
SWIDTH 667 0
DWIDTH 12 0
BBX 12 17 2 0
BITMAP
0300
0180
0000
1FF0
1FF0
1800
3000
3000
3000
3FC0
7FC0
6000
6000
6000
C000
FF80
FF80
ENDCHAR
STARTCHAR Eacute
ENCODING 201
SWIDTH 667 0
DWIDTH 12 0
BBX 12 17 2 0
BITMAP
00C0
0180
0000
1FF0
1FF0
1800
3000
3000
3000
3FC0
7FC0
6000
6000
6000
C000
FF80
FF80
ENDCHAR
STARTCHAR Ecircumflex
ENCODING 202
SWIDTH 667 0
DWIDTH 12 0
BBX 12 17 2 0
BITMAP
0380
06C0
0000
1FF0
1FF0
1800
3000
3000
3000
3FC0
7FC0
6000
6000
6000
C000
FF80
FF80
ENDCHAR
STARTCHAR Edieresis
ENCODING 203
SWIDTH 667 0
DWIDTH 12 0
BBX 12 17 2 0
BITMAP
0660
0660
0000
1FF0
1FF0
1800
3000
3000
3000
3FC0
7FC0
6000
6000
6000
C000
FF80
FF80
ENDCHAR
STARTCHAR Igrave
ENCODING 204
SWIDTH 278 0
DWIDTH 6 0
BBX 5 17 2 0
BITMAP
30
18
00
18
18
18
30
30
30
30
60
60
60
60
C0
C0
C0
ENDCHAR
STARTCHAR Iacute
ENCODING 205
SWIDTH 278 0
DWIDTH 6 0
BBX 6 17 2 0
BITMAP
0C
18
00
18
18
18
30
30
30
30
60
60
60
60
C0
C0
C0
ENDCHAR
STARTCHAR Icircumflex
ENCODING 206
SWIDTH 278 0
DWIDTH 6 0
BBX 7 17 2 0
BITMAP
1C
36
00
18
18
18
30
30
30
30
60
60
60
60
C0
C0
C0
ENDCHAR
STARTCHAR Idieresis
ENCODING 207
SWIDTH 278 0
DWIDTH 6 0
BBX 7 17 2 0
BITMAP
36
36
00
18
18
18
30
30
30
30
60
60
60
60
C0
C0
C0
ENDCHAR
STARTCHAR Eth
ENCODING 208
SWIDTH 722 0
DWIDTH 13 0
BBX 13 14 1 0
BITMAP
1FE0
1FF0
1830
3018
3018
3018
FC18
FC38
6030
6070
60E0
C1C0
FF80
FF00
ENDCHAR
STARTCHAR Ntilde
ENCODING 209
SWIDTH 722 0
DWIDTH 14 0
BBX 13 17 2 0
BITMAP
03A0
05C0
0000
1818
1818
1C18
3C30
3630
3630
3630
6660
6360
6360
6360
C1C0
C1C0
C0C0
ENDCHAR
STARTCHAR Ograve
ENCODING 210
SWIDTH 778 0
DWIDTH 15 0
BBX 14 17 2 0
BITMAP
0180
00C0
0000
03E0
0FF8
1C18
301C
700C
600C
600C
C018
C018
C038
E030
60E0
7FC0
1F00
ENDCHAR
STARTCHAR Oacute
ENCODING 211
SWIDTH 778 0
DWIDTH 15 0
BBX 14 17 2 0
BITMAP
0060
00C0
0000
03E0
0FF8
1C18
301C
700C
600C
600C
C018
C018
C038
E030
60E0
7FC0
1F00
ENDCHAR
STARTCHAR Ocircumflex
ENCODING 212
SWIDTH 778 0
DWIDTH 15 0
BBX 14 17 2 0
BITMAP
01C0
0360
0000
03E0
0FF8
1C18
301C
700C
600C
600C
C018
C018
C038
E030
60E0
7FC0
1F00
ENDCHAR
STARTCHAR Otilde
ENCODING 213
SWIDTH 778 0
DWIDTH 15 0
BBX 14 17 2 0
BITMAP
01D0
02E0
0000
03E0
0FF8
1C18
301C
700C
600C
600C
C018
C018
C038
E030
60E0
7FC0
1F00
ENDCHAR
STARTCHAR Odieresis
ENCODING 214
SWIDTH 778 0
DWIDTH 15 0
BBX 14 17 2 0
BITMAP
0330
0330
0000
03E0
0FF8
1C18
301C
700C
600C
600C
C018
C018
C038
E030
60E0
7FC0
1F00
ENDCHAR
STARTCHAR multiply
ENCODING 215
SWIDTH 584 0
DWIDTH 10 0
BBX 10 10 1 0
BITMAP
4040
60C0
3180
1B00
0E00
1C00
3600
6300
C180
8080
ENDCHAR
STARTCHAR Oslash
ENCODING 216
SWIDTH 778 0
DWIDTH 15 0
BBX 15 14 2 0
BITMAP
03E6
0FFC
1C18
303C
706C
60CC
618C
C318
C618
CC38
D830
F0E0
7FC0
DF00
ENDCHAR
STARTCHAR Ugrave
ENCODING 217
SWIDTH 722 0
DWIDTH 14 0
BBX 12 17 3 0
BITMAP
0600
0300
0000
3030
3030
3030
6060
6060
6060
6060
C0C0
C0C0
C0C0
C1C0
E380
7F00
3E00
ENDCHAR
STARTCHAR Uacute
ENCODING 218
SWIDTH 722 0
DWIDTH 14 0
BBX 12 17 3 0
BITMAP
0180
0300
0000
3030
3030
3030
6060
6060
6060
6060
C0C0
C0C0
C0C0
C1C0
E380
7F00
3E00
ENDCHAR
STARTCHAR Ucircumflex
ENCODING 219
SWIDTH 722 0
DWIDTH 14 0
BBX 12 17 3 0
BITMAP
0380
06C0
0000
3030
3030
3030
6060
6060
6060
6060
C0C0
C0C0
C0C0
C1C0
E380
7F00
3E00
ENDCHAR
STARTCHAR Udieresis
ENCODING 220
SWIDTH 722 0
DWIDTH 14 0
BBX 12 17 3 0
BITMAP
0CC0
0CC0
0000
3030
3030
3030
6060
6060
6060
6060
C0C0
C0C0
C0C0
C1C0
E380
7F00
3E00
ENDCHAR
STARTCHAR Yacute
ENCODING 221
SWIDTH 667 0
DWIDTH 12 0
BBX 10 17 4 0
BITMAP
0600
0C00
0000
C0C0
C0C0
C180
C380
C300
6600
6E00
6C00
7800
3800
3000
6000
6000
6000
ENDCHAR
STARTCHAR Thorn
ENCODING 222
SWIDTH 667 0
DWIDTH 12 0
BBX 10 14 2 0
BITMAP
1800
1800
1800
3F80
3FC0
30C0
30C0
60C0
61C0
7F80
7E00
C000
C000
C000
ENDCHAR
STARTCHAR germandbls
ENCODING 223
SWIDTH 611 0
DWIDTH 10 0
BBX 9 14 1 0
BITMAP
0700
0F80
1980
3180
3180
3300
3600
6700
6180
6180
6180
C300
CF00
CE00
ENDCHAR
STARTCHAR agrave
ENCODING 224
SWIDTH 556 0
DWIDTH 10 0
BBX 9 14 1 0
BITMAP
1800
0C00
0600
0000
0F00
3F80
3180
0780
3F00
7300
E300
C600
FE00
7600
ENDCHAR
STARTCHAR aacute
ENCODING 225
SWIDTH 556 0
DWIDTH 10 0
BBX 9 14 1 0
BITMAP
0180
0300
0600
0000
0F00
3F80
3180
0780
3F00
7300
E300
C600
FE00
7600
ENDCHAR
STARTCHAR acircumflex
ENCODING 226
SWIDTH 556 0
DWIDTH 10 0
BBX 9 14 1 0
BITMAP
0600
0F00
1980
0000
0F00
3F80
3180
0780
3F00
7300
E300
C600
FE00
7600
ENDCHAR
STARTCHAR atilde
ENCODING 227
SWIDTH 556 0
DWIDTH 10 0
BBX 10 14 1 0
BITMAP
0640
0F80
1300
0000
0F00
3F80
3180
0780
3F00
7300
E300
C600
FE00
7600
ENDCHAR
STARTCHAR adieresis
ENCODING 228
SWIDTH 556 0
DWIDTH 10 0
BBX 9 13 1 0
BITMAP
0D80
0D80
0000
0F00
3F80
3180
0780
3F00
7300
E300
C600
FE00
7600
ENDCHAR
STARTCHAR aring
ENCODING 229
SWIDTH 556 0
DWIDTH 10 0
BBX 9 14 1 0
BITMAP
0700
0900
0900
0E00
0F00
3F80
3180
0780
3F00
7300
E300
C600
FE00
7600
ENDCHAR
STARTCHAR ae
ENCODING 230
SWIDTH 889 0
DWIDTH 15 0
BBX 14 10 1 0
BITMAP
0F78
3FFC
318C
078C
3FF8
7300
E300
C718
FFF8
77E0
ENDCHAR
STARTCHAR ccedilla
ENCODING 231
SWIDTH 500 0
DWIDTH 9 0
BBX 10 15 0 -5
BITMAP
0780
1FC0
38C0
3000
6000
6000
6000
6300
7F00
3E00
1000
3000
1800
D800
7000
ENDCHAR
STARTCHAR egrave
ENCODING 232
SWIDTH 556 0
DWIDTH 9 0
BBX 9 14 1 0
BITMAP
1800
0C00
0600
0000
0F00
3F80
7180
6180
FF00
C000
C000
C600
FE00
7800
ENDCHAR
STARTCHAR eacute
ENCODING 233
SWIDTH 556 0
DWIDTH 9 0
BBX 9 14 1 0
BITMAP
0180
0300
0600
0000
0F00
3F80
7180
6180
FF00
C000
C000
C600
FE00
7800
ENDCHAR
STARTCHAR ecircumflex
ENCODING 234
SWIDTH 556 0
DWIDTH 9 0
BBX 9 14 1 0
BITMAP
0600
0F00
1980
0000
0F00
3F80
7180
6180
FF00
C000
C000
C600
FE00
7800
ENDCHAR
STARTCHAR edieresis
ENCODING 235
SWIDTH 556 0
DWIDTH 9 0
BBX 9 13 1 0
BITMAP
1B00
1B00
0000
0F00
3F80
7180
6180
FF00
C000
C000
C600
FE00
7800
ENDCHAR
STARTCHAR igrave
ENCODING 236
SWIDTH 278 0
DWIDTH 4 0
BBX 4 14 1 0
BITMAP
C0
60
30
00
30
30
30
60
60
60
60
C0
C0
C0
ENDCHAR
STARTCHAR iacute
ENCODING 237
SWIDTH 278 0
DWIDTH 4 0
BBX 6 14 1 0
BITMAP
0C
18
30
00
30
30
30
60
60
60
60
C0
C0
C0
ENDCHAR
STARTCHAR icircumflex
ENCODING 238
SWIDTH 278 0
DWIDTH 4 0
BBX 6 14 1 0
BITMAP
30
78
CC
00
30
30
30
60
60
60
60
C0
C0
C0
ENDCHAR
STARTCHAR idieresis
ENCODING 239
SWIDTH 278 0
DWIDTH 4 0
BBX 6 13 1 0
BITMAP
6C
6C
00
30
30
30
60
60
60
60
C0
C0
C0
ENDCHAR
STARTCHAR eth
ENCODING 240
SWIDTH 556 0
DWIDTH 10 0
BBX 9 14 1 0
BITMAP
1800
0D80
1E00
0300
0F00
3F80
7180
6180
C180
C180
C300
C700
FE00
7800
ENDCHAR
STARTCHAR ntilde
ENCODING 241
SWIDTH 556 0
DWIDTH 11 0
BBX 11 14 1 0
BITMAP
0320
07C0
0980
0000
3380
37C0
38C0
70C0
6180
6180
6180
C300
C300
C300
ENDCHAR
STARTCHAR ograve
ENCODING 242
SWIDTH 556 0
DWIDTH 10 0
BBX 9 14 1 0
BITMAP
1800
0C00
0600
0000
0F00
3F80
7180
6180
C180
C180
C300
C700
FE00
7800
ENDCHAR
STARTCHAR oacute
ENCODING 243
SWIDTH 556 0
DWIDTH 10 0
BBX 9 14 1 0
BITMAP
0180
0300
0600
0000
0F00
3F80
7180
6180
C180
C180
C300
C700
FE00
7800
ENDCHAR
STARTCHAR ocircumflex
ENCODING 244
SWIDTH 556 0
DWIDTH 10 0
BBX 9 14 1 0
BITMAP
0600
0F00
1980
0000
0F00
3F80
7180
6180
C180
C180
C300
C700
FE00
7800
ENDCHAR
STARTCHAR otilde
ENCODING 245
SWIDTH 556 0
DWIDTH 10 0
BBX 10 14 1 0
BITMAP
0640
0F80
1300
0000
0F00
3F80
7180
6180
C180
C180
C300
C700
FE00
7800
ENDCHAR
STARTCHAR odieresis
ENCODING 246
SWIDTH 556 0
DWIDTH 10 0
BBX 9 13 1 0
BITMAP
0D80
0D80
0000
0F00
3F80
7180
6180
C180
C180
C300
C700
FE00
7800
ENDCHAR
STARTCHAR divide
ENCODING 247
SWIDTH 584 0
DWIDTH 10 0
BBX 8 8 2 1
BITMAP
0C
0C
00
FF
FF
00
30
30
ENDCHAR
STARTCHAR oslash
ENCODING 248
SWIDTH 611 0
DWIDTH 10 0
BBX 13 10 -1 0
BITMAP
03D8
0FF0
1C60
19E0
3360
3660
3CC0
31C0
7F80
DE00
ENDCHAR
STARTCHAR ugrave
ENCODING 249
SWIDTH 556 0
DWIDTH 10 0
BBX 10 14 1 0
BITMAP
1800
0C00
0600
0000
30C0
30C0
30C0
6180
6180
6180
C380
C700
FB00
7300
ENDCHAR
STARTCHAR uacute
ENCODING 250
SWIDTH 556 0
DWIDTH 10 0
BBX 10 14 1 0
BITMAP
0180
0300
0600
0000
30C0
30C0
30C0
6180
6180
6180
C380
C700
FB00
7300
ENDCHAR
STARTCHAR ucircumflex
ENCODING 251
SWIDTH 556 0
DWIDTH 10 0
BBX 10 14 1 0
BITMAP
0600
0F00
1980
0000
30C0
30C0
30C0
6180
6180
6180
C380
C700
FB00
7300
ENDCHAR
STARTCHAR udieresis
ENCODING 252
SWIDTH 556 0
DWIDTH 10 0
BBX 10 13 1 0
BITMAP
0D80
0D80
0000
30C0
30C0
30C0
6180
6180
6180
C380
C700
FB00
7300
ENDCHAR
STARTCHAR yacute
ENCODING 253
SWIDTH 500 0
DWIDTH 10 0
BBX 9 18 1 -4
BITMAP
0300
0600
0C00
0000
6180
6180
6180
6300
6300
6600
3600
3C00
1C00
1800
3000
6000
C000
8000
ENDCHAR
STARTCHAR thorn
ENCODING 254
SWIDTH 556 0
DWIDTH 11 0
BBX 11 18 0 -4
BITMAP
0C00
0C00
0C00
0C00
1BC0
1FE0
1C60
3860
3060
3060
30C0
71C0
7F80
6F00
6000
C000
C000
C000
ENDCHAR
STARTCHAR ydieresis
ENCODING 255
SWIDTH 500 0
DWIDTH 10 0
BBX 9 17 1 -4
BITMAP
1B00
1B00
0000
6180
6180
6180
6300
6300
6600
3600
3C00
1C00
1800
3000
6000
C000
8000
ENDCHAR
STARTCHAR Amacron
ENCODING 256
SWIDTH 667 0
DWIDTH 12 0
BBX 11 16 0 0
BITMAP
07C0
0000
00C0
01C0
03C0
0360
0660
0660
0C60
1C60
1860
3FE0
7FE0
6060
C060
C060
ENDCHAR
STARTCHAR amacron
ENCODING 257
SWIDTH 556 0
DWIDTH 10 0
BBX 9 12 1 0
BITMAP
1F00
0000
0F00
3F80
3180
0780
3F00
7300
E300
C600
FE00
7600
ENDCHAR
STARTCHAR Abreve
ENCODING 258
SWIDTH 667 0
DWIDTH 12 0
BBX 11 18 0 0
BITMAP
0440
06C0
0380
0000
00C0
01C0
03C0
0360
0660
0660
0C60
1C60
1860
3FE0
7FE0
6060
C060
C060
ENDCHAR
STARTCHAR abreve
ENCODING 259
SWIDTH 556 0
DWIDTH 10 0
BBX 9 14 1 0
BITMAP
1100
1B00
0E00
0000
0F00
3F80
3180
0780
3F00
7300
E300
C600
FE00
7600
ENDCHAR
STARTCHAR Aogonek
ENCODING 260
SWIDTH 667 0
DWIDTH 12 0
BBX 11 19 0 -5
BITMAP
00C0
01C0
03C0
0360
0660
0660
0C60
1C60
1860
3FE0
7FE0
6060
C060
C060
0300
0E00
1800
1800
0E00
ENDCHAR
STARTCHAR aogonek
ENCODING 261
SWIDTH 556 0
DWIDTH 10 0
BBX 9 15 1 -5
BITMAP
0F00
3F80
3180
0780
3F00
7300
E300
C600
FE00
7600
0C00
3800
6000
6000
3800
ENDCHAR
STARTCHAR Cacute
ENCODING 262
SWIDTH 722 0
DWIDTH 13 0
BBX 12 18 2 0
BITMAP
00C0
0180
0300
0000
03C0
0FE0
3C70
3030
6000
E000
C000
C000
C000
C060
E0E0
61C0
7F80
1E00
ENDCHAR
STARTCHAR cacute
ENCODING 263
SWIDTH 500 0
DWIDTH 9 0
BBX 9 14 1 0
BITMAP
0300
0600
0C00
0000
0F00
3F80
7180
6000
C000
C000
C000
C600
FE00
7800
ENDCHAR
STARTCHAR Ccircumflex
ENCODING 264
SWIDTH 722 0
DWIDTH 13 0
BBX 12 18 2 0
BITMAP
0300
0780
0CC0
0000
03C0
0FE0
3C70
3030
6000
E000
C000
C000
C000
C060
E0E0
61C0
7F80
1E00
ENDCHAR
STARTCHAR ccircumflex
ENCODING 265
SWIDTH 500 0
DWIDTH 9 0
BBX 9 14 1 0
BITMAP
0C00
1E00
3300
0000
0F00
3F80
7180
6000
C000
C000
C000
C600
FE00
7800
ENDCHAR
STARTCHAR Cdotaccent
ENCODING 266
SWIDTH 722 0
DWIDTH 13 0
BBX 12 17 2 0
BITMAP
0300
0300
0000
03C0
0FE0
3C70
3030
6000
E000
C000
C000
C000
C060
E0E0
61C0
7F80
1E00
ENDCHAR
STARTCHAR cdotaccent
ENCODING 267
SWIDTH 500 0
DWIDTH 9 0
BBX 9 13 1 0
BITMAP
0C00
0C00
0000
0F00
3F80
7180
6000
C000
C000
C000
C600
FE00
7800
ENDCHAR
STARTCHAR Ccaron
ENCODING 268
SWIDTH 722 0
DWIDTH 13 0
BBX 12 18 2 0
BITMAP
0CC0
0780
0300
0000
03C0
0FE0
3C70
3030
6000
E000
C000
C000
C000
C060
E0E0
61C0
7F80
1E00
ENDCHAR
STARTCHAR ccaron
ENCODING 269
SWIDTH 500 0
DWIDTH 9 0
BBX 9 14 1 0
BITMAP
3300
1E00
0C00
0000
0F00
3F80
7180
6000
C000
C000
C000
C600
FE00
7800
ENDCHAR
STARTCHAR Dcaron
ENCODING 270
SWIDTH 722 0
DWIDTH 13 0
BBX 13 18 1 0
BITMAP
0CC0
0780
0300
0000
1FE0
1FF0
1830
3018
3018
3018
3018
6018
6038
6030
6070
C0E0
FF80
FF00
ENDCHAR
STARTCHAR dcaron
ENCODING 271
SWIDTH 750 0
DWIDTH 14 0
BBX 15 14 1 0
BITMAP
0066
0066
0062
00CC
1EC0
3FC0
71C0
6180
C180
C180
C380
C700
FF00
7B00
ENDCHAR
STARTCHAR Dcroat
ENCODING 272
SWIDTH 722 0
DWIDTH 13 0
BBX 13 14 1 0
BITMAP
1FE0
1FF0
1830
3018
3018
3018
FC18
FC38
6030
6070
60E0
C1C0
FF80
FF00
ENDCHAR
STARTCHAR dcroat
ENCODING 273
SWIDTH 556 0
DWIDTH 11 0
BBX 11 14 1 0
BITMAP
0060
0060
03E0
03E0
1EC0
3FC0
71C0
6180
C180
C180
C380
C700
FF00
7B00
ENDCHAR
STARTCHAR Emacron
ENCODING 274
SWIDTH 667 0
DWIDTH 12 0
BBX 12 16 2 0
BITMAP
0F80
0000
1FF0
1FF0
1800
3000
3000
3000
3FC0
7FC0
6000
6000
6000
C000
FF80
FF80
ENDCHAR
STARTCHAR emacron
ENCODING 275
SWIDTH 556 0
DWIDTH 9 0
BBX 9 12 1 0
BITMAP
1F00
0000
0F00
3F80
7180
6180
FF00
C000
C000
C600
FE00
7800
ENDCHAR
STARTCHAR Ebreve
ENCODING 276
SWIDTH 667 0
DWIDTH 12 0
BBX 12 18 2 0
BITMAP
0880
0D80
0700
0000
1FF0
1FF0
1800
3000
3000
3000
3FC0
7FC0
6000
6000
6000
C000
FF80
FF80
ENDCHAR
STARTCHAR ebreve
ENCODING 277
SWIDTH 556 0
DWIDTH 9 0
BBX 9 14 1 0
BITMAP
1100
1B00
0E00
0000
0F00
3F80
7180
6180
FF00
C000
C000
C600
FE00
7800
ENDCHAR
STARTCHAR Edotaccent
ENCODING 278
SWIDTH 667 0
DWIDTH 12 0
BBX 12 17 2 0
BITMAP
0300
0300
0000
1FF0
1FF0
1800
3000
3000
3000
3FC0
7FC0
6000
6000
6000
C000
FF80
FF80
ENDCHAR
STARTCHAR edotaccent
ENCODING 279
SWIDTH 556 0
DWIDTH 9 0
BBX 9 13 1 0
BITMAP
0C00
0C00
0000
0F00
3F80
7180
6180
FF00
C000
C000
C600
FE00
7800
ENDCHAR
STARTCHAR Eogonek
ENCODING 280
SWIDTH 667 0
DWIDTH 12 0
BBX 12 19 2 -5
BITMAP
1FF0
1FF0
1800
3000
3000
3000
3FC0
7FC0
6000
6000
6000
C000
FF80
FF80
0600
1C00
3000
3000
1C00
ENDCHAR
STARTCHAR eogonek
ENCODING 281
SWIDTH 556 0
DWIDTH 9 0
BBX 9 15 1 -5
BITMAP
0F00
3F80
7180
6180
FF00
C000
C000
C600
FE00
7800
0C00
3800
6000
6000
3800
ENDCHAR
STARTCHAR Ecaron
ENCODING 282
SWIDTH 667 0
DWIDTH 12 0
BBX 12 18 2 0
BITMAP
0CC0
0780
0300
0000
1FF0
1FF0
1800
3000
3000
3000
3FC0
7FC0
6000
6000
6000
C000
FF80
FF80
ENDCHAR
STARTCHAR ecaron
ENCODING 283
SWIDTH 556 0
DWIDTH 9 0
BBX 9 14 1 0
BITMAP
3300
1E00
0C00
0000
0F00
3F80
7180
6180
FF00
C000
C000
C600
FE00
7800
ENDCHAR
STARTCHAR Gcircumflex
ENCODING 284
SWIDTH 778 0
DWIDTH 14 0
BBX 12 18 2 0
BITMAP
0300
0780
0CC0
0000
03E0
0FF0
1C30
3030
7000
6000
6000
C3F0
C3F0
C060
E060
60C0
7FC0
1EC0
ENDCHAR
STARTCHAR gcircumflex
ENCODING 285
SWIDTH 556 0
DWIDTH 10 0
BBX 11 18 0 -4
BITMAP
0600
0F00
1980
0000
0760
1FE0
3860
30C0
60C0
60C0
61C0
6380
7F80
3D80
0300
C700
FE00
3800
ENDCHAR
STARTCHAR Gbreve
ENCODING 286
SWIDTH 778 0
DWIDTH 14 0
BBX 12 18 2 0
BITMAP
0440
06C0
0380
0000
03E0
0FF0
1C30
3030
7000
6000
6000
C3F0
C3F0
C060
E060
60C0
7FC0
1EC0
ENDCHAR
STARTCHAR gbreve
ENCODING 287
SWIDTH 556 0
DWIDTH 10 0
BBX 11 18 0 -4
BITMAP
0880
0D80
0700
0000
0760
1FE0
3860
30C0
60C0
60C0
61C0
6380
7F80
3D80
0300
C700
FE00
3800
ENDCHAR
STARTCHAR Gdotaccent
ENCODING 288
SWIDTH 778 0
DWIDTH 14 0
BBX 12 17 2 0
BITMAP
0300
0300
0000
03E0
0FF0
1C30
3030
7000
6000
6000
C3F0
C3F0
C060
E060
60C0
7FC0
1EC0
ENDCHAR
STARTCHAR gdotaccent
ENCODING 289
SWIDTH 556 0
DWIDTH 10 0
BBX 11 17 0 -4
BITMAP
0600
0600
0000
0760
1FE0
3860
30C0
60C0
60C0
61C0
6380
7F80
3D80
0300
C700
FE00
3800
ENDCHAR
STARTCHAR Gcommaaccent
ENCODING 290
SWIDTH 778 0
DWIDTH 14 0
BBX 12 20 2 -6
BITMAP
03E0
0FF0
1C30
3030
7000
6000
6000
C3F0
C3F0
C060
E060
60C0
7FC0
1EC0
0000
0600
0600
0200
0400
0800
ENDCHAR
STARTCHAR gcommaaccent
ENCODING 291
SWIDTH 556 0
DWIDTH 10 0
BBX 11 19 0 -4
BITMAP
0300
0400
0600
0600
0000
0760
1FE0
3860
30C0
60C0
60C0
61C0
6380
7F80
3D80
0300
C700
FE00
3800
ENDCHAR
STARTCHAR Hcircumflex
ENCODING 292
SWIDTH 722 0
DWIDTH 14 0
BBX 13 18 2 0
BITMAP
0300
0780
0CC0
0000
1818
1818
1818
3030
3030
3030
3FF0
7FE0
6060
6060
6060
C0C0
C0C0
C0C0
ENDCHAR
STARTCHAR hcircumflex
ENCODING 293
SWIDTH 556 0
DWIDTH 11 0
BBX 10 18 1 0
BITMAP
1800
3C00
6600
0000
1800
1800
1800
3000
3380
3FC0
38C0
70C0
6180
6180
6180
C300
C300
C300
ENDCHAR
STARTCHAR Hbar
ENCODING 294
SWIDTH 722 0
DWIDTH 14 0
BBX 13 14 2 0
BITMAP
1818
1818
1818
FFF8
FFF8
3030
3FF0
7FE0
6060
6060
6060
C0C0
C0C0
C0C0
ENDCHAR
STARTCHAR hbar
ENCODING 295
SWIDTH 556 0
DWIDTH 11 0
BBX 10 14 1 0
BITMAP
1800
1800
7C00
7C00
3380
3FC0
38C0
70C0
6180
6180
6180
C300
C300
C300
ENDCHAR
STARTCHAR Itilde
ENCODING 296
SWIDTH 278 0
DWIDTH 6 0
BBX 7 18 2 0
BITMAP
32
7C
98
00
18
18
18
30
30
30
30
60
60
60
60
C0
C0
C0
ENDCHAR
STARTCHAR itilde
ENCODING 297
SWIDTH 278 0
DWIDTH 4 0
BBX 7 14 1 0
BITMAP
32
7C
98
00
30
30
30
60
60
60
60
C0
C0
C0
ENDCHAR
STARTCHAR Imacron
ENCODING 298
SWIDTH 278 0
DWIDTH 6 0
BBX 6 16 2 0
BITMAP
7C
00
18
18
18
30
30
30
30
60
60
60
60
C0
C0
C0
ENDCHAR
STARTCHAR imacron
ENCODING 299
SWIDTH 278 0
DWIDTH 4 0
BBX 5 12 1 0
BITMAP
F8
00
30
30
30
60
60
60
60
C0
C0
C0
ENDCHAR
STARTCHAR Ibreve
ENCODING 300
SWIDTH 278 0
DWIDTH 6 0
BBX 6 18 2 0
BITMAP
44
6C
38
00
18
18
18
30
30
30
30
60
60
60
60
C0
C0
C0
ENDCHAR
STARTCHAR ibreve
ENCODING 301
SWIDTH 278 0
DWIDTH 4 0
BBX 5 14 1 0
BITMAP
88
D8
70
00
30
30
30
60
60
60
60
C0
C0
C0
ENDCHAR
STARTCHAR Iogonek
ENCODING 302
SWIDTH 278 0
DWIDTH 6 0
BBX 6 19 1 -5
BITMAP
0C
0C
0C
18
18
18
18
30
30
30
30
60
60
60
18
70
C0
C0
70
ENDCHAR
STARTCHAR iogonek
ENCODING 303
SWIDTH 222 0
DWIDTH 4 0
BBX 6 19 0 -5
BITMAP
0C
0C
00
00
18
18
18
30
30
30
30
60
60
60
18
70
C0
C0
70
ENDCHAR
STARTCHAR Idotaccent
ENCODING 304
SWIDTH 278 0
DWIDTH 6 0
BBX 5 17 2 0
BITMAP
30
30
00
18
18
18
30
30
30
30
60
60
60
60
C0
C0
C0
ENDCHAR
STARTCHAR dotlessi
ENCODING 305
SWIDTH 278 0
DWIDTH 4 0
BBX 4 10 1 0
BITMAP
30
30
30
60
60
60
60
C0
C0
C0
ENDCHAR
STARTCHAR IJ
ENCODING 306
SWIDTH 764 0
DWIDTH 15 0
BBX 14 14 2 0
BITMAP
180C
180C
180C
3018
3018
3018
3018
6030
6030
6030
6C30
CC60
CFE0
C7C0
ENDCHAR
STARTCHAR ij
ENCODING 307
SWIDTH 433 0
DWIDTH 8 0
BBX 9 18 1 -4
BITMAP
1980
1980
0000
0000
3300
3300
3300
6600
6600
6600
6600
CC00
CC00
CC00
0C00
1800
7800
7000
ENDCHAR
STARTCHAR Jcircumflex
ENCODING 308
SWIDTH 500 0
DWIDTH 9 0
BBX 11 18 0 0
BITMAP
0180
03C0
0660
0000
00C0
00C0
00C0
0180
0180
0180
0180
0300
0300
0300
C300
C600
FE00
7C00
ENDCHAR
STARTCHAR jcircumflex
ENCODING 309
SWIDTH 222 0
DWIDTH 4 0
BBX 8 18 -2 -4
BITMAP
0C
1E
33
00
06
06
06
0C
0C
0C
0C
18
18
18
18
30
F0
E0
ENDCHAR
STARTCHAR Kcommaaccent
ENCODING 310
SWIDTH 667 0
DWIDTH 13 0
BBX 13 20 1 -6
BITMAP
1818
1830
18E0
31C0
3380
3700
3E00
7E00
7700
6380
61C0
C0E0
C070
C030
0000
0600
0600
0200
0400
0800
ENDCHAR
STARTCHAR kcommaaccent
ENCODING 311
SWIDTH 500 0
DWIDTH 9 0
BBX 9 20 1 -6
BITMAP
1800
1800
1800
3000
3180
3300
3600
3C00
7C00
6600
6600
C600
C300
C300
0000
1800
1800
0800
1000
2000
ENDCHAR
STARTCHAR kgreenlandic
ENCODING 312
SWIDTH 500 0
DWIDTH 9 0
BBX 9 10 1 0
BITMAP
3180
3300
3600
3C00
7C00
6600
6600
C600
C300
C300
ENDCHAR
STARTCHAR Lacute
ENCODING 313
SWIDTH 556 0
DWIDTH 10 0
BBX 7 18 2 0
BITMAP
0C
18
30
00
18
18
18
30
30
30
30
60
60
60
60
C0
FE
FE
ENDCHAR
STARTCHAR lacute
ENCODING 314
SWIDTH 222 0
DWIDTH 4 0
BBX 6 18 1 0
BITMAP
0C
18
30
00
18
18
18
30
30
30
30
60
60
60
60
C0
C0
C0
ENDCHAR
STARTCHAR Lcommaaccent
ENCODING 315
SWIDTH 556 0
DWIDTH 10 0
BBX 7 20 2 -6
BITMAP
18
18
18
30
30
30
30
60
60
60
60
C0
FE
FE
00
30
30
10
20
40
ENDCHAR
STARTCHAR lcommaaccent
ENCODING 316
SWIDTH 222 0
DWIDTH 4 0
BBX 5 20 1 -6
BITMAP
18
18
18
30
30
30
30
60
60
60
60
C0
C0
C0
00
60
60
20
40
80
ENDCHAR
STARTCHAR Lcaron
ENCODING 317
SWIDTH 750 0
DWIDTH 14 0
BBX 14 14 2 0
BITMAP
180C
180C
1804
3018
3000
3000
3000
6000
6000
6000
6000
C000
FE00
FE00
ENDCHAR
STARTCHAR lcaron
ENCODING 318
SWIDTH 433 0
DWIDTH 8 0
BBX 9 14 1 0
BITMAP
1980
1980
1880
3300
3000
3000
3000
6000
6000
6000
6000
C000
C000
C000
ENDCHAR
STARTCHAR Ldot
ENCODING 319
SWIDTH 806 0
DWIDTH 14 0
BBX 12 14 2 0
BITMAP
1800
1800
1800
3000
3000
3000
3000
6000
6030
6030
6000
C000
FE00
FE00
ENDCHAR
STARTCHAR ldot
ENCODING 320
SWIDTH 489 0
DWIDTH 8 0
BBX 7 14 1 0
BITMAP
18
18
18
30
30
30
30
60
66
66
60
C0
C0
C0
ENDCHAR
STARTCHAR Lslash
ENCODING 321
SWIDTH 556 0
DWIDTH 10 0
BBX 7 14 2 0
BITMAP
18
18
18
30
3C
38
30
60
E0
60
60
C0
FE
FE
ENDCHAR
STARTCHAR lslash
ENCODING 322
SWIDTH 222 0
DWIDTH 4 0
BBX 5 14 1 0
BITMAP
18
18
18
30
30
38
70
E0
60
60
60
C0
C0
C0
ENDCHAR
STARTCHAR Nacute
ENCODING 323
SWIDTH 722 0
DWIDTH 14 0
BBX 13 18 2 0
BITMAP
00C0
0180
0300
0000
1818
1818
1C18
3C30
3630
3630
3630
6660
6360
6360
6360
C1C0
C1C0
C0C0
ENDCHAR
STARTCHAR nacute
ENCODING 324
SWIDTH 556 0
DWIDTH 11 0
BBX 10 14 1 0
BITMAP
0300
0600
0C00
0000
3380
37C0
38C0
70C0
6180
6180
6180
C300
C300
C300
ENDCHAR
STARTCHAR Ncommaaccent
ENCODING 325
SWIDTH 722 0
DWIDTH 14 0
BBX 13 20 2 -6
BITMAP
1818
1818
1C18
3C30
3630
3630
3630
6660
6360
6360
6360
C1C0
C1C0
C0C0
0000
0600
0600
0200
0400
0800
ENDCHAR
STARTCHAR ncommaaccent
ENCODING 326
SWIDTH 556 0
DWIDTH 11 0
BBX 10 16 1 -6
BITMAP
3380
37C0
38C0
70C0
6180
6180
6180
C300
C300
C300
0000
0C00
0C00
0400
0800
1000
ENDCHAR
STARTCHAR Ncaron
ENCODING 327
SWIDTH 722 0
DWIDTH 14 0
BBX 13 18 2 0
BITMAP
0CC0
0780
0300
0000
1818
1818
1C18
3C30
3630
3630
3630
6660
6360
6360
6360
C1C0
C1C0
C0C0
ENDCHAR
STARTCHAR ncaron
ENCODING 328
SWIDTH 556 0
DWIDTH 11 0
BBX 10 14 1 0
BITMAP
1980
0F00
0600
0000
3380
37C0
38C0
70C0
6180
6180
6180
C300
C300
C300
ENDCHAR
STARTCHAR napostrophe
ENCODING 329
SWIDTH 767 0
DWIDTH 15 0
BBX 12 14 3 0
BITMAP
6000
6000
2000
C000
0CE0
0DF0
0E30
1C30
1860
1860
1860
30C0
30C0
30C0
ENDCHAR
STARTCHAR Eng
ENCODING 330
SWIDTH 722 0
DWIDTH 14 0
BBX 13 18 2 -4
BITMAP
1818
1818
1C18
3C30
3630
3630
3630
6660
6360
6360
6360
C1C0
C1C0
C0C0
00C0
0180
0780
0700
ENDCHAR
STARTCHAR eng
ENCODING 331
SWIDTH 556 0
DWIDTH 11 0
BBX 10 14 1 -4
BITMAP
3380
37C0
38C0
70C0
6180
6180
6180
C300
C300
C300
0300
0600
1E00
1C00
ENDCHAR
STARTCHAR Omacron
ENCODING 332
SWIDTH 778 0
DWIDTH 15 0
BBX 14 16 2 0
BITMAP
07C0
0000
03E0
0FF8
1C18
301C
700C
600C
600C
C018
C018
C038
E030
60E0
7FC0
1F00
ENDCHAR
STARTCHAR omacron
ENCODING 333
SWIDTH 556 0
DWIDTH 10 0
BBX 9 12 1 0
BITMAP
1F00
0000
0F00
3F80
7180
6180
C180
C180
C300
C700
FE00
7800
ENDCHAR
STARTCHAR Obreve
ENCODING 334
SWIDTH 778 0
DWIDTH 15 0
BBX 14 18 2 0
BITMAP
0440
06C0
0380
0000
03E0
0FF8
1C18
301C
700C
600C
600C
C018
C018
C038
E030
60E0
7FC0
1F00
ENDCHAR
STARTCHAR obreve
ENCODING 335
SWIDTH 556 0
DWIDTH 10 0
BBX 9 14 1 0
BITMAP
1100
1B00
0E00
0000
0F00
3F80
7180
6180
C180
C180
C300
C700
FE00
7800
ENDCHAR
STARTCHAR Ohungarumlaut
ENCODING 336
SWIDTH 778 0
DWIDTH 15 0
BBX 14 18 2 0
BITMAP
01B0
0360
06C0
0000
03E0
0FF8
1C18
301C
700C
600C
600C
C018
C018
C038
E030
60E0
7FC0
1F00
ENDCHAR
STARTCHAR ohungarumlaut
ENCODING 337
SWIDTH 556 0
DWIDTH 10 0
BBX 9 14 1 0
BITMAP
0D80
1B00
3600
0000
0F00
3F80
7180
6180
C180
C180
C300
C700
FE00
7800
ENDCHAR
STARTCHAR OE
ENCODING 338
SWIDTH 1000 0
DWIDTH 19 0
BBX 19 14 2 0
BITMAP
03BFE0
0FFFE0
1C7000
306000
706000
606000
607F80
C0FF80
C0C000
C0C000
E0C000
638000
7FFF00
1EFF00
ENDCHAR
STARTCHAR oe
ENCODING 339
SWIDTH 944 0
DWIDTH 16 0
BBX 15 10 1 0
BITMAP
0F3C
3FFE
71C6
6186
C1FC
C180
C380
C78C
FFFC
78F0
ENDCHAR
STARTCHAR Racute
ENCODING 340
SWIDTH 722 0
DWIDTH 14 0
BBX 12 18 2 0
BITMAP
00C0
0180
0300
0000
1FE0
1FF0
1830
3030
3030
3070
3FE0
7FC0
60E0
6060
6060
C0C0
C0C0
C0C0
ENDCHAR
STARTCHAR racute
ENCODING 341
SWIDTH 333 0
DWIDTH 7 0
BBX 7 14 1 0
BITMAP
06
0C
18
00
36
3E
38
60
60
60
60
C0
C0
C0
ENDCHAR
STARTCHAR Rcommaaccent
ENCODING 342
SWIDTH 722 0
DWIDTH 14 0
BBX 12 20 2 -6
BITMAP
1FE0
1FF0
1830
3030
3030
3070
3FE0
7FC0
60E0
6060
6060
C0C0
C0C0
C0C0
0000
0600
0600
0200
0400
0800
ENDCHAR
STARTCHAR rcommaaccent
ENCODING 343
SWIDTH 333 0
DWIDTH 7 0
BBX 7 16 1 -6
BITMAP
36
3E
38
60
60
60
60
C0
C0
C0
00
60
60
20
40
80
ENDCHAR
STARTCHAR Rcaron
ENCODING 344
SWIDTH 722 0
DWIDTH 14 0
BBX 12 18 2 0
BITMAP
0CC0
0780
0300
0000
1FE0
1FF0
1830
3030
3030
3070
3FE0
7FC0
60E0
6060
6060
C0C0
C0C0
C0C0
ENDCHAR
STARTCHAR rcaron
ENCODING 345
SWIDTH 333 0
DWIDTH 7 0
BBX 7 14 1 0
BITMAP
66
3C
18
00
36
3E
38
60
60
60
60
C0
C0
C0
ENDCHAR
STARTCHAR Sacute
ENCODING 346
SWIDTH 667 0
DWIDTH 12 0
BBX 10 18 2 0
BITMAP
0300
0600
0C00
0000
0F80
3FC0
70C0
60C0
6000
7C00
3F00
0780
01C0
00C0
C0C0
C180
FF80
7E00
ENDCHAR
STARTCHAR sacute
ENCODING 347
SWIDTH 500 0
DWIDTH 9 0
BBX 9 14 1 0
BITMAP
0300
0600
0C00
0000
0F00
3F80
7180
6000
3C00
1F00
0300
C300
FE00
7C00
ENDCHAR
STARTCHAR Scircumflex
ENCODING 348
SWIDTH 667 0
DWIDTH 12 0
BBX 10 18 2 0
BITMAP
0600
0F00
1980
0000
0F80
3FC0
70C0
60C0
6000
7C00
3F00
0780
01C0
00C0
C0C0
C180
FF80
7E00
ENDCHAR
STARTCHAR scircumflex
ENCODING 349
SWIDTH 500 0
DWIDTH 9 0
BBX 9 14 1 0
BITMAP
0C00
1E00
3300
0000
0F00
3F80
7180
6000
3C00
1F00
0300
C300
FE00
7C00
ENDCHAR
STARTCHAR Scedilla
ENCODING 350
SWIDTH 667 0
DWIDTH 12 0
BBX 10 19 2 -5
BITMAP
0F80
3FC0
70C0
60C0
6000
7C00
3F00
0780
01C0
00C0
C0C0
C180
FF80
7E00
0C00
0600
0600
3600
1C00
ENDCHAR
STARTCHAR scedilla
ENCODING 351
SWIDTH 500 0
DWIDTH 9 0
BBX 9 15 1 -5
BITMAP
0F00
3F80
7180
6000
3C00
1F00
0300
C300
FE00
7C00
1800
0C00
0C00
6C00
3800
ENDCHAR
STARTCHAR Scaron
ENCODING 352
SWIDTH 667 0
DWIDTH 12 0
BBX 10 17 2 0
BITMAP
0D80
0700
0000
0F80
3FC0
70C0
60C0
6000
7C00
3F00
0780
01C0
00C0
C0C0
C180
FF80
7E00
ENDCHAR
STARTCHAR scaron
ENCODING 353
SWIDTH 500 0
DWIDTH 9 0
BBX 9 14 1 0
BITMAP
1980
0F00
0600
0000
0F00
3F80
7180
6000
3C00
1F00
0300
C300
FE00
7C00
ENDCHAR
STARTCHAR Tcommaaccent
ENCODING 354
SWIDTH 611 0
DWIDTH 11 0
BBX 10 19 3 -5
BITMAP
FFC0
FFC0
0C00
1800
1800
1800
1800
3000
3000
3000
3000
6000
6000
7000
3000
1800
1800
D800
7000
ENDCHAR
STARTCHAR tcommaaccent
ENCODING 355
SWIDTH 278 0
DWIDTH 5 0
BBX 7 18 0 -5
BITMAP
0C
0C
18
7E
7E
18
30
30
30
60
60
70
30
30
18
18
D8
70
ENDCHAR
STARTCHAR Tcaron
ENCODING 356
SWIDTH 611 0
DWIDTH 11 0
BBX 10 18 3 0
BITMAP
3300
1E00
0C00
0000
FFC0
FFC0
0C00
1800
1800
1800
1800
3000
3000
3000
3000
6000
6000
6000
ENDCHAR
STARTCHAR tcaron
ENCODING 357
SWIDTH 486 0
DWIDTH 9 0
BBX 10 14 1 0
BITMAP
00C0
18C0
1840
3180
FC00
FC00
3000
6000
6000
6000
C000
C000
E000
6000
ENDCHAR
STARTCHAR Tbar
ENCODING 358
SWIDTH 611 0
DWIDTH 11 0
BBX 10 14 3 0
BITMAP
FFC0
FFC0
0C00
1800
1800
1800
1F00
3F00
3000
3000
3000
6000
6000
6000
ENDCHAR
STARTCHAR tbar
ENCODING 359
SWIDTH 278 0
DWIDTH 5 0
BBX 6 13 1 0
BITMAP
18
18
30
FC
FC
30
60
7C
7C
C0
C0
E0
60
ENDCHAR
STARTCHAR Utilde
ENCODING 360
SWIDTH 722 0
DWIDTH 14 0
BBX 12 18 3 0
BITMAP
0640
0F80
1300
0000
3030
3030
3030
6060
6060
6060
6060
C0C0
C0C0
C0C0
C1C0
E380
7F00
3E00
ENDCHAR
STARTCHAR utilde
ENCODING 361
SWIDTH 556 0
DWIDTH 10 0
BBX 10 14 1 0
BITMAP
0640
0F80
1300
0000
30C0
30C0
30C0
6180
6180
6180
C380
C700
FB00
7300
ENDCHAR
STARTCHAR Umacron
ENCODING 362
SWIDTH 722 0
DWIDTH 14 0
BBX 12 16 3 0
BITMAP
0F80
0000
3030
3030
3030
6060
6060
6060
6060
C0C0
C0C0
C0C0
C1C0
E380
7F00
3E00
ENDCHAR
STARTCHAR umacron
ENCODING 363
SWIDTH 556 0
DWIDTH 10 0
BBX 10 12 1 0
BITMAP
1F00
0000
30C0
30C0
30C0
6180
6180
6180
C380
C700
FB00
7300
ENDCHAR
STARTCHAR Ubreve
ENCODING 364
SWIDTH 722 0
DWIDTH 14 0
BBX 12 18 3 0
BITMAP
0880
0D80
0700
0000
3030
3030
3030
6060
6060
6060
6060
C0C0
C0C0
C0C0
C1C0
E380
7F00
3E00
ENDCHAR
STARTCHAR ubreve
ENCODING 365
SWIDTH 556 0
DWIDTH 10 0
BBX 10 14 1 0
BITMAP
1100
1B00
0E00
0000
30C0
30C0
30C0
6180
6180
6180
C380
C700
FB00
7300
ENDCHAR
STARTCHAR Uring
ENCODING 366
SWIDTH 722 0
DWIDTH 14 0
BBX 12 19 3 0
BITMAP
0380
0480
0480
0700
0000
3030
3030
3030
6060
6060
6060
6060
C0C0
C0C0
C0C0
C1C0
E380
7F00
3E00
ENDCHAR
STARTCHAR uring
ENCODING 367
SWIDTH 556 0
DWIDTH 10 0
BBX 10 15 1 0
BITMAP
0700
0900
0900
0E00
0000
30C0
30C0
30C0
6180
6180
6180
C380
C700
FB00
7300
ENDCHAR
STARTCHAR Uhungarumlaut
ENCODING 368
SWIDTH 722 0
DWIDTH 14 0
BBX 12 18 3 0
BITMAP
0360
06C0
0D80
0000
3030
3030
3030
6060
6060
6060
6060
C0C0
C0C0
C0C0
C1C0
E380
7F00
3E00
ENDCHAR
STARTCHAR uhungarumlaut
ENCODING 369
SWIDTH 556 0
DWIDTH 10 0
BBX 10 14 1 0
BITMAP
06C0
0D80
1B00
0000
30C0
30C0
30C0
6180
6180
6180
C380
C700
FB00
7300
ENDCHAR
STARTCHAR Uogonek
ENCODING 370
SWIDTH 722 0
DWIDTH 14 0
BBX 12 19 3 -5
BITMAP
3030
3030
3030
6060
6060
6060
6060
C0C0
C0C0
C0C0
C1C0
E380
7F00
3E00
0600
1C00
3000
3000
1C00
ENDCHAR
STARTCHAR uogonek
ENCODING 371
SWIDTH 556 0
DWIDTH 10 0
BBX 10 15 1 -5
BITMAP
30C0
30C0
30C0
6180
6180
6180
C380
C700
FB00
7300
0C00
3800
6000
6000
3800
ENDCHAR
STARTCHAR Wcircumflex
ENCODING 372
SWIDTH 944 0
DWIDTH 17 0
BBX 16 18 3 0
BITMAP
0180
03C0
0660
0000
C183
C183
C386
C386
C6CC
C6CC
CCCC
CCD8
D8D8
7878
7070
7070
6060
6060
ENDCHAR
STARTCHAR wcircumflex
ENCODING 373
SWIDTH 722 0
DWIDTH 13 0
BBX 12 14 2 0
BITMAP
0600
0F00
1980
0000
C630
C630
C660
CE60
CE60
DEC0
D6C0
7380
6300
6300
ENDCHAR
STARTCHAR Ycircumflex
ENCODING 374
SWIDTH 667 0
DWIDTH 12 0
BBX 10 18 4 0
BITMAP
0C00
1E00
3300
0000
C0C0
C0C0
C180
C380
C300
6600
6E00
6C00
7800
3800
3000
6000
6000
6000
ENDCHAR
STARTCHAR ycircumflex
ENCODING 375
SWIDTH 500 0
DWIDTH 10 0
BBX 10 18 0 -4
BITMAP
0600
0F00
1980
0000
30C0
30C0
30C0
3180
3180
3300
1B00
1E00
0C00
1800
1800
3000
E000
C000
ENDCHAR
STARTCHAR Ydieresis
ENCODING 376
SWIDTH 667 0
DWIDTH 12 0
BBX 10 17 4 0
BITMAP
3300
3300
0000
C0C0
C0C0
C180
C380
C300
6600
6E00
6C00
7800
3800
3000
6000
6000
6000
ENDCHAR
STARTCHAR Zacute
ENCODING 377
SWIDTH 611 0
DWIDTH 11 0
BBX 13 18 0 0
BITMAP
0060
00C0
0180
0000
0FF8
0FF8
0030
0060
00C0
0180
0300
0600
0C00
1800
3000
6000
FFC0
FFC0
ENDCHAR
STARTCHAR zacute
ENCODING 378
SWIDTH 500 0
DWIDTH 9 0
BBX 9 14 1 0
BITMAP
0300
0600
0C00
0000
3F80
3F80
0300
0600
0C00
1800
3000
6000
FE00
FE00
ENDCHAR
STARTCHAR Zdotaccent
ENCODING 379
SWIDTH 611 0
DWIDTH 11 0
BBX 13 17 0 0
BITMAP
0180
0180
0000
0FF8
0FF8
0030
0060
00C0
0180
0300
0600
0C00
1800
3000
6000
FFC0
FFC0
ENDCHAR
STARTCHAR zdotaccent
ENCODING 380
SWIDTH 500 0
DWIDTH 9 0
BBX 9 13 1 0
BITMAP
0C00
0C00
0000
3F80
3F80
0300
0600
0C00
1800
3000
6000
FE00
FE00
ENDCHAR
STARTCHAR Zcaron
ENCODING 381
SWIDTH 611 0
DWIDTH 11 0
BBX 13 17 0 0
BITMAP
0360
01C0
0000
0FF8
0FF8
0030
0060
00C0
0180
0300
0600
0C00
1800
3000
6000
FFC0
FFC0
ENDCHAR
STARTCHAR zcaron
ENCODING 382
SWIDTH 500 0
DWIDTH 9 0
BBX 9 14 1 0
BITMAP
1980
0F00
0600
0000
3F80
3F80
0300
0600
0C00
1800
3000
6000
FE00
FE00
ENDCHAR
STARTCHAR uni0186
ENCODING 390
SWIDTH 722 0
DWIDTH 13 0
BBX 12 14 2 0
BITMAP
0780
1FE0
3860
7070
6030
0030
0030
0030
0070
0060
C0C0
E3C0
7F00
3C00
ENDCHAR
STARTCHAR uni0189
ENCODING 393
SWIDTH 722 0
DWIDTH 13 0
BBX 13 14 1 0
BITMAP
1FE0
1FF0
1830
3018
3018
3018
FC18
FC38
6030
6070
60E0
C1C0
FF80
FF00
ENDCHAR
STARTCHAR uni018E
ENCODING 398
SWIDTH 667 0
DWIDTH 12 0
BBX 12 14 2 0
BITMAP
1FF0
1FF0
0030
0060
0060
0060
3FE0
3FC0
00C0
00C0
00C0
0180
FF80
FF80
ENDCHAR
STARTCHAR florin
ENCODING 402
SWIDTH 556 0
DWIDTH 9 0
BBX 11 17 0 -4
BITMAP
01E0
03E0
0600
0600
1F80
1F80
0C00
0C00
0C00
0C00
1800
1800
1800
1800
3000
F000
E000
ENDCHAR
STARTCHAR uni0197
ENCODING 407
SWIDTH 278 0
DWIDTH 6 0
BBX 5 14 2 0
BITMAP
18
18
18
30
30
30
F8
F8
60
60
60
C0
C0
C0
ENDCHAR
STARTCHAR uni019A
ENCODING 410
SWIDTH 222 0
DWIDTH 4 0
BBX 5 14 1 0
BITMAP
18
18
18
30
30
30
F8
F8
60
60
60
C0
C0
C0
ENDCHAR
STARTCHAR uni019D
ENCODING 413
SWIDTH 722 0
DWIDTH 14 0
BBX 16 18 -1 -4
BITMAP
0303
0303
0383
0786
06C6
06C6
06C6
0CCC
0C6C
0C6C
0C6C
1838
1838
1818
1800
3000
F000
E000
ENDCHAR
STARTCHAR uni019F
ENCODING 415
SWIDTH 778 0
DWIDTH 15 0
BBX 14 14 2 0
BITMAP
03E0
0FF8
1C18
301C
700C
600C
FFFC
FFFC
C018
C038
E030
60E0
7FC0
1F00
ENDCHAR
STARTCHAR Ohorn
ENCODING 416
SWIDTH 778 0
DWIDTH 15 0
BBX 16 14 2 0
BITMAP
03E3
0FFB
1C19
301E
700C
600C
600C
C018
C018
C038
E030
60E0
7FC0
1F00
ENDCHAR
STARTCHAR ohorn
ENCODING 417
SWIDTH 556 0
DWIDTH 10 0
BBX 11 10 1 0
BITMAP
0F60
3FE0
71A0
61C0
C180
C180
C300
C700
FE00
7800
ENDCHAR
STARTCHAR Uhorn
ENCODING 431
SWIDTH 722 0
DWIDTH 14 0
BBX 14 14 3 0
BITMAP
303C
303C
3034
6078
6060
6060
6060
C0C0
C0C0
C0C0
C1C0
E380
7F00
3E00
ENDCHAR
STARTCHAR uhorn
ENCODING 432
SWIDTH 556 0
DWIDTH 10 0
BBX 12 10 1 0
BITMAP
30F0
30F0
30D0
61E0
6180
6180
C380
C700
FB00
7300
ENDCHAR
STARTCHAR uni01B5
ENCODING 437
SWIDTH 611 0
DWIDTH 11 0
BBX 13 14 0 0
BITMAP
0FF8
0FF8
0030
0060
00C0
0180
0F80
0F80
0C00
1800
3000
6000
FFC0
FFC0
ENDCHAR
STARTCHAR uni01B6
ENCODING 438
SWIDTH 500 0
DWIDTH 9 0
BBX 9 10 1 0
BITMAP
3F80
3F80
0300
0600
3E00
3E00
3000
6000
FE00
FE00
ENDCHAR
STARTCHAR uni01BB
ENCODING 443
SWIDTH 556 0
DWIDTH 10 0
BBX 10 13 1 0
BITMAP
0F80
1FC0
38C0
30C0
01C0
FFC0
FFC0
1C00
3800
6000
C000
FF00
FF00
ENDCHAR
STARTCHAR uni01BC
ENCODING 444
SWIDTH 556 0
DWIDTH 10 0
BBX 10 13 1 0
BITMAP
0FC0
1FC0
1800
3000
3E00
7F00
6380
0180
0180
0180
C300
FF00
7C00
ENDCHAR
STARTCHAR uni01C0
ENCODING 448
SWIDTH 260 0
DWIDTH 4 0
BBX 6 18 0 -4
BITMAP
0C
0C
0C
18
18
18
18
30
30
30
30
60
60
60
60
C0
C0
C0
ENDCHAR
STARTCHAR uni01C2
ENCODING 450
SWIDTH 584 0
DWIDTH 11 0
BBX 8 18 2 -4
BITMAP
06
06
06
0C
0C
0C
0C
7F
7F
18
FE
FE
30
30
30
60
60
60
ENDCHAR
STARTCHAR uni01C3
ENCODING 451
SWIDTH 278 0
DWIDTH 5 0
BBX 5 14 2 0
BITMAP
18
18
18
30
30
30
30
60
60
60
00
00
C0
C0
ENDCHAR
STARTCHAR uni01CD
ENCODING 461
SWIDTH 667 0
DWIDTH 12 0
BBX 11 18 0 0
BITMAP
0CC0
0780
0300
0000
00C0
01C0
03C0
0360
0660
0660
0C60
1C60
1860
3FE0
7FE0
6060
C060
C060
ENDCHAR
STARTCHAR uni01CE
ENCODING 462
SWIDTH 556 0
DWIDTH 10 0
BBX 9 14 1 0
BITMAP
3300
1E00
0C00
0000
0F00
3F80
3180
0780
3F00
7300
E300
C600
FE00
7600
ENDCHAR
STARTCHAR uni01CF
ENCODING 463
SWIDTH 278 0
DWIDTH 6 0
BBX 6 18 2 0
BITMAP
CC
78
30
00
18
18
18
30
30
30
30
60
60
60
60
C0
C0
C0
ENDCHAR
STARTCHAR uni01D0
ENCODING 464
SWIDTH 278 0
DWIDTH 4 0
BBX 6 14 1 0
BITMAP
CC
78
30
00
30
30
30
60
60
60
60
C0
C0
C0
ENDCHAR
STARTCHAR uni01D1
ENCODING 465
SWIDTH 778 0
DWIDTH 15 0
BBX 14 18 2 0
BITMAP
0660
03C0
0180
0000
03E0
0FF8
1C18
301C
700C
600C
600C
C018
C018
C038
E030
60E0
7FC0
1F00
ENDCHAR
STARTCHAR uni01D2
ENCODING 466
SWIDTH 556 0
DWIDTH 10 0
BBX 9 14 1 0
BITMAP
3300
1E00
0C00
0000
0F00
3F80
7180
6180
C180
C180
C300
C700
FE00
7800
ENDCHAR
STARTCHAR uni01D3
ENCODING 467
SWIDTH 722 0
DWIDTH 14 0
BBX 12 18 3 0
BITMAP
0CC0
0780
0300
0000
3030
3030
3030
6060
6060
6060
6060
C0C0
C0C0
C0C0
C1C0
E380
7F00
3E00
ENDCHAR
STARTCHAR uni01D4
ENCODING 468
SWIDTH 556 0
DWIDTH 10 0
BBX 10 14 1 0
BITMAP
1980
0F00
0600
0000
30C0
30C0
30C0
6180
6180
6180
C380
C700
FB00
7300
ENDCHAR
STARTCHAR uni01D5
ENCODING 469
SWIDTH 722 0
DWIDTH 14 0
BBX 12 19 3 0
BITMAP
0F80
0000
0CC0
0CC0
0000
3030
3030
3030
6060
6060
6060
6060
C0C0
C0C0
C0C0
C1C0
E380
7F00
3E00
ENDCHAR
STARTCHAR uni01D6
ENCODING 470
SWIDTH 556 0
DWIDTH 10 0
BBX 10 15 1 0
BITMAP
1F00
0000
0D80
0D80
0000
30C0
30C0
30C0
6180
6180
6180
C380
C700
FB00
7300
ENDCHAR
STARTCHAR uni01D7
ENCODING 471
SWIDTH 722 0
DWIDTH 14 0
BBX 12 21 3 0
BITMAP
0180
0300
0600
0000
0CC0
0CC0
0000
3030
3030
3030
6060
6060
6060
6060
C0C0
C0C0
C0C0
C1C0
E380
7F00
3E00
ENDCHAR
STARTCHAR uni01D8
ENCODING 472
SWIDTH 556 0
DWIDTH 10 0
BBX 10 17 1 0
BITMAP
0180
0300
0600
0000
0D80
0D80
0000
30C0
30C0
30C0
6180
6180
6180
C380
C700
FB00
7300
ENDCHAR
STARTCHAR uni01D9
ENCODING 473
SWIDTH 722 0
DWIDTH 14 0
BBX 12 21 3 0
BITMAP
0CC0
0780
0300
0000
0CC0
0CC0
0000
3030
3030
3030
6060
6060
6060
6060
C0C0
C0C0
C0C0
C1C0
E380
7F00
3E00
ENDCHAR
STARTCHAR uni01DA
ENCODING 474
SWIDTH 556 0
DWIDTH 10 0
BBX 10 17 1 0
BITMAP
1980
0F00
0600
0000
0D80
0D80
0000
30C0
30C0
30C0
6180
6180
6180
C380
C700
FB00
7300
ENDCHAR
STARTCHAR uni01DB
ENCODING 475
SWIDTH 722 0
DWIDTH 14 0
BBX 12 21 3 0
BITMAP
0C00
0600
0300
0000
0CC0
0CC0
0000
3030
3030
3030
6060
6060
6060
6060
C0C0
C0C0
C0C0
C1C0
E380
7F00
3E00
ENDCHAR
STARTCHAR uni01DC
ENCODING 476
SWIDTH 556 0
DWIDTH 10 0
BBX 10 17 1 0
BITMAP
1800
0C00
0600
0000
0D80
0D80
0000
30C0
30C0
30C0
6180
6180
6180
C380
C700
FB00
7300
ENDCHAR
STARTCHAR uni01DD
ENCODING 477
SWIDTH 556 0
DWIDTH 9 0
BBX 9 10 1 0
BITMAP
0F00
3F80
3180
0180
0180
7F80
C300
C700
FE00
7800
ENDCHAR
STARTCHAR uni01DE
ENCODING 478
SWIDTH 667 0
DWIDTH 12 0
BBX 12 19 0 0
BITMAP
07C0
0000
0330
0330
0000
01C0
01C0
03C0
0360
0660
0660
0C60
1C60
1860
3FE0
7FE0
6060
C060
C060
ENDCHAR
STARTCHAR uni01DF
ENCODING 479
SWIDTH 556 0
DWIDTH 10 0
BBX 9 15 1 0
BITMAP
1F00
0000
0D80
0D80
0000
0F00
3F80
3180
0780
3F00
7300
E300
C600
FE00
7600
ENDCHAR
STARTCHAR uni01E0
ENCODING 480
SWIDTH 667 0
DWIDTH 12 0
BBX 11 19 0 0
BITMAP
07C0
0000
0300
0300
0000
00C0
01C0
03C0
0360
0660
0660
0C60
1C60
1860
3FE0
7FE0
6060
C060
C060
ENDCHAR
STARTCHAR uni01E1
ENCODING 481
SWIDTH 556 0
DWIDTH 10 0
BBX 9 15 1 0
BITMAP
1F00
0000
0C00
0C00
0000
0F00
3F80
3180
0780
3F00
7300
E300
C600
FE00
7600
ENDCHAR
STARTCHAR uni01E2
ENCODING 482
SWIDTH 1000 0
DWIDTH 17 0
BBX 19 16 0 0
BITMAP
007C00
000000
00FFE0
01FFE0
01B000
033000
066000
066000
0C7F80
1CFF80
18C000
3FC000
7FC000
618000
C1FF00
C1FF00
ENDCHAR
STARTCHAR uni01E3
ENCODING 483
SWIDTH 889 0
DWIDTH 15 0
BBX 14 12 1 0
BITMAP
07C0
0000
0F78
3FFC
318C
078C
3FF8
7300
E300
C718
FFF8
77E0
ENDCHAR
STARTCHAR uni01E4
ENCODING 484
SWIDTH 778 0
DWIDTH 14 0
BBX 13 14 2 0
BITMAP
03E0
0FF0
1C30
3030
7000
6000
6000
C3F0
C3F0
C060
E0F8
60F8
7FC0
1EC0
ENDCHAR
STARTCHAR uni01E5
ENCODING 485
SWIDTH 556 0
DWIDTH 10 0
BBX 11 14 0 -4
BITMAP
0760
1FE0
3860
30C0
60C0
60C0
61C0
6380
7F80
FFE0
FFE0
C700
FE00
3800
ENDCHAR
STARTCHAR Gcaron
ENCODING 486
SWIDTH 778 0
DWIDTH 14 0
BBX 12 18 2 0
BITMAP
0CC0
0780
0300
0000
03E0
0FF0
1C30
3030
7000
6000
6000
C3F0
C3F0
C060
E060
60C0
7FC0
1EC0
ENDCHAR
STARTCHAR gcaron
ENCODING 487
SWIDTH 556 0
DWIDTH 10 0
BBX 11 18 0 -4
BITMAP
1980
0F00
0600
0000
0760
1FE0
3860
30C0
60C0
60C0
61C0
6380
7F80
3D80
0300
C700
FE00
3800
ENDCHAR
STARTCHAR uni01E8
ENCODING 488
SWIDTH 667 0
DWIDTH 13 0
BBX 13 18 1 0
BITMAP
0CC0
0780
0300
0000
1818
1830
18E0
31C0
3380
3700
3E00
7E00
7700
6380
61C0
C0E0
C070
C030
ENDCHAR
STARTCHAR uni01E9
ENCODING 489
SWIDTH 500 0
DWIDTH 9 0
BBX 9 18 1 0
BITMAP
6600
3C00
1800
0000
1800
1800
1800
3000
3180
3300
3600
3C00
7C00
6600
6600
C600
C300
C300
ENDCHAR
STARTCHAR uni01EA
ENCODING 490
SWIDTH 778 0
DWIDTH 15 0
BBX 14 19 2 -5
BITMAP
03E0
0FF8
1C18
301C
700C
600C
600C
C018
C018
C038
E030
60E0
7FC0
1F00
0300
0E00
1800
1800
0E00
ENDCHAR
STARTCHAR uni01EB
ENCODING 491
SWIDTH 556 0
DWIDTH 10 0
BBX 9 15 1 -5
BITMAP
0F00
3F80
7180
6180
C180
C180
C300
C700
FE00
7800
0C00
3800
6000
6000
3800
ENDCHAR
STARTCHAR uni01EC
ENCODING 492
SWIDTH 778 0
DWIDTH 15 0
BBX 14 21 2 -5
BITMAP
07C0
0000
03E0
0FF8
1C18
301C
700C
600C
600C
C018
C018
C038
E030
60E0
7FC0
1F00
0300
0E00
1800
1800
0E00
ENDCHAR
STARTCHAR uni01ED
ENCODING 493
SWIDTH 556 0
DWIDTH 10 0
BBX 9 17 1 -5
BITMAP
1F00
0000
0F00
3F80
7180
6180
C180
C180
C300
C700
FE00
7800
0C00
3800
6000
6000
3800
ENDCHAR
STARTCHAR uni01F0
ENCODING 496
SWIDTH 222 0
DWIDTH 4 0
BBX 8 18 -2 -4
BITMAP
33
1E
0C
00
06
06
06
0C
0C
0C
0C
18
18
18
18
30
F0
E0
ENDCHAR
STARTCHAR uni01F4
ENCODING 500
SWIDTH 778 0
DWIDTH 14 0
BBX 12 18 2 0
BITMAP
00C0
0180
0300
0000
03E0
0FF0
1C30
3030
7000
6000
6000
C3F0
C3F0
C060
E060
60C0
7FC0
1EC0
ENDCHAR
STARTCHAR uni01F5
ENCODING 501
SWIDTH 556 0
DWIDTH 10 0
BBX 11 18 0 -4
BITMAP
0180
0300
0600
0000
0760
1FE0
3860
30C0
60C0
60C0
61C0
6380
7F80
3D80
0300
C700
FE00
3800
ENDCHAR
STARTCHAR uni01F8
ENCODING 504
SWIDTH 722 0
DWIDTH 14 0
BBX 13 18 2 0
BITMAP
0C00
0600
0300
0000
1818
1818
1C18
3C30
3630
3630
3630
6660
6360
6360
6360
C1C0
C1C0
C0C0
ENDCHAR
STARTCHAR uni01F9
ENCODING 505
SWIDTH 556 0
DWIDTH 11 0
BBX 10 14 1 0
BITMAP
1800
0C00
0600
0000
3380
37C0
38C0
70C0
6180
6180
6180
C300
C300
C300
ENDCHAR
STARTCHAR Aringacute
ENCODING 506
SWIDTH 667 0
DWIDTH 12 0
BBX 11 21 0 0
BITMAP
00C0
0180
0300
0000
00E0
0120
0120
01C0
01C0
03C0
0360
0660
0660
0C60
1C60
1860
3FE0
7FE0
6060
C060
C060
ENDCHAR
STARTCHAR aringacute
ENCODING 507
SWIDTH 556 0
DWIDTH 10 0
BBX 9 18 1 0
BITMAP
0300
0600
0C00
0000
0700
0900
0900
0E00
0F00
3F80
3180
0780
3F00
7300
E300
C600
FE00
7600
ENDCHAR
STARTCHAR AEacute
ENCODING 508
SWIDTH 1000 0
DWIDTH 17 0
BBX 19 18 0 0
BITMAP
000C00
001800
003000
000000
00FFE0
01FFE0
01B000
033000
066000
066000
0C7F80
1CFF80
18C000
3FC000
7FC000
618000
C1FF00
C1FF00
ENDCHAR
STARTCHAR aeacute
ENCODING 509
SWIDTH 889 0
DWIDTH 15 0
BBX 14 14 1 0
BITMAP
00C0
0180
0300
0000
0F78
3FFC
318C
078C
3FF8
7300
E300
C718
FFF8
77E0
ENDCHAR
STARTCHAR Oslashacute
ENCODING 510
SWIDTH 778 0
DWIDTH 15 0
BBX 15 18 2 0
BITMAP
0060
00C0
0180
0000
03E6
0FFC
1C18
303C
706C
60CC
618C
C318
C618
CC38
D830
F0E0
7FC0
DF00
ENDCHAR
STARTCHAR oslashacute
ENCODING 511
SWIDTH 611 0
DWIDTH 10 0
BBX 13 14 -1 0
BITMAP
00C0
0180
0300
0000
03D8
0FF0
1C60
19E0
3360
3660
3CC0
31C0
7F80
DE00
ENDCHAR
STARTCHAR Scommaaccent
ENCODING 536
SWIDTH 667 0
DWIDTH 12 0
BBX 10 20 2 -6
BITMAP
0F80
3FC0
70C0
60C0
6000
7C00
3F00
0780
01C0
00C0
C0C0
C180
FF80
7E00
0000
0C00
0C00
0400
0800
1000
ENDCHAR
STARTCHAR scommaaccent
ENCODING 537
SWIDTH 500 0
DWIDTH 9 0
BBX 9 16 1 -6
BITMAP
0F00
3F80
7180
6000
3C00
1F00
0300
C300
FE00
7C00
0000
1800
1800
0800
1000
2000
ENDCHAR
STARTCHAR Tcommaaccent
ENCODING 538
SWIDTH 611 0
DWIDTH 11 0
BBX 10 20 3 -6
BITMAP
FFC0
FFC0
0C00
1800
1800
1800
1800
3000
3000
3000
3000
6000
6000
6000
0000
3000
3000
1000
2000
4000
ENDCHAR
STARTCHAR tcommaaccent
ENCODING 539
SWIDTH 278 0
DWIDTH 5 0
BBX 6 19 1 -6
BITMAP
18
18
30
FC
FC
30
60
60
60
C0
C0
E0
60
00
60
60
20
40
80
ENDCHAR
STARTCHAR uni021E
ENCODING 542
SWIDTH 722 0
DWIDTH 14 0
BBX 13 18 2 0
BITMAP
0CC0
0780
0300
0000
1818
1818
1818
3030
3030
3030
3FF0
7FE0
6060
6060
6060
C0C0
C0C0
C0C0
ENDCHAR
STARTCHAR uni021F
ENCODING 543
SWIDTH 556 0
DWIDTH 11 0
BBX 10 18 1 0
BITMAP
6600
3C00
1800
0000
1800
1800
1800
3000
3380
3FC0
38C0
70C0
6180
6180
6180
C300
C300
C300
ENDCHAR
STARTCHAR uni0226
ENCODING 550
SWIDTH 667 0
DWIDTH 12 0
BBX 11 17 0 0
BITMAP
0300
0300
0000
00C0
01C0
03C0
0360
0660
0660
0C60
1C60
1860
3FE0
7FE0
6060
C060
C060
ENDCHAR
STARTCHAR uni0227
ENCODING 551
SWIDTH 556 0
DWIDTH 10 0
BBX 9 13 1 0
BITMAP
0C00
0C00
0000
0F00
3F80
3180
0780
3F00
7300
E300
C600
FE00
7600
ENDCHAR
STARTCHAR uni0228
ENCODING 552
SWIDTH 667 0
DWIDTH 12 0
BBX 12 19 2 -5
BITMAP
1FF0
1FF0
1800
3000
3000
3000
3FC0
7FC0
6000
6000
6000
C000
FF80
FF80
0C00
0600
0600
3600
1C00
ENDCHAR
STARTCHAR uni0229
ENCODING 553
SWIDTH 556 0
DWIDTH 9 0
BBX 9 15 1 -5
BITMAP
0F00
3F80
7180
6180
FF00
C000
C000
C600
FE00
7800
1800
0C00
0C00
6C00
3800
ENDCHAR
STARTCHAR uni022A
ENCODING 554
SWIDTH 778 0
DWIDTH 15 0
BBX 14 19 2 0
BITMAP
03E0
0000
0330
0330
0000
03E0
0FF8
1C18
301C
700C
600C
600C
C018
C018
C038
E030
60E0
7FC0
1F00
ENDCHAR
STARTCHAR uni022B
ENCODING 555
SWIDTH 556 0
DWIDTH 10 0
BBX 9 15 1 0
BITMAP
1F00
0000
0D80
0D80
0000
0F00
3F80
7180
6180
C180
C180
C300
C700
FE00
7800
ENDCHAR
STARTCHAR uni022C
ENCODING 556
SWIDTH 778 0
DWIDTH 15 0
BBX 14 19 2 0
BITMAP
03E0
0000
01D0
02E0
0000
03E0
0FF8
1C18
301C
700C
600C
600C
C018
C018
C038
E030
60E0
7FC0
1F00
ENDCHAR
STARTCHAR uni022D
ENCODING 557
SWIDTH 556 0
DWIDTH 10 0
BBX 10 16 1 0
BITMAP
0F80
0000
0640
0F80
1300
0000
0F00
3F80
7180
6180
C180
C180
C300
C700
FE00
7800
ENDCHAR
STARTCHAR uni022E
ENCODING 558
SWIDTH 778 0
DWIDTH 15 0
BBX 14 17 2 0
BITMAP
0180
0180
0000
03E0
0FF8
1C18
301C
700C
600C
600C
C018
C018
C038
E030
60E0
7FC0
1F00
ENDCHAR
STARTCHAR uni022F
ENCODING 559
SWIDTH 556 0
DWIDTH 10 0
BBX 9 13 1 0
BITMAP
0C00
0C00
0000
0F00
3F80
7180
6180
C180
C180
C300
C700
FE00
7800
ENDCHAR
STARTCHAR uni0230
ENCODING 560
SWIDTH 778 0
DWIDTH 15 0
BBX 14 19 2 0
BITMAP
07C0
0000
0180
0180
0000
03E0
0FF8
1C18
301C
700C
600C
600C
C018
C018
C038
E030
60E0
7FC0
1F00
ENDCHAR
STARTCHAR uni0231
ENCODING 561
SWIDTH 556 0
DWIDTH 10 0
BBX 9 15 1 0
BITMAP
1F00
0000
0C00
0C00
0000
0F00
3F80
7180
6180
C180
C180
C300
C700
FE00
7800
ENDCHAR
STARTCHAR uni0232
ENCODING 562
SWIDTH 667 0
DWIDTH 12 0
BBX 10 16 4 0
BITMAP
3E00
0000
C0C0
C0C0
C180
C380
C300
6600
6E00
6C00
7800
3800
3000
6000
6000
6000
ENDCHAR
STARTCHAR uni0233
ENCODING 563
SWIDTH 500 0
DWIDTH 10 0
BBX 10 16 0 -4
BITMAP
1F00
0000
30C0
30C0
30C0
3180
3180
3300
1B00
1E00
0C00
1800
1800
3000
E000
C000
ENDCHAR
STARTCHAR uni0250
ENCODING 592
SWIDTH 556 0
DWIDTH 10 0
BBX 9 10 1 0
BITMAP
3700
3F80
3180
6380
6700
7E00
F000
C600
FE00
7800
ENDCHAR
STARTCHAR uni0259
ENCODING 601
SWIDTH 556 0
DWIDTH 9 0
BBX 9 10 1 0
BITMAP
0F00
3F80
3180
0180
0180
7F80
C300
C700
FE00
7800
ENDCHAR
STARTCHAR uni025F
ENCODING 607
SWIDTH 278 0
DWIDTH 5 0
BBX 7 14 1 -4
BITMAP
06
06
06
0C
0C
0C
0C
18
7E
7E
18
30
F0
E0
ENDCHAR
STARTCHAR uni0265
ENCODING 613
SWIDTH 556 0
DWIDTH 11 0
BBX 10 14 1 -4
BITMAP
30C0
30C0
30C0
6180
6180
6180
C380
C700
FF00
7300
0300
0600
0600
0600
ENDCHAR
STARTCHAR uni0275
ENCODING 629
SWIDTH 556 0
DWIDTH 10 0
BBX 9 10 1 0
BITMAP
0F00
3F80
7180
6180
FF80
FF80
C300
C700
FE00
7800
ENDCHAR
STARTCHAR uni0279
ENCODING 633
SWIDTH 333 0
DWIDTH 7 0
BBX 7 10 1 0
BITMAP
06
06
06
0C
0C
0C
0C
38
F8
D8
ENDCHAR
STARTCHAR uni0287
ENCODING 647
SWIDTH 278 0
DWIDTH 5 0
BBX 6 13 1 0
BITMAP
18
1C
0C
0C
18
18
18
30
FC
FC
30
60
60
ENDCHAR
STARTCHAR uni0289
ENCODING 649
SWIDTH 556 0
DWIDTH 10 0
BBX 10 10 1 0
BITMAP
30C0
30C0
30C0
6180
FFC0
FFC0
C380
C700
FB00
7300
ENDCHAR
STARTCHAR uni028C
ENCODING 652
SWIDTH 500 0
DWIDTH 9 0
BBX 8 10 2 0
BITMAP
06
0E
1F
1B
33
73
63
E3
C3
C3
ENDCHAR
STARTCHAR uni028D
ENCODING 653
SWIDTH 722 0
DWIDTH 13 0
BBX 12 10 2 0
BITMAP
0C60
0C60
1CE0
36B0
37B0
6730
6730
6630
C630
C630
ENDCHAR
STARTCHAR uni028E
ENCODING 654
SWIDTH 500 0
DWIDTH 10 0
BBX 10 14 0 0
BITMAP
00C0
01C0
0300
0600
0600
0C00
1E00
3600
3300
6300
6300
C300
C300
C300
ENDCHAR
STARTCHAR uni029E
ENCODING 670
SWIDTH 500 0
DWIDTH 9 0
BBX 9 14 1 -4
BITMAP
6180
6180
3180
3300
3300
1F00
1E00
3600
6600
C600
0600
0C00
0C00
0C00
ENDCHAR
STARTCHAR uni02BB
ENCODING 699
SWIDTH 222 0
DWIDTH 4 0
BBX 3 4 3 10
BITMAP
60
80
C0
C0
ENDCHAR
STARTCHAR afii57929
ENCODING 700
SWIDTH 222 0
DWIDTH 4 0
BBX 3 4 3 10
BITMAP
60
60
20
C0
ENDCHAR
STARTCHAR afii64937
ENCODING 701
SWIDTH 222 0
DWIDTH 4 0
BBX 3 4 3 10
BITMAP
C0
C0
80
60
ENDCHAR
STARTCHAR circumflex
ENCODING 710
SWIDTH 333 0
DWIDTH 6 0
BBX 6 3 3 11
BITMAP
30
78
CC
ENDCHAR
STARTCHAR caron
ENCODING 711
SWIDTH 333 0
DWIDTH 6 0
BBX 6 3 3 11
BITMAP
CC
78
30
ENDCHAR
STARTCHAR uni02C8
ENCODING 712
SWIDTH 191 0
DWIDTH 4 0
BBX 3 4 3 10
BITMAP
60
60
C0
80
ENDCHAR
STARTCHAR macron
ENCODING 713
SWIDTH 333 0
DWIDTH 5 0
BBX 5 1 3 12
BITMAP
F8
ENDCHAR
STARTCHAR uni02CA
ENCODING 714
SWIDTH 333 0
DWIDTH 4 0
BBX 4 3 3 11
BITMAP
30
60
C0
ENDCHAR
STARTCHAR uni02CB
ENCODING 715
SWIDTH 333 0
DWIDTH 4 0
BBX 4 3 3 11
BITMAP
C0
60
30
ENDCHAR
STARTCHAR uni02CD
ENCODING 717
SWIDTH 333 0
DWIDTH 5 0
BBX 5 1 3 -2
BITMAP
F8
ENDCHAR
STARTCHAR uni02CE
ENCODING 718
SWIDTH 333 0
DWIDTH 4 0
BBX 4 3 3 -4
BITMAP
C0
60
30
ENDCHAR
STARTCHAR uni02CF
ENCODING 719
SWIDTH 333 0
DWIDTH 4 0
BBX 4 3 3 -4
BITMAP
30
60
C0
ENDCHAR
STARTCHAR breve
ENCODING 728
SWIDTH 333 0
DWIDTH 6 0
BBX 5 3 3 11
BITMAP
88
D8
70
ENDCHAR
STARTCHAR dotaccent
ENCODING 729
SWIDTH 333 0
DWIDTH 6 0
BBX 2 2 5 11
BITMAP
C0
C0
ENDCHAR
STARTCHAR ring
ENCODING 730
SWIDTH 333 0
DWIDTH 6 0
BBX 4 4 3 10
BITMAP
70
90
90
E0
ENDCHAR
STARTCHAR ogonek
ENCODING 731
SWIDTH 333 0
DWIDTH 6 0
BBX 5 5 1 -5
BITMAP
18
70
C0
C0
70
ENDCHAR
STARTCHAR tilde
ENCODING 732
SWIDTH 333 0
DWIDTH 6 0
BBX 7 3 2 11
BITMAP
32
7C
98
ENDCHAR
STARTCHAR hungarumlaut
ENCODING 733
SWIDTH 333 0
DWIDTH 5 0
BBX 7 3 2 11
BITMAP
36
6C
D8
ENDCHAR
STARTCHAR uni02EE
ENCODING 750
SWIDTH 333 0
DWIDTH 7 0
BBX 6 4 3 10
BITMAP
6C
6C
24
D8
ENDCHAR
STARTCHAR uni037E
ENCODING 894
SWIDTH 278 0
DWIDTH 5 0
BBX 5 13 0 -3
BITMAP
18
18
00
00
00
00
00
00
60
60
20
40
80
ENDCHAR
STARTCHAR tonos
ENCODING 900
SWIDTH 333 0
DWIDTH 4 0
BBX 4 3 3 11
BITMAP
30
60
C0
ENDCHAR
STARTCHAR dieresistonos
ENCODING 901
SWIDTH 333 0
DWIDTH 6 0
BBX 5 6 3 11
BITMAP
18
30
60
00
D8
D8
ENDCHAR
STARTCHAR anoteleia
ENCODING 903
SWIDTH 278 0
DWIDTH 4 0
BBX 2 2 2 4
BITMAP
C0
C0
ENDCHAR
STARTCHAR mu
ENCODING 956
SWIDTH 556 0
DWIDTH 10 0
BBX 12 14 -1 -4
BITMAP
0C30
0C30
0C30
1860
1860
1860
30E0
31C0
3EC0
6CC0
6000
6000
C000
C000
ENDCHAR
STARTCHAR uni1E00
ENCODING 7680
SWIDTH 667 0
DWIDTH 12 0
BBX 11 19 0 -5
BITMAP
00C0
01C0
03C0
0360
0660
0660
0C60
1C60
1860
3FE0
7FE0
6060
C060
C060
0000
0700
0900
0900
0E00
ENDCHAR
STARTCHAR uni1E01
ENCODING 7681
SWIDTH 556 0
DWIDTH 10 0
BBX 9 15 1 -5
BITMAP
0F00
3F80
3180
0780
3F00
7300
E300
C600
FE00
7600
0000
1C00
2400
2400
3800
ENDCHAR
STARTCHAR uni1E02
ENCODING 7682
SWIDTH 667 0
DWIDTH 13 0
BBX 11 17 2 0
BITMAP
0600
0600
0000
1FC0
1FE0
1860
3060
3060
30C0
3F80
7FC0
60E0
6060
6060
C0E0
FFC0
FF00
ENDCHAR
STARTCHAR uni1E03
ENCODING 7683
SWIDTH 556 0
DWIDTH 11 0
BBX 10 17 1 0
BITMAP
1800
1800
0000
1800
1800
1800
3000
3780
3FC0
38C0
70C0
60C0
60C0
6180
E380
FF00
DE00
ENDCHAR
STARTCHAR uni1E04
ENCODING 7684
SWIDTH 667 0
DWIDTH 13 0
BBX 11 17 2 -3
BITMAP
1FC0
1FE0
1860
3060
3060
30C0
3F80
7FC0
60E0
6060
6060
C0E0
FFC0
FF00
0000
0C00
0C00
ENDCHAR
STARTCHAR uni1E05
ENCODING 7685
SWIDTH 556 0
DWIDTH 11 0
BBX 10 17 1 -3
BITMAP
1800
1800
1800
3000
3780
3FC0
38C0
70C0
60C0
60C0
6180
E380
FF00
DE00
0000
1800
1800
ENDCHAR
STARTCHAR uni1E06
ENCODING 7686
SWIDTH 667 0
DWIDTH 13 0
BBX 11 16 2 -2
BITMAP
1FC0
1FE0
1860
3060
3060
30C0
3F80
7FC0
60E0
6060
6060
C0E0
FFC0
FF00
0000
1F00
ENDCHAR
STARTCHAR uni1E07
ENCODING 7687
SWIDTH 556 0
DWIDTH 11 0
BBX 10 16 1 -2
BITMAP
1800
1800
1800
3000
3780
3FC0
38C0
70C0
60C0
60C0
6180
E380
FF00
DE00
0000
3E00
ENDCHAR
STARTCHAR uni1E08
ENCODING 7688
SWIDTH 722 0
DWIDTH 13 0
BBX 12 23 2 -5
BITMAP
0180
0300
0600
0000
03C0
0FE0
3C70
3030
6000
E000
C000
C000
C000
C060
E0E0
61C0
7F80
3E00
1000
3000
1800
D800
7000
ENDCHAR
STARTCHAR uni1E09
ENCODING 7689
SWIDTH 500 0
DWIDTH 9 0
BBX 10 19 0 -5
BITMAP
0300
0600
0C00
0000
0780
1FC0
38C0
3000
6000
6000
6000
6300
7F00
3E00
1000
3000
1800
D800
7000
ENDCHAR
STARTCHAR uni1E0A
ENCODING 7690
SWIDTH 722 0
DWIDTH 13 0
BBX 13 17 1 0
BITMAP
0300
0300
0000
1FE0
1FF0
1830
3018
3018
3018
3018
6018
6038
6030
6070
C0E0
FF80
FF00
ENDCHAR
STARTCHAR uni1E0B
ENCODING 7691
SWIDTH 556 0
DWIDTH 11 0
BBX 11 17 1 0
BITMAP
0180
0180
0000
0060
0060
0060
00C0
1EC0
3FC0
71C0
6180
C180
C180
C380
C700
FF00
7B00
ENDCHAR
STARTCHAR uni1E0C
ENCODING 7692
SWIDTH 722 0
DWIDTH 13 0
BBX 13 17 1 -3
BITMAP
1FE0
1FF0
1830
3018
3018
3018
3018
6018
6038
6030
6070
C0E0
FF80
FF00
0000
0600
0600
ENDCHAR
STARTCHAR uni1E0D
ENCODING 7693
SWIDTH 556 0
DWIDTH 11 0
BBX 11 17 1 -3
BITMAP
0060
0060
0060
00C0
1EC0
3FC0
71C0
6180
C180
C180
C380
C700
FF00
7B00
0000
0C00
0C00
ENDCHAR
STARTCHAR uni1E0E
ENCODING 7694
SWIDTH 722 0
DWIDTH 13 0
BBX 13 16 1 -2
BITMAP
1FE0
1FF0
1830
3018
3018
3018
3018
6018
6038
6030
6070
C0E0
FF80
FF00
0000
1F00
ENDCHAR
STARTCHAR uni1E0F
ENCODING 7695
SWIDTH 556 0
DWIDTH 11 0
BBX 11 16 1 -2
BITMAP
0060
0060
0060
00C0
1EC0
3FC0
71C0
6180
C180
C180
C380
C700
FF00
7B00
0000
3E00
ENDCHAR
STARTCHAR uni1E10
ENCODING 7696
SWIDTH 722 0
DWIDTH 13 0
BBX 13 19 1 -5
BITMAP
1FE0
1FF0
1830
3018
3018
3018
3018
6018
6038
6030
6070
C0E0
FF80
FF00
0600
0300
0300
1B00
0E00
ENDCHAR
STARTCHAR uni1E11
ENCODING 7697
SWIDTH 556 0
DWIDTH 11 0
BBX 11 19 1 -5
BITMAP
0060
0060
0060
00C0
1EC0
3FC0
71C0
6180
C180
C180
C380
C700
FF00
7F00
0C00
0600
0600
3600
1C00
ENDCHAR
STARTCHAR uni1E12
ENCODING 7698
SWIDTH 722 0
DWIDTH 13 0
BBX 13 18 1 -4
BITMAP
1FE0
1FF0
1830
3018
3018
3018
3018
6018
6038
6030
6070
C0E0
FF80
FF00
0000
0600
0F00
1980
ENDCHAR
STARTCHAR uni1E13
ENCODING 7699
SWIDTH 556 0
DWIDTH 11 0
BBX 11 18 1 -4
BITMAP
0060
0060
0060
00C0
1EC0
3FC0
71C0
6180
C180
C180
C380
C700
FF00
7B00
0000
0C00
1E00
3300
ENDCHAR
STARTCHAR uni1E14
ENCODING 7700
SWIDTH 667 0
DWIDTH 12 0
BBX 12 20 2 0
BITMAP
0C00
0600
0300
0000
0F80
0000
1FF0
1FF0
1800
3000
3000
3000
3FC0
7FC0
6000
6000
6000
C000
FF80
FF80
ENDCHAR
STARTCHAR uni1E15
ENCODING 7701
SWIDTH 556 0
DWIDTH 9 0
BBX 9 16 1 0
BITMAP
1800
0C00
0600
0000
1F00
0000
0F00
3F80
7180
6180
FF00
C000
C000
C600
FE00
7800
ENDCHAR
STARTCHAR uni1E16
ENCODING 7702
SWIDTH 667 0
DWIDTH 12 0
BBX 12 20 2 0
BITMAP
0180
0300
0600
0000
0F80
0000
1FF0
1FF0
1800
3000
3000
3000
3FC0
7FC0
6000
6000
6000
C000
FF80
FF80
ENDCHAR
STARTCHAR uni1E17
ENCODING 7703
SWIDTH 556 0
DWIDTH 9 0
BBX 9 16 1 0
BITMAP
0300
0600
0C00
0000
1F00
0000
0F00
3F80
7180
6180
FF00
C000
C000
C600
FE00
7800
ENDCHAR
STARTCHAR uni1E18
ENCODING 7704
SWIDTH 667 0
DWIDTH 12 0
BBX 12 18 2 -4
BITMAP
1FF0
1FF0
1800
3000
3000
3000
3FC0
7FC0
6000
6000
6000
C000
FF80
FF80
0000
0C00
1E00
3300
ENDCHAR
STARTCHAR uni1E19
ENCODING 7705
SWIDTH 556 0
DWIDTH 9 0
BBX 9 14 1 -4
BITMAP
0F00
3F80
7180
6180
FF00
C000
C000
C600
FE00
7800
0000
1800
3C00
6600
ENDCHAR
STARTCHAR uni1E1A
ENCODING 7706
SWIDTH 667 0
DWIDTH 12 0
BBX 12 18 2 -4
BITMAP
1FF0
1FF0
1800
3000
3000
3000
3FC0
7FC0
6000
6000
6000
C000
FF80
FF80
0000
1900
3E00
4C00
ENDCHAR
STARTCHAR uni1E1B
ENCODING 7707
SWIDTH 556 0
DWIDTH 9 0
BBX 9 14 1 -4
BITMAP
0F00
3F80
7180
6180
FF00
C000
C000
C600
FE00
7800
0000
3200
7C00
9800
ENDCHAR
STARTCHAR uni1E1C
ENCODING 7708
SWIDTH 667 0
DWIDTH 12 0
BBX 12 23 2 -5
BITMAP
0880
0D80
0700
0000
1FF0
1FF0
1800
3000
3000
3000
3FC0
7FC0
6000
6000
6000
C000
FF80
FF80
0C00
0600
0600
3600
1C00
ENDCHAR
STARTCHAR uni1E1D
ENCODING 7709
SWIDTH 556 0
DWIDTH 9 0
BBX 9 19 1 -5
BITMAP
1100
1B00
0E00
0000
0F00
3F80
7180
6180
FF00
C000
C000
C600
FE00
7800
1800
0C00
0C00
6C00
3800
ENDCHAR
STARTCHAR uni1E1E
ENCODING 7710
SWIDTH 611 0
DWIDTH 11 0
BBX 12 17 2 0
BITMAP
0300
0300
0000
1FF0
1FF0
1800
3000
3000
3000
3F80
7F80
6000
6000
6000
C000
C000
C000
ENDCHAR
STARTCHAR uni1E1F
ENCODING 7711
SWIDTH 278 0
DWIDTH 5 0
BBX 7 17 1 0
BITMAP
18
18
00
0E
1E
18
30
FC
FC
30
60
60
60
60
C0
C0
C0
ENDCHAR
STARTCHAR uni1E20
ENCODING 7712
SWIDTH 778 0
DWIDTH 14 0
BBX 12 16 2 0
BITMAP
07C0
0000
03E0
0FF0
1C30
3030
7000
6000
6000
C3F0
C3F0
C060
E060
60C0
7FC0
1EC0
ENDCHAR
STARTCHAR uni1E21
ENCODING 7713
SWIDTH 556 0
DWIDTH 10 0
BBX 11 16 0 -4
BITMAP
0F80
0000
0760
1FE0
3860
30C0
60C0
60C0
61C0
6380
7F80
3D80
0300
C700
FE00
3800
ENDCHAR
STARTCHAR uni1E22
ENCODING 7714
SWIDTH 722 0
DWIDTH 14 0
BBX 13 17 2 0
BITMAP
0300
0300
0000
1818
1818
1818
3030
3030
3030
3FF0
7FE0
6060
6060
6060
C0C0
C0C0
C0C0
ENDCHAR
STARTCHAR uni1E23
ENCODING 7715
SWIDTH 556 0
DWIDTH 11 0
BBX 10 17 1 0
BITMAP
1800
1800
0000
1800
1800
1800
3000
3380
3FC0
38C0
70C0
6180
6180
6180
C300
C300
C300
ENDCHAR
STARTCHAR uni1E24
ENCODING 7716
SWIDTH 722 0
DWIDTH 14 0
BBX 13 17 2 -3
BITMAP
1818
1818
1818
3030
3030
3030
3FF0
7FE0
6060
6060
6060
C0C0
C0C0
C0C0
0000
0600
0600
ENDCHAR
STARTCHAR uni1E25
ENCODING 7717
SWIDTH 556 0
DWIDTH 11 0
BBX 10 17 1 -3
BITMAP
1800
1800
1800
3000
3380
3FC0
38C0
70C0
6180
6180
6180
C300
C300
C300
0000
0C00
0C00
ENDCHAR
STARTCHAR uni1E26
ENCODING 7718
SWIDTH 722 0
DWIDTH 14 0
BBX 13 17 2 0
BITMAP
06C0
06C0
0000
1818
1818
1818
3030
3030
3030
3FF0
7FE0
6060
6060
6060
C0C0
C0C0
C0C0
ENDCHAR
STARTCHAR uni1E27
ENCODING 7719
SWIDTH 556 0
DWIDTH 11 0
BBX 10 17 1 0
BITMAP
3600
3600
0000
1800
1800
1800
3000
3380
3FC0
38C0
70C0
6180
6180
6180
C300
C300
C300
ENDCHAR
STARTCHAR uni1E28
ENCODING 7720
SWIDTH 722 0
DWIDTH 14 0
BBX 13 19 2 -5
BITMAP
1818
1818
1818
3030
3030
3030
3FF0
7FE0
6060
6060
6060
C0C0
C0C0
C2C0
0600
0300
0300
1B00
0E00
ENDCHAR
STARTCHAR uni1E29
ENCODING 7721
SWIDTH 556 0
DWIDTH 11 0
BBX 10 19 1 -5
BITMAP
1800
1800
1800
3000
3380
3FC0
38C0
70C0
6180
6180
6180
C300
C300
C700
0C00
0600
0600
3600
1C00
ENDCHAR
STARTCHAR uni1E2A
ENCODING 7722
SWIDTH 722 0
DWIDTH 14 0
BBX 13 18 2 -4
BITMAP
1818
1818
1818
3030
3030
3030
3FF0
7FE0
6060
6060
6060
C0C0
C0C0
C0C0
0000
1100
1B00
0E00
ENDCHAR
STARTCHAR uni1E2B
ENCODING 7723
SWIDTH 556 0
DWIDTH 11 0
BBX 10 18 1 -4
BITMAP
1800
1800
1800
3000
3380
3FC0
38C0
70C0
6180
6180
6180
C300
C300
C300
0000
2200
3600
1C00
ENDCHAR
STARTCHAR uni1E2C
ENCODING 7724
SWIDTH 278 0
DWIDTH 6 0
BBX 7 18 0 -4
BITMAP
06
06
06
0C
0C
0C
0C
18
18
18
18
30
30
30
00
32
7C
98
ENDCHAR
STARTCHAR uni1E2D
ENCODING 7725
SWIDTH 222 0
DWIDTH 4 0
BBX 7 18 -1 -4
BITMAP
06
06
00
00
0C
0C
0C
18
18
18
18
30
30
30
00
32
7C
98
ENDCHAR
STARTCHAR uni1E2E
ENCODING 7726
SWIDTH 278 0
DWIDTH 6 0
BBX 7 21 2 0
BITMAP
06
0C
18
00
36
36
00
18
18
18
30
30
30
30
60
60
60
60
C0
C0
C0
ENDCHAR
STARTCHAR uni1E2F
ENCODING 7727
SWIDTH 278 0
DWIDTH 4 0
BBX 6 17 1 0
BITMAP
0C
18
30
00
6C
6C
00
30
30
30
60
60
60
60
C0
C0
C0
ENDCHAR
STARTCHAR uni1E30
ENCODING 7728
SWIDTH 667 0
DWIDTH 13 0
BBX 13 18 1 0
BITMAP
00C0
0180
0300
0000
1818
1830
18E0
31C0
3380
3700
3E00
7E00
7700
6380
61C0
C0E0
C070
C030
ENDCHAR
STARTCHAR uni1E31
ENCODING 7729
SWIDTH 500 0
DWIDTH 9 0
BBX 9 18 1 0
BITMAP
0600
0C00
1800
0000
1800
1800
1800
3000
3180
3300
3600
3C00
7C00
6600
6600
C600
C300
C300
ENDCHAR
STARTCHAR uni1E32
ENCODING 7730
SWIDTH 667 0
DWIDTH 13 0
BBX 13 17 1 -3
BITMAP
1818
1830
18E0
31C0
3380
3700
3E00
7E00
7700
6380
61C0
C0E0
C070
C030
0000
0600
0600
ENDCHAR
STARTCHAR uni1E33
ENCODING 7731
SWIDTH 500 0
DWIDTH 9 0
BBX 9 17 1 -3
BITMAP
1800
1800
1800
3000
3180
3300
3600
3C00
7C00
6600
6600
C600
C300
C300
0000
1800
1800
ENDCHAR
STARTCHAR uni1E34
ENCODING 7732
SWIDTH 667 0
DWIDTH 13 0
BBX 13 16 1 -2
BITMAP
1818
1830
18E0
31C0
3380
3700
3E00
7E00
7700
6380
61C0
C0E0
C070
C030
0000
0F80
ENDCHAR
STARTCHAR uni1E35
ENCODING 7733
SWIDTH 500 0
DWIDTH 9 0
BBX 9 16 1 -2
BITMAP
1800
1800
1800
3000
3180
3300
3600
3C00
7C00
6600
6600
C600
C300
C300
0000
3E00
ENDCHAR
STARTCHAR uni1E36
ENCODING 7734
SWIDTH 556 0
DWIDTH 10 0
BBX 7 17 2 -3
BITMAP
18
18
18
30
30
30
30
60
60
60
60
C0
FE
FE
00
30
30
ENDCHAR
STARTCHAR uni1E37
ENCODING 7735
SWIDTH 222 0
DWIDTH 4 0
BBX 5 17 1 -3
BITMAP
18
18
18
30
30
30
30
60
60
60
60
C0
C0
C0
00
60
60
ENDCHAR
STARTCHAR uni1E38
ENCODING 7736
SWIDTH 556 0
DWIDTH 10 0
BBX 7 19 2 -3
BITMAP
7C
00
18
18
18
30
30
30
30
60
60
60
60
C0
FE
FE
00
30
30
ENDCHAR
STARTCHAR uni1E39
ENCODING 7737
SWIDTH 222 0
DWIDTH 4 0
BBX 6 19 1 -3
BITMAP
7C
00
18
18
18
30
30
30
30
60
60
60
60
C0
C0
C0
00
60
60
ENDCHAR
STARTCHAR uni1E3A
ENCODING 7738
SWIDTH 556 0
DWIDTH 10 0
BBX 7 16 2 -2
BITMAP
18
18
18
30
30
30
30
60
60
60
60
C0
FE
FE
00
7C
ENDCHAR
STARTCHAR uni1E3B
ENCODING 7739
SWIDTH 222 0
DWIDTH 4 0
BBX 6 16 0 -2
BITMAP
0C
0C
0C
18
18
18
18
30
30
30
30
60
60
60
00
F8
ENDCHAR
STARTCHAR uni1E3C
ENCODING 7740
SWIDTH 556 0
DWIDTH 10 0
BBX 7 18 2 -4
BITMAP
18
18
18
30
30
30
30
60
60
60
60
C0
FE
FE
00
30
78
CC
ENDCHAR
STARTCHAR uni1E3D
ENCODING 7741
SWIDTH 222 0
DWIDTH 4 0
BBX 6 18 0 -4
BITMAP
0C
0C
0C
18
18
18
18
30
30
30
30
60
60
60
00
30
78
CC
ENDCHAR
STARTCHAR uni1E3E
ENCODING 7742
SWIDTH 833 0
DWIDTH 15 0
BBX 16 18 1 0
BITMAP
0030
0060
00C0
0000
1803
1807
1C0F
3C0E
361E
3636
3636
666C
66EC
66CC
638C
C398
C318
C318
ENDCHAR
STARTCHAR uni1E3F
ENCODING 7743
SWIDTH 833 0
DWIDTH 14 0
BBX 14 14 1 0
BITMAP
00C0
0180
0300
0000
3318
37BC
39CC
6318
6318
6318
6318
C630
C630
C630
ENDCHAR
STARTCHAR uni1E40
ENCODING 7744
SWIDTH 833 0
DWIDTH 15 0
BBX 16 17 1 0
BITMAP
00C0
00C0
0000
1803
1807
1C0F
3C0E
361E
3636
3636
666C
66EC
66CC
638C
C398
C318
C318
ENDCHAR
STARTCHAR uni1E41
ENCODING 7745
SWIDTH 833 0
DWIDTH 14 0
BBX 14 13 1 0
BITMAP
0180
0180
0000
3318
37BC
39CC
6318
6318
6318
6318
C630
C630
C630
ENDCHAR
STARTCHAR uni1E42
ENCODING 7746
SWIDTH 833 0
DWIDTH 15 0
BBX 16 17 1 -3
BITMAP
1803
1807
1C0F
3C0E
361E
3636
3636
666C
66EC
66CC
638C
C398
C318
C318
0000
0300
0300
ENDCHAR
STARTCHAR uni1E43
ENCODING 7747
SWIDTH 833 0
DWIDTH 14 0
BBX 14 13 1 -3
BITMAP
3318
37BC
39CC
6318
6318
6318
6318
C630
C630
C630
0000
0600
0600
ENDCHAR
STARTCHAR uni1E44
ENCODING 7748
SWIDTH 722 0
DWIDTH 14 0
BBX 13 17 2 0
BITMAP
0300
0300
0000
1818
1818
1C18
3C30
3630
3630
3630
6660
6360
6360
6360
C1C0
C1C0
C0C0
ENDCHAR
STARTCHAR uni1E45
ENCODING 7749
SWIDTH 556 0
DWIDTH 11 0
BBX 10 13 1 0
BITMAP
0600
0600
0000
3380
37C0
38C0
70C0
6180
6180
6180
C300
C300
C300
ENDCHAR
STARTCHAR uni1E46
ENCODING 7750
SWIDTH 722 0
DWIDTH 14 0
BBX 13 17 2 -3
BITMAP
1818
1818
1C18
3C30
3630
3630
3630
6660
6360
6360
6360
C1C0
C1C0
C0C0
0000
0600
0600
ENDCHAR
STARTCHAR uni1E47
ENCODING 7751
SWIDTH 556 0
DWIDTH 11 0
BBX 10 13 1 -3
BITMAP
3380
37C0
38C0
70C0
6180
6180
6180
C300
C300
C300
0000
1800
1800
ENDCHAR
STARTCHAR uni1E48
ENCODING 7752
SWIDTH 722 0
DWIDTH 14 0
BBX 13 16 2 -2
BITMAP
1818
1818
1C18
3C30
3630
3630
3630
6660
6360
6360
6360
C1C0
C1C0
C0C0
0000
1F00
ENDCHAR
STARTCHAR uni1E49
ENCODING 7753
SWIDTH 556 0
DWIDTH 11 0
BBX 10 12 1 -2
BITMAP
3380
37C0
38C0
70C0
6180
6180
6180
C300
C300
C300
0000
3E00
ENDCHAR
STARTCHAR uni1E4A
ENCODING 7754
SWIDTH 722 0
DWIDTH 14 0
BBX 13 18 2 -4
BITMAP
1818
1818
1C18
3C30
3630
3630
3630
6660
6360
6360
6360
C1C0
C1C0
C0C0
0000
0600
0F00
1980
ENDCHAR
STARTCHAR uni1E4B
ENCODING 7755
SWIDTH 556 0
DWIDTH 11 0
BBX 10 14 1 -4
BITMAP
3380
37C0
38C0
70C0
6180
6180
6180
C300
C300
C300
0000
1800
3C00
6600
ENDCHAR
STARTCHAR uni1E4C
ENCODING 7756
SWIDTH 778 0
DWIDTH 15 0
BBX 14 21 2 0
BITMAP
0060
00C0
0180
0000
01D0
02E0
0000
03E0
0FF8
1C18
301C
700C
600C
600C
C018
C018
C038
E030
60E0
7FC0
1F00
ENDCHAR
STARTCHAR uni1E4D
ENCODING 7757
SWIDTH 556 0
DWIDTH 10 0
BBX 10 18 1 0
BITMAP
0180
0300
0600
0000
0640
0F80
1300
0000
0F00
3F80
7180
6180
C180
C180
C300
C700
FE00
7800
ENDCHAR
STARTCHAR uni1E4E
ENCODING 7758
SWIDTH 778 0
DWIDTH 15 0
BBX 14 20 2 0
BITMAP
0360
0360
0000
01D0
02E0
0000
03E0
0FF8
1C18
301C
700C
600C
600C
C018
C018
C038
E030
60E0
7FC0
1F00
ENDCHAR
STARTCHAR uni1E4F
ENCODING 7759
SWIDTH 556 0
DWIDTH 10 0
BBX 10 17 1 0
BITMAP
0D80
0D80
0000
0640
0F80
1300
0000
0F00
3F80
7180
6180
C180
C180
C300
C700
FE00
7800
ENDCHAR
STARTCHAR uni1E50
ENCODING 7760
SWIDTH 778 0
DWIDTH 15 0
BBX 14 20 2 0
BITMAP
0600
0300
0180
0000
07C0
0000
03E0
0FF8
1C18
301C
700C
600C
600C
C018
C018
C038
E030
60E0
7FC0
1F00
ENDCHAR
STARTCHAR uni1E51
ENCODING 7761
SWIDTH 556 0
DWIDTH 10 0
BBX 9 16 1 0
BITMAP
1800
0C00
0600
0000
1F00
0000
0F00
3F80
7180
6180
C180
C180
C300
C700
FE00
7800
ENDCHAR
STARTCHAR uni1E52
ENCODING 7762
SWIDTH 778 0
DWIDTH 15 0
BBX 14 20 2 0
BITMAP
00C0
0180
0300
0000
07C0
0000
03E0
0FF8
1C18
301C
700C
600C
600C
C018
C018
C038
E030
60E0
7FC0
1F00
ENDCHAR
STARTCHAR uni1E53
ENCODING 7763
SWIDTH 556 0
DWIDTH 10 0
BBX 9 16 1 0
BITMAP
0300
0600
0C00
0000
1F00
0000
0F00
3F80
7180
6180
C180
C180
C300
C700
FE00
7800
ENDCHAR
STARTCHAR uni1E54
ENCODING 7764
SWIDTH 667 0
DWIDTH 12 0
BBX 11 18 2 0
BITMAP
0180
0300
0600
0000
1FC0
1FE0
3860
3060
3060
30E0
7FC0
7F00
6000
6000
6000
C000
C000
C000
ENDCHAR
STARTCHAR uni1E55
ENCODING 7765
SWIDTH 556 0
DWIDTH 11 0
BBX 11 18 0 -4
BITMAP
0180
0300
0600
0000
1BC0
1FE0
1C60
3860
3060
3060
30C0
71C0
7F80
6F00
6000
C000
C000
C000
ENDCHAR
STARTCHAR uni1E56
ENCODING 7766
SWIDTH 667 0
DWIDTH 12 0
BBX 11 17 2 0
BITMAP
0600
0600
0000
1FC0
1FE0
3860
3060
3060
30E0
7FC0
7F00
6000
6000
6000
C000
C000
C000
ENDCHAR
STARTCHAR uni1E57
ENCODING 7767
SWIDTH 556 0
DWIDTH 11 0
BBX 11 17 0 -4
BITMAP
0600
0600
0000
1BC0
1FE0
1C60
3860
3060
3060
30C0
71C0
7F80
6F00
6000
C000
C000
C000
ENDCHAR
STARTCHAR uni1E58
ENCODING 7768
SWIDTH 722 0
DWIDTH 14 0
BBX 12 17 2 0
BITMAP
0300
0300
0000
1FE0
1FF0
1830
3030
3030
3070
3FE0
7FC0
60E0
6060
6060
C0C0
C0C0
C0C0
ENDCHAR
STARTCHAR uni1E59
ENCODING 7769
SWIDTH 333 0
DWIDTH 7 0
BBX 7 13 1 0
BITMAP
18
18
00
36
3E
38
60
60
60
60
C0
C0
C0
ENDCHAR
STARTCHAR uni1E5A
ENCODING 7770
SWIDTH 722 0
DWIDTH 14 0
BBX 12 17 2 -3
BITMAP
1FE0
1FF0
1830
3030
3030
3070
3FE0
7FC0
60E0
6060
6060
C0C0
C0C0
C0C0
0000
0600
0600
ENDCHAR
STARTCHAR uni1E5B
ENCODING 7771
SWIDTH 333 0
DWIDTH 7 0
BBX 7 13 1 -3
BITMAP
36
3E
38
60
60
60
60
C0
C0
C0
00
60
60
ENDCHAR
STARTCHAR uni1E5C
ENCODING 7772
SWIDTH 722 0
DWIDTH 14 0
BBX 12 19 2 -3
BITMAP
0F80
0000
1FE0
1FF0
1830
3030
3030
3070
3FE0
7FC0
60E0
6060
6060
C0C0
C0C0
C0C0
0000
0600
0600
ENDCHAR
STARTCHAR uni1E5D
ENCODING 7773
SWIDTH 333 0
DWIDTH 7 0
BBX 7 15 1 -3
BITMAP
7C
00
36
3E
38
60
60
60
60
C0
C0
C0
00
60
60
ENDCHAR
STARTCHAR uni1E5E
ENCODING 7774
SWIDTH 722 0
DWIDTH 14 0
BBX 12 16 2 -2
BITMAP
1FE0
1FF0
1830
3030
3030
3070
3FE0
7FC0
60E0
6060
6060
C0C0
C0C0
C0C0
0000
1F00
ENDCHAR
STARTCHAR uni1E5F
ENCODING 7775
SWIDTH 333 0
DWIDTH 7 0
BBX 8 12 0 -2
BITMAP
1B
1F
1C
30
30
30
30
60
60
60
00
F8
ENDCHAR
STARTCHAR uni1E60
ENCODING 7776
SWIDTH 667 0
DWIDTH 12 0
BBX 10 17 2 0
BITMAP
0600
0600
0000
0F80
3FC0
70C0
60C0
6000
7C00
3F00
0780
01C0
00C0
C0C0
C180
FF80
7E00
ENDCHAR
STARTCHAR uni1E61
ENCODING 7777
SWIDTH 500 0
DWIDTH 9 0
BBX 9 13 1 0
BITMAP
0C00
0C00
0000
0F00
3F80
7180
6000
3C00
1F00
0300
C300
FE00
7C00
ENDCHAR
STARTCHAR uni1E62
ENCODING 7778
SWIDTH 667 0
DWIDTH 12 0
BBX 10 17 2 -3
BITMAP
0F80
3FC0
70C0
60C0
6000
7C00
3F00
0780
01C0
00C0
C0C0
C180
FF80
7E00
0000
0C00
0C00
ENDCHAR
STARTCHAR uni1E63
ENCODING 7779
SWIDTH 500 0
DWIDTH 9 0
BBX 9 13 1 -3
BITMAP
0F00
3F80
7180
6000
3C00
1F00
0300
C300
FE00
7C00
0000
1800
1800
ENDCHAR
STARTCHAR uni1E64
ENCODING 7780
SWIDTH 667 0
DWIDTH 12 0
BBX 10 21 2 0
BITMAP
0600
0600
0000
0300
0600
0C00
0000
0F80
3FC0
70C0
60C0
6000
7C00
3F00
0780
01C0
00C0
C0C0
C180
FF80
7E00
ENDCHAR
STARTCHAR uni1E65
ENCODING 7781
SWIDTH 500 0
DWIDTH 9 0
BBX 9 17 1 0
BITMAP
0600
0600
0000
0300
0600
0C00
0000
0F00
3F80
7180
6000
3C00
1F00
0300
C300
FE00
7C00
ENDCHAR
STARTCHAR uni1E66
ENCODING 7782
SWIDTH 667 0
DWIDTH 12 0
BBX 10 20 2 0
BITMAP
0600
0600
0000
0D80
0700
0000
0F80
3FC0
70C0
60C0
6000
7C00
3F00
0780
01C0
00C0
C0C0
C180
FF80
7E00
ENDCHAR
STARTCHAR uni1E67
ENCODING 7783
SWIDTH 500 0
DWIDTH 9 0
BBX 9 17 1 0
BITMAP
0600
0600
0000
1980
0F00
0600
0000
0F00
3F80
7180
6000
3C00
1F00
0300
C300
FE00
7C00
ENDCHAR
STARTCHAR uni1E68
ENCODING 7784
SWIDTH 667 0
DWIDTH 12 0
BBX 10 20 2 -3
BITMAP
0C00
0C00
0000
0F80
3FC0
70C0
60C0
6000
7C00
3F00
0780
01C0
00C0
C0C0
C180
FF80
7E00
0000
0C00
0C00
ENDCHAR
STARTCHAR uni1E69
ENCODING 7785
SWIDTH 500 0
DWIDTH 9 0
BBX 9 16 1 -3
BITMAP
0C00
0C00
0000
0F00
3F80
7180
6000
3C00
1F00
0300
C300
FE00
7C00
0000
1800
1800
ENDCHAR
STARTCHAR uni1E6A
ENCODING 7786
SWIDTH 611 0
DWIDTH 11 0
BBX 10 17 3 0
BITMAP
0C00
0C00
0000
FFC0
FFC0
0C00
1800
1800
1800
1800
3000
3000
3000
3000
6000
6000
6000
ENDCHAR
STARTCHAR uni1E6B
ENCODING 7787
SWIDTH 278 0
DWIDTH 5 0
BBX 6 16 1 0
BITMAP
30
30
00
18
18
30
FC
FC
30
60
60
60
C0
C0
E0
60
ENDCHAR
STARTCHAR uni1E6C
ENCODING 7788
SWIDTH 611 0
DWIDTH 11 0
BBX 10 17 3 -3
BITMAP
FFC0
FFC0
0C00
1800
1800
1800
1800
3000
3000
3000
3000
6000
6000
6000
0000
3000
3000
ENDCHAR
STARTCHAR uni1E6D
ENCODING 7789
SWIDTH 278 0
DWIDTH 5 0
BBX 6 16 1 -3
BITMAP
18
18
30
FC
FC
30
60
60
60
C0
C0
E0
60
00
60
60
ENDCHAR
STARTCHAR uni1E6E
ENCODING 7790
SWIDTH 611 0
DWIDTH 11 0
BBX 10 16 3 -2
BITMAP
FFC0
FFC0
0C00
1800
1800
1800
1800
3000
3000
3000
3000
6000
6000
6000
0000
7C00
ENDCHAR
STARTCHAR uni1E6F
ENCODING 7791
SWIDTH 278 0
DWIDTH 5 0
BBX 7 15 0 -2
BITMAP
0C
0C
18
7E
7E
18
30
30
30
60
60
70
30
00
F8
ENDCHAR
STARTCHAR uni1E70
ENCODING 7792
SWIDTH 611 0
DWIDTH 11 0
BBX 10 18 3 -4
BITMAP
FFC0
FFC0
0C00
1800
1800
1800
1800
3000
3000
3000
3000
6000
6000
6000
0000
3000
7800
CC00
ENDCHAR
STARTCHAR uni1E71
ENCODING 7793
SWIDTH 278 0
DWIDTH 5 0
BBX 7 17 0 -4
BITMAP
0C
0C
18
7E
7E
18
30
30
30
60
60
70
30
00
30
78
CC
ENDCHAR
STARTCHAR uni1E72
ENCODING 7794
SWIDTH 722 0
DWIDTH 14 0
BBX 12 17 3 -3
BITMAP
3030
3030
3030
6060
6060
6060
6060
C0C0
C0C0
C0C0
C1C0
E380
7F00
3E00
0000
1B00
1B00
ENDCHAR
STARTCHAR uni1E73
ENCODING 7795
SWIDTH 556 0
DWIDTH 10 0
BBX 10 13 1 -3
BITMAP
30C0
30C0
30C0
6180
6180
6180
C380
C700
FB00
7300
0000
3600
3600
ENDCHAR
STARTCHAR uni1E74
ENCODING 7796
SWIDTH 722 0
DWIDTH 14 0
BBX 12 18 3 -4
BITMAP
3030
3030
3030
6060
6060
6060
6060
C0C0
C0C0
C0C0
C1C0
E380
7F00
3E00
0000
1900
3E00
4C00
ENDCHAR
STARTCHAR uni1E75
ENCODING 7797
SWIDTH 556 0
DWIDTH 10 0
BBX 10 14 1 -4
BITMAP
30C0
30C0
30C0
6180
6180
6180
C380
C700
FB00
7300
0000
3200
7C00
9800
ENDCHAR
STARTCHAR uni1E76
ENCODING 7798
SWIDTH 722 0
DWIDTH 14 0
BBX 12 18 3 -4
BITMAP
3030
3030
3030
6060
6060
6060
6060
C0C0
C0C0
C0C0
C1C0
E380
7F00
3E00
0000
0C00
1E00
3300
ENDCHAR
STARTCHAR uni1E77
ENCODING 7799
SWIDTH 556 0
DWIDTH 10 0
BBX 10 14 1 -4
BITMAP
30C0
30C0
30C0
6180
6180
6180
C380
C700
FB00
7300
0000
1800
3C00
6600
ENDCHAR
STARTCHAR uni1E78
ENCODING 7800
SWIDTH 722 0
DWIDTH 14 0
BBX 12 22 3 0
BITMAP
0180
0300
0600
0000
0640
0F80
1300
0000
3030
3030
3030
6060
6060
6060
6060
C0C0
C0C0
C0C0
C1C0
E380
7F00
3E00
ENDCHAR
STARTCHAR uni1E79
ENCODING 7801
SWIDTH 556 0
DWIDTH 10 0
BBX 10 18 1 0
BITMAP
0180
0300
0600
0000
0640
0F80
1300
0000
30C0
30C0
30C0
6180
6180
6180
C380
C700
FB00
7300
ENDCHAR
STARTCHAR uni1E7A
ENCODING 7802
SWIDTH 722 0
DWIDTH 14 0
BBX 12 19 3 0
BITMAP
0D80
0D80
0000
0F80
0000
3030
3030
3030
6060
6060
6060
6060
C0C0
C0C0
C0C0
C1C0
E380
7F00
3E00
ENDCHAR
STARTCHAR uni1E7B
ENCODING 7803
SWIDTH 556 0
DWIDTH 10 0
BBX 10 15 1 0
BITMAP
1B00
1B00
0000
1F00
0000
30C0
30C0
30C0
6180
6180
6180
C380
C700
FB00
7300
ENDCHAR
STARTCHAR uni1E7C
ENCODING 7804
SWIDTH 667 0
DWIDTH 12 0
BBX 10 18 4 0
BITMAP
0C80
1F00
2600
0000
C0C0
C0C0
C180
C180
C300
C300
C600
C600
CC00
CC00
D800
7800
7000
6000
ENDCHAR
STARTCHAR uni1E7D
ENCODING 7805
SWIDTH 500 0
DWIDTH 9 0
BBX 8 14 2 0
BITMAP
19
3E
4C
00
C3
C3
C7
C6
CE
CC
D8
F8
70
60
ENDCHAR
STARTCHAR uni1E7E
ENCODING 7806
SWIDTH 667 0
DWIDTH 12 0
BBX 10 17 4 -3
BITMAP
C0C0
C0C0
C180
C180
C300
C300
C600
C600
CC00
CC00
D800
7800
7000
6000
0000
3000
3000
ENDCHAR
STARTCHAR uni1E7F
ENCODING 7807
SWIDTH 500 0
DWIDTH 9 0
BBX 8 13 2 -3
BITMAP
C3
C3
C7
C6
CE
CC
D8
F8
70
60
00
30
30
ENDCHAR
STARTCHAR Wgrave
ENCODING 7808
SWIDTH 944 0
DWIDTH 17 0
BBX 16 18 3 0
BITMAP
0600
0300
0180
0000
C183
C183
C386
C386
C6CC
C6CC
CCCC
CCD8
D8D8
7878
7070
7070
6060
6060
ENDCHAR
STARTCHAR wgrave
ENCODING 7809
SWIDTH 722 0
DWIDTH 13 0
BBX 12 14 2 0
BITMAP
1800
0C00
0600
0000
C630
C630
C660
CE60
CE60
DEC0
D6C0
7380
6300
6300
ENDCHAR
STARTCHAR Wacute
ENCODING 7810
SWIDTH 944 0
DWIDTH 17 0
BBX 16 18 3 0
BITMAP
00C0
0180
0300
0000
C183
C183
C386
C386
C6CC
C6CC
CCCC
CCD8
D8D8
7878
7070
7070
6060
6060
ENDCHAR
STARTCHAR wacute
ENCODING 7811
SWIDTH 722 0
DWIDTH 13 0
BBX 12 14 2 0
BITMAP
0180
0300
0600
0000
C630
C630
C660
CE60
CE60
DEC0
D6C0
7380
6300
6300
ENDCHAR
STARTCHAR Wdieresis
ENCODING 7812
SWIDTH 944 0
DWIDTH 17 0
BBX 16 17 3 0
BITMAP
06C0
06C0
0000
C183
C183
C386
C386
C6CC
C6CC
CCCC
CCD8
D8D8
7878
7070
7070
6060
6060
ENDCHAR
STARTCHAR wdieresis
ENCODING 7813
SWIDTH 722 0
DWIDTH 13 0
BBX 12 13 2 0
BITMAP
1B00
1B00
0000
C630
C630
C660
CE60
CE60
DEC0
D6C0
7380
6300
6300
ENDCHAR
STARTCHAR uni1E86
ENCODING 7814
SWIDTH 944 0
DWIDTH 17 0
BBX 16 17 3 0
BITMAP
0180
0180
0000
C183
C183
C386
C386
C6CC
C6CC
CCCC
CCD8
D8D8
7878
7070
7070
6060
6060
ENDCHAR
STARTCHAR uni1E87
ENCODING 7815
SWIDTH 722 0
DWIDTH 13 0
BBX 12 13 2 0
BITMAP
0600
0600
0000
C630
C630
C660
CE60
CE60
DEC0
D6C0
7380
6300
6300
ENDCHAR
STARTCHAR uni1E88
ENCODING 7816
SWIDTH 944 0
DWIDTH 17 0
BBX 16 17 3 -3
BITMAP
C183
C183
C386
C386
C6CC
C6CC
CCCC
CCD8
D8D8
7878
7070
7070
6060
6060
0000
0300
0300
ENDCHAR
STARTCHAR uni1E89
ENCODING 7817
SWIDTH 722 0
DWIDTH 13 0
BBX 12 13 2 -3
BITMAP
C630
C630
C660
CE60
CE60
DEC0
D6C0
7380
6300
6300
0000
0C00
0C00
ENDCHAR
STARTCHAR uni1E8A
ENCODING 7818
SWIDTH 667 0
DWIDTH 12 0
BBX 12 17 1 0
BITMAP
0300
0300
0000
3030
3070
3860
18C0
0D80
0F80
0700
0F00
1F00
1980
3180
61C0
E0C0
C0C0
ENDCHAR
STARTCHAR uni1E8B
ENCODING 7819
SWIDTH 500 0
DWIDTH 10 0
BBX 10 13 1 0
BITMAP
0600
0600
0000
30C0
30C0
1980
1B00
0E00
1C00
3E00
6600
C300
C300
ENDCHAR
STARTCHAR uni1E8C
ENCODING 7820
SWIDTH 667 0
DWIDTH 12 0
BBX 12 17 1 0
BITMAP
0D80
0D80
0000
3030
3070
3860
18C0
0D80
0F80
0700
0F00
1F00
1980
3180
61C0
E0C0
C0C0
ENDCHAR
STARTCHAR uni1E8D
ENCODING 7821
SWIDTH 500 0
DWIDTH 10 0
BBX 10 13 1 0
BITMAP
1B00
1B00
0000
30C0
30C0
1980
1B00
0E00
1C00
3E00
6600
C300
C300
ENDCHAR
STARTCHAR uni1E8E
ENCODING 7822
SWIDTH 667 0
DWIDTH 12 0
BBX 10 17 4 0
BITMAP
0C00
0C00
0000
C0C0
C0C0
C180
C380
C300
6600
6E00
6C00
7800
3800
3000
6000
6000
6000
ENDCHAR
STARTCHAR uni1E8F
ENCODING 7823
SWIDTH 500 0
DWIDTH 10 0
BBX 10 17 0 -4
BITMAP
0600
0600
0000
30C0
30C0
30C0
3180
3180
3300
1B00
1E00
0C00
1800
1800
3000
E000
C000
ENDCHAR
STARTCHAR uni1E90
ENCODING 7824
SWIDTH 611 0
DWIDTH 11 0
BBX 13 18 0 0
BITMAP
0180
03C0
0660
0000
0FF8
0FF8
0030
0060
00C0
0180
0300
0600
0C00
1800
3000
6000
FFC0
FFC0
ENDCHAR
STARTCHAR uni1E91
ENCODING 7825
SWIDTH 500 0
DWIDTH 9 0
BBX 9 14 1 0
BITMAP
0C00
1E00
3300
0000
3F80
3F80
0300
0600
0C00
1800
3000
6000
FE00
FE00
ENDCHAR
STARTCHAR uni1E92
ENCODING 7826
SWIDTH 611 0
DWIDTH 11 0
BBX 13 17 0 -3
BITMAP
0FF8
0FF8
0030
0060
00C0
0180
0300
0600
0C00
1800
3000
6000
FFC0
FFC0
0000
0C00
0C00
ENDCHAR
STARTCHAR uni1E93
ENCODING 7827
SWIDTH 500 0
DWIDTH 9 0
BBX 9 13 1 -3
BITMAP
3F80
3F80
0300
0600
0C00
1800
3000
6000
FE00
FE00
0000
1800
1800
ENDCHAR
STARTCHAR uni1E94
ENCODING 7828
SWIDTH 611 0
DWIDTH 11 0
BBX 13 16 0 -2
BITMAP
0FF8
0FF8
0030
0060
00C0
0180
0300
0600
0C00
1800
3000
6000
FFC0
FFC0
0000
1F00
ENDCHAR
STARTCHAR uni1E95
ENCODING 7829
SWIDTH 500 0
DWIDTH 9 0
BBX 9 12 1 -2
BITMAP
3F80
3F80
0300
0600
0C00
1800
3000
6000
FE00
FE00
0000
7C00
ENDCHAR
STARTCHAR uni1E96
ENCODING 7830
SWIDTH 556 0
DWIDTH 11 0
BBX 10 16 1 -2
BITMAP
1800
1800
1800
3000
3380
3FC0
38C0
70C0
6180
6180
6180
C300
C300
C300
0000
3E00
ENDCHAR
STARTCHAR uni1E97
ENCODING 7831
SWIDTH 278 0
DWIDTH 5 0
BBX 6 16 1 0
BITMAP
6C
6C
00
18
18
30
FC
FC
30
60
60
60
C0
C0
E0
60
ENDCHAR
STARTCHAR uni1E98
ENCODING 7832
SWIDTH 722 0
DWIDTH 13 0
BBX 12 15 2 0
BITMAP
0700
0900
0900
0E00
0000
C630
C630
C660
CE60
CE60
DEC0
D6C0
7380
6300
6300
ENDCHAR
STARTCHAR uni1E99
ENCODING 7833
SWIDTH 500 0
DWIDTH 10 0
BBX 10 19 0 -4
BITMAP
0700
0900
0900
0E00
0000
30C0
30C0
30C0
3180
3180
3300
1B00
1E00
0C00
1800
1800
3000
E000
C000
ENDCHAR
STARTCHAR uni1EA0
ENCODING 7840
SWIDTH 667 0
DWIDTH 12 0
BBX 11 17 0 -3
BITMAP
00C0
01C0
03C0
0360
0660
0660
0C60
1C60
1860
3FE0
7FE0
6060
C060
C060
0000
0600
0600
ENDCHAR
STARTCHAR uni1EA1
ENCODING 7841
SWIDTH 556 0
DWIDTH 10 0
BBX 9 13 1 -3
BITMAP
0F00
3F80
3180
0780
3F00
7300
E300
C600
FE00
7600
0000
1800
1800
ENDCHAR
STARTCHAR uni1EA4
ENCODING 7844
SWIDTH 667 0
DWIDTH 12 0
BBX 12 21 0 0
BITMAP
0060
00C0
0180
0000
00E0
01B0
0000
00C0
01C0
03C0
0360
0660
0660
0C60
1C60
1860
3FE0
7FE0
6060
C060
C060
ENDCHAR
STARTCHAR uni1EA5
ENCODING 7845
SWIDTH 556 0
DWIDTH 10 0
BBX 9 18 1 0
BITMAP
0300
0600
0C00
0000
0600
0F00
1980
0000
0F00
3F80
3180
0780
3F00
7300
E300
C600
FE00
7600
ENDCHAR
STARTCHAR uni1EA6
ENCODING 7846
SWIDTH 667 0
DWIDTH 12 0
BBX 12 21 0 0
BITMAP
0600
0300
0180
0000
00E0
01B0
0000
00C0
01C0
03C0
0360
0660
0660
0C60
1C60
1860
3FE0
7FE0
6060
C060
C060
ENDCHAR
STARTCHAR uni1EA7
ENCODING 7847
SWIDTH 556 0
DWIDTH 10 0
BBX 9 18 1 0
BITMAP
1800
0C00
0600
0000
0600
0F00
1980
0000
0F00
3F80
3180
0780
3F00
7300
E300
C600
FE00
7600
ENDCHAR
STARTCHAR uni1EAA
ENCODING 7850
SWIDTH 667 0
DWIDTH 12 0
BBX 12 21 0 0
BITMAP
0190
03E0
04C0
0000
00E0
01B0
0000
00C0
01C0
03C0
0360
0660
0660
0C60
1C60
1860
3FE0
7FE0
6060
C060
C060
ENDCHAR
STARTCHAR uni1EAB
ENCODING 7851
SWIDTH 556 0
DWIDTH 10 0
BBX 9 18 1 0
BITMAP
0C80
1F00
2600
0000
0600
0F00
1980
0000
0F00
3F80
3180
0780
3F00
7300
E300
C600
FE00
7600
ENDCHAR
STARTCHAR uni1EAC
ENCODING 7852
SWIDTH 667 0
DWIDTH 12 0
BBX 11 21 0 -3
BITMAP
0300
0780
0CC0
0000
00C0
01C0
03C0
0360
0660
0660
0C60
1C60
1860
3FE0
7FE0
6060
C060
C060
0000
0600
0600
ENDCHAR
STARTCHAR uni1EAD
ENCODING 7853
SWIDTH 556 0
DWIDTH 10 0
BBX 9 17 1 -3
BITMAP
0C00
1E00
3300
0000
0F00
3F80
3180
0780
3F00
7300
E300
C600
FE00
7600
0000
1800
1800
ENDCHAR
STARTCHAR uni1EAE
ENCODING 7854
SWIDTH 667 0
DWIDTH 12 0
BBX 11 22 0 0
BITMAP
00C0
0180
0300
0000
0440
06C0
0380
0000
00C0
01C0
03C0
0360
0660
0660
0C60
1C60
1860
3FE0
7FE0
6060
C060
C060
ENDCHAR
STARTCHAR uni1EAF
ENCODING 7855
SWIDTH 556 0
DWIDTH 10 0
BBX 9 18 1 0
BITMAP
0300
0600
0C00
0000
1100
1B00
0E00
0000
0F00
3F80
3180
0780
3F00
7300
E300
C600
FE00
7600
ENDCHAR
STARTCHAR uni1EB0
ENCODING 7856
SWIDTH 667 0
DWIDTH 12 0
BBX 11 22 0 0
BITMAP
0C00
0600
0300
0000
0440
06C0
0380
0000
00C0
01C0
03C0
0360
0660
0660
0C60
1C60
1860
3FE0
7FE0
6060
C060
C060
ENDCHAR
STARTCHAR uni1EB1
ENCODING 7857
SWIDTH 556 0
DWIDTH 10 0
BBX 9 18 1 0
BITMAP
1800
0C00
0600
0000
1100
1B00
0E00
0000
0F00
3F80
3180
0780
3F00
7300
E300
C600
FE00
7600
ENDCHAR
STARTCHAR uni1EB4
ENCODING 7860
SWIDTH 667 0
DWIDTH 12 0
BBX 11 22 0 0
BITMAP
0320
07C0
0980
0000
0440
06C0
0380
0000
00C0
01C0
03C0
0360
0660
0660
0C60
1C60
1860
3FE0
7FE0
6060
C060
C060
ENDCHAR
STARTCHAR uni1EB5
ENCODING 7861
SWIDTH 556 0
DWIDTH 10 0
BBX 9 18 1 0
BITMAP
0C80
1F00
2600
0000
1100
1B00
0E00
0000
0F00
3F80
3180
0780
3F00
7300
E300
C600
FE00
7600
ENDCHAR
STARTCHAR uni1EB6
ENCODING 7862
SWIDTH 667 0
DWIDTH 12 0
BBX 11 21 0 -3
BITMAP
0440
06C0
0380
0000
00C0
01C0
03C0
0360
0660
0660
0C60
1C60
1860
3FE0
7FE0
6060
C060
C060
0000
0600
0600
ENDCHAR
STARTCHAR uni1EB7
ENCODING 7863
SWIDTH 556 0
DWIDTH 10 0
BBX 9 17 1 -3
BITMAP
1100
1B00
0E00
0000
0F00
3F80
3180
0780
3F00
7300
E300
C600
FE00
7600
0000
1800
1800
ENDCHAR
STARTCHAR uni1EB8
ENCODING 7864
SWIDTH 667 0
DWIDTH 12 0
BBX 12 17 2 -3
BITMAP
1FF0
1FF0
1800
3000
3000
3000
3FC0
7FC0
6000
6000
6000
C000
FF80
FF80
0000
0C00
0C00
ENDCHAR
STARTCHAR uni1EB9
ENCODING 7865
SWIDTH 556 0
DWIDTH 9 0
BBX 9 13 1 -3
BITMAP
0F00
3F80
7180
6180
FF00
C000
C000
C600
FE00
7800
0000
1800
1800
ENDCHAR
STARTCHAR uni1EBC
ENCODING 7868
SWIDTH 667 0
DWIDTH 12 0
BBX 12 18 2 0
BITMAP
0640
0F80
1300
0000
1FF0
1FF0
1800
3000
3000
3000
3FC0
7FC0
6000
6000
6000
C000
FF80
FF80
ENDCHAR
STARTCHAR uni1EBD
ENCODING 7869
SWIDTH 556 0
DWIDTH 9 0
BBX 9 14 1 0
BITMAP
0C80
1F00
2600
0000
0F00
3F80
7180
6180
FF00
C000
C000
C600
FE00
7800
ENDCHAR
STARTCHAR uni1EBE
ENCODING 7870
SWIDTH 667 0
DWIDTH 12 0
BBX 12 21 2 0
BITMAP
00C0
0180
0300
0000
0380
06C0
0000
1FF0
1FF0
1800
3000
3000
3000
3FC0
7FC0
6000
6000
6000
C000
FF80
FF80
ENDCHAR
STARTCHAR uni1EBF
ENCODING 7871
SWIDTH 556 0
DWIDTH 9 0
BBX 9 18 1 0
BITMAP
0300
0600
0C00
0000
0600
0F00
1980
0000
0F00
3F80
7180
6180
FF00
C000
C000
C600
FE00
7800
ENDCHAR
STARTCHAR uni1EC0
ENCODING 7872
SWIDTH 667 0
DWIDTH 12 0
BBX 12 21 2 0
BITMAP
0C00
0600
0300
0000
0380
06C0
0000
1FF0
1FF0
1800
3000
3000
3000
3FC0
7FC0
6000
6000
6000
C000
FF80
FF80
ENDCHAR
STARTCHAR uni1EC1
ENCODING 7873
SWIDTH 556 0
DWIDTH 9 0
BBX 9 18 1 0
BITMAP
1800
0C00
0600
0000
0600
0F00
1980
0000
0F00
3F80
7180
6180
FF00
C000
C000
C600
FE00
7800
ENDCHAR
STARTCHAR uni1EC4
ENCODING 7876
SWIDTH 667 0
DWIDTH 12 0
BBX 12 21 2 0
BITMAP
0320
07C0
0980
0000
0380
06C0
0000
1FF0
1FF0
1800
3000
3000
3000
3FC0
7FC0
6000
6000
6000
C000
FF80
FF80
ENDCHAR
STARTCHAR uni1EC5
ENCODING 7877
SWIDTH 556 0
DWIDTH 9 0
BBX 9 18 1 0
BITMAP
0C80
1F00
2600
0000
0600
0F00
1980
0000
0F00
3F80
7180
6180
FF00
C000
C000
C600
FE00
7800
ENDCHAR
STARTCHAR uni1EC6
ENCODING 7878
SWIDTH 667 0
DWIDTH 12 0
BBX 12 21 2 -3
BITMAP
0600
0F00
1980
0000
1FF0
1FF0
1800
3000
3000
3000
3FC0
7FC0
6000
6000
6000
C000
FF80
FF80
0000
0C00
0C00
ENDCHAR
STARTCHAR uni1EC7
ENCODING 7879
SWIDTH 556 0
DWIDTH 9 0
BBX 9 17 1 -3
BITMAP
0C00
1E00
3300
0000
0F00
3F80
7180
6180
FF00
C000
C000
C600
FE00
7800
0000
1800
1800
ENDCHAR
STARTCHAR uni1ECA
ENCODING 7882
SWIDTH 278 0
DWIDTH 6 0
BBX 5 17 2 -3
BITMAP
18
18
18
30
30
30
30
60
60
60
60
C0
C0
C0
00
60
60
ENDCHAR
STARTCHAR uni1ECB
ENCODING 7883
SWIDTH 222 0
DWIDTH 4 0
BBX 5 17 1 -3
BITMAP
18
18
00
00
30
30
30
60
60
60
60
C0
C0
C0
00
60
60
ENDCHAR
STARTCHAR uni1ECC
ENCODING 7884
SWIDTH 778 0
DWIDTH 15 0
BBX 14 17 2 -3
BITMAP
03E0
0FF8
1C18
301C
700C
600C
600C
C018
C018
C038
E030
60E0
7FC0
1F00
0000
0600
0600
ENDCHAR
STARTCHAR uni1ECD
ENCODING 7885
SWIDTH 556 0
DWIDTH 10 0
BBX 9 13 1 -3
BITMAP
0F00
3F80
7180
6180
C180
C180
C300
C700
FE00
7800
0000
1800
1800
ENDCHAR
STARTCHAR uni1ED0
ENCODING 7888
SWIDTH 778 0
DWIDTH 15 0
BBX 14 21 2 0
BITMAP
0060
00C0
0180
0000
01C0
0360
0000
03E0
0FF8
1C18
301C
700C
600C
600C
C018
C018
C038
E030
60E0
7FC0
1F00
ENDCHAR
STARTCHAR uni1ED1
ENCODING 7889
SWIDTH 556 0
DWIDTH 10 0
BBX 9 18 1 0
BITMAP
0300
0600
0C00
0000
0600
0F00
1980
0000
0F00
3F80
7180
6180
C180
C180
C300
C700
FE00
7800
ENDCHAR
STARTCHAR uni1ED2
ENCODING 7890
SWIDTH 778 0
DWIDTH 15 0
BBX 14 21 2 0
BITMAP
0600
0300
0180
0000
01C0
0360
0000
03E0
0FF8
1C18
301C
700C
600C
600C
C018
C018
C038
E030
60E0
7FC0
1F00
ENDCHAR
STARTCHAR uni1ED3
ENCODING 7891
SWIDTH 556 0
DWIDTH 10 0
BBX 9 18 1 0
BITMAP
1800
0C00
0600
0000
0600
0F00
1980
0000
0F00
3F80
7180
6180
C180
C180
C300
C700
FE00
7800
ENDCHAR
STARTCHAR uni1ED6
ENCODING 7894
SWIDTH 778 0
DWIDTH 15 0
BBX 14 21 2 0
BITMAP
0190
03E0
04C0
0000
01C0
0360
0000
03E0
0FF8
1C18
301C
700C
600C
600C
C018
C018
C038
E030
60E0
7FC0
1F00
ENDCHAR
STARTCHAR uni1ED7
ENCODING 7895
SWIDTH 556 0
DWIDTH 10 0
BBX 9 18 1 0
BITMAP
0C80
1F00
2600
0000
0600
0F00
1980
0000
0F00
3F80
7180
6180
C180
C180
C300
C700
FE00
7800
ENDCHAR
STARTCHAR uni1ED8
ENCODING 7896
SWIDTH 778 0
DWIDTH 15 0
BBX 14 21 2 -3
BITMAP
0180
03C0
0660
0000
03E0
0FF8
1C18
301C
700C
600C
600C
C018
C018
C038
E030
60E0
7FC0
1F00
0000
0600
0600
ENDCHAR
STARTCHAR uni1ED9
ENCODING 7897
SWIDTH 556 0
DWIDTH 10 0
BBX 9 17 1 -3
BITMAP
0C00
1E00
3300
0000
0F00
3F80
7180
6180
C180
C180
C300
C700
FE00
7800
0000
1800
1800
ENDCHAR
STARTCHAR uni1EDA
ENCODING 7898
SWIDTH 778 0
DWIDTH 15 0
BBX 16 18 2 0
BITMAP
0030
0060
00C0
0000
03E3
0FFB
1C19
301E
700C
600C
600C
C018
C018
C038
E030
60E0
7FC0
1F00
ENDCHAR
STARTCHAR uni1EDB
ENCODING 7899
SWIDTH 556 0
DWIDTH 10 0
BBX 11 14 1 0
BITMAP
0180
0300
0600
0000
0F60
3FE0
71A0
61C0
C180
C180
C300
C700
FE00
7800
ENDCHAR
STARTCHAR uni1EDC
ENCODING 7900
SWIDTH 778 0
DWIDTH 15 0
BBX 16 18 2 0
BITMAP
0300
0180
00C0
0000
03E3
0FFB
1C19
301E
700C
600C
600C
C018
C018
C038
E030
60E0
7FC0
1F00
ENDCHAR
STARTCHAR uni1EDD
ENCODING 7901
SWIDTH 556 0
DWIDTH 10 0
BBX 11 14 1 0
BITMAP
0C00
0600
0300
0000
0F60
3FE0
71A0
61C0
C180
C180
C300
C700
FE00
7800
ENDCHAR
STARTCHAR uni1EE0
ENCODING 7904
SWIDTH 778 0
DWIDTH 15 0
BBX 16 18 2 0
BITMAP
00C8
01F0
0260
0000
03E3
0FFB
1C19
301E
700C
600C
600C
C018
C018
C038
E030
60E0
7FC0
1F00
ENDCHAR
STARTCHAR uni1EE1
ENCODING 7905
SWIDTH 556 0
DWIDTH 10 0
BBX 11 14 1 0
BITMAP
0640
0F80
1300
0000
0F60
3FE0
71A0
61C0
C180
C180
C300
C700
FE00
7800
ENDCHAR
STARTCHAR uni1EE2
ENCODING 7906
SWIDTH 778 0
DWIDTH 15 0
BBX 16 17 2 -3
BITMAP
03E3
0FFB
1C19
301E
700C
600C
600C
C018
C018
C038
E030
60E0
7FC0
1F00
0000
0600
0600
ENDCHAR
STARTCHAR uni1EE3
ENCODING 7907
SWIDTH 556 0
DWIDTH 10 0
BBX 11 13 1 -3
BITMAP
0F60
3FE0
71A0
61C0
C180
C180
C300
C700
FE00
7800
0000
1800
1800
ENDCHAR
STARTCHAR uni1EE4
ENCODING 7908
SWIDTH 722 0
DWIDTH 14 0
BBX 12 17 3 -3
BITMAP
3030
3030
3030
6060
6060
6060
6060
C0C0
C0C0
C0C0
C1C0
E380
7F00
3E00
0000
0C00
0C00
ENDCHAR
STARTCHAR uni1EE5
ENCODING 7909
SWIDTH 556 0
DWIDTH 10 0
BBX 10 13 1 -3
BITMAP
30C0
30C0
30C0
6180
6180
6180
C380
C700
FB00
7300
0000
1800
1800
ENDCHAR
STARTCHAR uni1EE8
ENCODING 7912
SWIDTH 722 0
DWIDTH 14 0
BBX 14 18 3 0
BITMAP
0060
00C0
0180
0000
303C
303C
3034
6078
6060
6060
6060
C0C0
C0C0
C0C0
C1C0
E380
7F00
3E00
ENDCHAR
STARTCHAR uni1EE9
ENCODING 7913
SWIDTH 556 0
DWIDTH 10 0
BBX 12 14 1 0
BITMAP
00C0
0180
0300
0000
30F0
30F0
30D0
61E0
6180
6180
C380
C700
FB00
7300
ENDCHAR
STARTCHAR uni1EEA
ENCODING 7914
SWIDTH 722 0
DWIDTH 14 0
BBX 14 18 3 0
BITMAP
0600
0300
0180
0000
303C
303C
3034
6078
6060
6060
6060
C0C0
C0C0
C0C0
C1C0
E380
7F00
3E00
ENDCHAR
STARTCHAR uni1EEB
ENCODING 7915
SWIDTH 556 0
DWIDTH 10 0
BBX 12 14 1 0
BITMAP
0C00
0600
0300
0000
30F0
30F0
30D0
61E0
6180
6180
C380
C700
FB00
7300
ENDCHAR
STARTCHAR uni1EEE
ENCODING 7918
SWIDTH 722 0
DWIDTH 14 0
BBX 14 18 3 0
BITMAP
0190
03E0
04C0
0000
303C
303C
3034
6078
6060
6060
6060
C0C0
C0C0
C0C0
C1C0
E380
7F00
3E00
ENDCHAR
STARTCHAR uni1EEF
ENCODING 7919
SWIDTH 556 0
DWIDTH 10 0
BBX 12 14 1 0
BITMAP
0320
07C0
0980
0000
30F0
30F0
30D0
61E0
6180
6180
C380
C700
FB00
7300
ENDCHAR
STARTCHAR uni1EF0
ENCODING 7920
SWIDTH 722 0
DWIDTH 14 0
BBX 14 17 3 -3
BITMAP
303C
303C
3034
6078
6060
6060
6060
C0C0
C0C0
C0C0
C1C0
E380
7F00
3E00
0000
0C00
0C00
ENDCHAR
STARTCHAR uni1EF1
ENCODING 7921
SWIDTH 556 0
DWIDTH 10 0
BBX 12 13 1 -3
BITMAP
30F0
30F0
30D0
61E0
6180
6180
C380
C700
FB00
7300
0000
0C00
0C00
ENDCHAR
STARTCHAR Ygrave
ENCODING 7922
SWIDTH 667 0
DWIDTH 12 0
BBX 10 18 4 0
BITMAP
3000
1800
0C00
0000
C0C0
C0C0
C180
C380
C300
6600
6E00
6C00
7800
3800
3000
6000
6000
6000
ENDCHAR
STARTCHAR ygrave
ENCODING 7923
SWIDTH 500 0
DWIDTH 10 0
BBX 10 18 0 -4
BITMAP
1800
0C00
0600
0000
30C0
30C0
30C0
3180
3180
3300
1B00
1E00
0C00
1800
1800
3000
E000
C000
ENDCHAR
STARTCHAR uni1EF4
ENCODING 7924
SWIDTH 667 0
DWIDTH 12 0
BBX 10 17 4 -3
BITMAP
C0C0
C0C0
C180
C380
C300
6600
6E00
6C00
7800
3800
3000
6000
6000
6000
0000
3000
3000
ENDCHAR
STARTCHAR uni1EF5
ENCODING 7925
SWIDTH 500 0
DWIDTH 10 0
BBX 10 17 0 -7
BITMAP
30C0
30C0
30C0
3180
3180
3300
1B00
1E00
0C00
1800
1800
3000
E000
C000
0000
3000
3000
ENDCHAR
STARTCHAR uni1EF8
ENCODING 7928
SWIDTH 667 0
DWIDTH 12 0
BBX 10 18 4 0
BITMAP
0C80
1F00
2600
0000
C0C0
C0C0
C180
C380
C300
6600
6E00
6C00
7800
3800
3000
6000
6000
6000
ENDCHAR
STARTCHAR uni1EF9
ENCODING 7929
SWIDTH 500 0
DWIDTH 10 0
BBX 10 18 0 -4
BITMAP
0640
0F80
1300
0000
30C0
30C0
30C0
3180
3180
3300
1B00
1E00
0C00
1800
1800
3000
E000
C000
ENDCHAR
STARTCHAR uni2000
ENCODING 8192
SWIDTH 500 0
DWIDTH 9 0
BBX 1 1 0 0
BITMAP
00
ENDCHAR
STARTCHAR uni2001
ENCODING 8193
SWIDTH 1000 0
DWIDTH 19 0
BBX 1 1 0 0
BITMAP
00
ENDCHAR
STARTCHAR uni2002
ENCODING 8194
SWIDTH 500 0
DWIDTH 9 0
BBX 1 1 0 0
BITMAP
00
ENDCHAR
STARTCHAR uni2003
ENCODING 8195
SWIDTH 1000 0
DWIDTH 19 0
BBX 1 1 0 0
BITMAP
00
ENDCHAR
STARTCHAR uni2004
ENCODING 8196
SWIDTH 333 0
DWIDTH 6 0
BBX 1 1 0 0
BITMAP
00
ENDCHAR
STARTCHAR uni2005
ENCODING 8197
SWIDTH 250 0
DWIDTH 5 0
BBX 1 1 0 0
BITMAP
00
ENDCHAR
STARTCHAR uni2006
ENCODING 8198
SWIDTH 167 0
DWIDTH 3 0
BBX 1 1 0 0
BITMAP
00
ENDCHAR
STARTCHAR uni2007
ENCODING 8199
SWIDTH 556 0
DWIDTH 10 0
BBX 1 1 0 0
BITMAP
00
ENDCHAR
STARTCHAR uni2008
ENCODING 8200
SWIDTH 278 0
DWIDTH 5 0
BBX 1 1 0 0
BITMAP
00
ENDCHAR
STARTCHAR uni2009
ENCODING 8201
SWIDTH 200 0
DWIDTH 4 0
BBX 1 1 0 0
BITMAP
00
ENDCHAR
STARTCHAR uni200A
ENCODING 8202
SWIDTH 100 0
DWIDTH 2 0
BBX 1 1 0 0
BITMAP
00
ENDCHAR
STARTCHAR uni200B
ENCODING 8203
SWIDTH 0 0
DWIDTH 0 0
BBX 1 1 0 0
BITMAP
00
ENDCHAR
STARTCHAR uni2010
ENCODING 8208
SWIDTH 333 0
DWIDTH 7 0
BBX 6 2 2 4
BITMAP
FC
FC
ENDCHAR
STARTCHAR uni2011
ENCODING 8209
SWIDTH 333 0
DWIDTH 7 0
BBX 6 2 2 4
BITMAP
FC
FC
ENDCHAR
STARTCHAR figuredash
ENCODING 8210
SWIDTH 556 0
DWIDTH 10 0
BBX 10 2 1 4
BITMAP
FFC0
FFC0
ENDCHAR
STARTCHAR endash
ENCODING 8211
SWIDTH 556 0
DWIDTH 10 0
BBX 10 2 1 4
BITMAP
FFC0
FFC0
ENDCHAR
STARTCHAR emdash
ENCODING 8212
SWIDTH 1000 0
DWIDTH 18 0
BBX 18 2 1 4
BITMAP
FFFFC0
FFFFC0
ENDCHAR
STARTCHAR afii00208
ENCODING 8213
SWIDTH 1000 0
DWIDTH 18 0
BBX 18 2 1 4
BITMAP
FFFFC0
FFFFC0
ENDCHAR
STARTCHAR quoteleft
ENCODING 8216
SWIDTH 222 0
DWIDTH 4 0
BBX 3 4 3 10
BITMAP
60
80
C0
C0
ENDCHAR
STARTCHAR quoteright
ENCODING 8217
SWIDTH 222 0
DWIDTH 4 0
BBX 3 4 3 10
BITMAP
60
60
20
C0
ENDCHAR
STARTCHAR quotesinglbase
ENCODING 8218
SWIDTH 222 0
DWIDTH 4 0
BBX 3 4 0 -2
BITMAP
60
60
20
C0
ENDCHAR
STARTCHAR quotereversed
ENCODING 8219
SWIDTH 222 0
DWIDTH 4 0
BBX 3 4 3 10
BITMAP
C0
C0
80
60
ENDCHAR
STARTCHAR quotedblleft
ENCODING 8220
SWIDTH 333 0
DWIDTH 7 0
BBX 6 4 3 10
BITMAP
6C
90
D8
D8
ENDCHAR
STARTCHAR quotedblright
ENCODING 8221
SWIDTH 333 0
DWIDTH 7 0
BBX 6 4 3 10
BITMAP
6C
6C
24
D8
ENDCHAR
STARTCHAR quotedblbase
ENCODING 8222
SWIDTH 333 0
DWIDTH 7 0
BBX 6 4 0 -2
BITMAP
6C
6C
24
D8
ENDCHAR
STARTCHAR uni201F
ENCODING 8223
SWIDTH 333 0
DWIDTH 7 0
BBX 6 4 3 10
BITMAP
D8
D8
90
6C
ENDCHAR
STARTCHAR dagger
ENCODING 8224
SWIDTH 556 0
DWIDTH 10 0
BBX 8 18 3 -4
BITMAP
0C
0C
0C
18
FF
FF
18
18
30
30
30
30
60
60
60
C0
C0
C0
ENDCHAR
STARTCHAR daggerdbl
ENCODING 8225
SWIDTH 556 0
DWIDTH 10 0
BBX 10 18 1 -4
BITMAP
0300
0300
0600
0600
3FC0
3FC0
0600
0C00
0C00
0C00
1800
1800
FF00
FF00
1800
3000
3000
3000
ENDCHAR
STARTCHAR bullet
ENCODING 8226
SWIDTH 350 0
DWIDTH 6 0
BBX 5 5 2 4
BITMAP
70
F8
F8
F8
70
ENDCHAR
STARTCHAR ellipsis
ENCODING 8230
SWIDTH 1000 0
DWIDTH 19 0
BBX 14 2 2 0
BITMAP
C30C
C30C
ENDCHAR
STARTCHAR perthousand
ENCODING 8240
SWIDTH 1000 0
DWIDTH 19 0
BBX 17 13 1 0
BITMAP
1C3000
3C6000
64C000
4C8000
798000
730000
060000
0CE380
09E780
1B2C80
326980
63CF00
C38E00
ENDCHAR
STARTCHAR guilsinglleft
ENCODING 8249
SWIDTH 333 0
DWIDTH 7 0
BBX 5 6 2 3
BITMAP
18
30
60
C0
60
30
ENDCHAR
STARTCHAR guilsinglright
ENCODING 8250
SWIDTH 333 0
DWIDTH 7 0
BBX 5 6 2 3
BITMAP
60
30
18
30
60
C0
ENDCHAR
STARTCHAR fraction
ENCODING 8260
SWIDTH 167 0
DWIDTH 6 0
BBX 10 13 -1 0
BITMAP
00C0
0180
0180
0300
0600
0600
0C00
1800
1800
3000
6000
6000
C000
ENDCHAR
STARTCHAR oneinferior
ENCODING 8321
SWIDTH 333 0
DWIDTH 6 0
BBX 4 8 2 -5
BITMAP
30
F0
30
60
60
C0
C0
C0
ENDCHAR
STARTCHAR twoinferior
ENCODING 8322
SWIDTH 333 0
DWIDTH 6 0
BBX 6 8 1 -5
BITMAP
38
4C
0C
18
30
60
C0
F8
ENDCHAR
STARTCHAR threeinferior
ENCODING 8323
SWIDTH 333 0
DWIDTH 6 0
BBX 7 8 0 -5
BITMAP
1C
26
06
18
0C
0C
98
70
ENDCHAR
STARTCHAR uni20A5
ENCODING 8357
SWIDTH 833 0
DWIDTH 14 0
BBX 14 14 1 -2
BITMAP
0060
0060
33D8
37BC
39CC
6398
6318
6318
6718
C630
CE30
CE30
1800
1800
ENDCHAR
STARTCHAR uni20A6
ENCODING 8358
SWIDTH 722 0
DWIDTH 14 0
BBX 13 14 2 0
BITMAP
1818
1818
1C18
3C30
3FF0
3FF0
3630
7FE0
7FE0
6360
6360
C1C0
C1C0
C0C0
ENDCHAR
STARTCHAR uni20A9
ENCODING 8361
SWIDTH 944 0
DWIDTH 17 0
BBX 16 14 3 0
BITMAP
C183
C183
C386
C386
C7FC
C7FC
CCCC
CFF8
DFF8
7878
7070
7070
6060
6060
ENDCHAR
STARTCHAR Euro
ENCODING 8364
SWIDTH 722 0
DWIDTH 13 0
BBX 14 14 0 0
BITMAP
00F0
03F8
0F1C
0C0C
7F00
7F00
3000
FE00
FE00
3018
3838
1870
1FE0
0780
ENDCHAR
STARTCHAR uni20AD
ENCODING 8365
SWIDTH 667 0
DWIDTH 13 0
BBX 13 14 1 0
BITMAP
1818
1830
18E0
31C0
3380
3700
FFF8
FFF8
7700
6380
61C0
C0E0
C070
C030
ENDCHAR
STARTCHAR uni2103
ENCODING 8451
SWIDTH 1102 0
DWIDTH 20 0
BBX 19 14 2 0
BITMAP
000780
781FC0
CC78E0
CC6060
CCC000
79C000
018000
018000
018000
0180C0
01C1C0
00C380
00FF00
003C00
ENDCHAR
STARTCHAR uni2109
ENCODING 8457
SWIDTH 991 0
DWIDTH 18 0
BBX 19 14 2 0
BITMAP
003FE0
783FE0
CC3000
CC6000
CC6000
786000
007F00
00FF00
00C000
00C000
00C000
018000
018000
018000
ENDCHAR
STARTCHAR trademark
ENCODING 8482
SWIDTH 1000 0
DWIDTH 16 0
BBX 15 7 3 7
BITMAP
FD86
31CE
31F6
31B6
636C
636C
636C
ENDCHAR
STARTCHAR uni212A
ENCODING 8490
SWIDTH 667 0
DWIDTH 13 0
BBX 13 14 1 0
BITMAP
1818
1830
18E0
31C0
3380
3700
3E00
7E00
7700
6380
61C0
C0E0
C070
C030
ENDCHAR
STARTCHAR uni212B
ENCODING 8491
SWIDTH 667 0
DWIDTH 12 0
BBX 11 17 0 0
BITMAP
00E0
0120
0120
01C0
01C0
03C0
0360
0660
0660
0C60
1C60
1860
3FE0
7FE0
6060
C060
C060
ENDCHAR
STARTCHAR uni2132
ENCODING 8498
SWIDTH 611 0
DWIDTH 11 0
BBX 12 14 2 0
BITMAP
0030
0030
0030
0060
0060
0060
1FE0
1FC0
00C0
00C0
00C0
0180
FF80
FF80
ENDCHAR
STARTCHAR minus
ENCODING 8722
SWIDTH 584 0
DWIDTH 11 0
BBX 9 2 2 4
BITMAP
FF80
FF80
ENDCHAR
STARTCHAR fraction
ENCODING 8725
SWIDTH 167 0
DWIDTH 6 0
BBX 10 13 -1 0
BITMAP
00C0
0180
0180
0300
0600
0600
0C00
1800
1800
3000
6000
6000
C000
ENDCHAR
STARTCHAR periodcentered
ENCODING 8729
SWIDTH 278 0
DWIDTH 4 0
BBX 2 2 2 4
BITMAP
C0
C0
ENDCHAR
STARTCHAR uni2236
ENCODING 8758
SWIDTH 278 0
DWIDTH 5 0
BBX 4 10 1 0
BITMAP
30
30
00
00
00
00
00
00
C0
C0
ENDCHAR
STARTCHAR uni2259
ENCODING 8793
SWIDTH 584 0
DWIDTH 11 0
BBX 8 9 2 2
BITMAP
18
3C
66
00
7F
7F
00
FE
FE
ENDCHAR
STARTCHAR uni225A
ENCODING 8794
SWIDTH 584 0
DWIDTH 11 0
BBX 8 9 2 2
BITMAP
66
3C
18
00
7F
7F
00
FE
FE
ENDCHAR
STARTCHAR notequal
ENCODING 8800
SWIDTH 584 0
DWIDTH 11 0
BBX 8 14 2 -2
BITMAP
03
03
06
04
0C
7F
7F
10
FE
FE
60
40
C0
C0
ENDCHAR
STARTCHAR equivalence
ENCODING 8801
SWIDTH 584 0
DWIDTH 11 0
BBX 8 8 0 1
BITMAP
FF
FF
00
FF
FF
00
FF
FF
ENDCHAR
STARTCHAR uni2262
ENCODING 8802
SWIDTH 584 0
DWIDTH 11 0
BBX 8 14 0 -2
BITMAP
03
03
06
FF
FF
0C
FF
FF
30
FF
FF
40
C0
C0
ENDCHAR
STARTCHAR lessequal
ENCODING 8804
SWIDTH 584 0
DWIDTH 11 0
BBX 8 10 2 -2
BITMAP
07
1C
70
C0
70
1C
06
00
FF
FF
ENDCHAR
STARTCHAR greaterequal
ENCODING 8805
SWIDTH 584 0
DWIDTH 11 0
BBX 8 10 2 -2
BITMAP
60
38
0E
03
0E
38
E0
00
FF
FF
ENDCHAR
STARTCHAR uni226E
ENCODING 8814
SWIDTH 584 0
DWIDTH 11 0
BBX 8 14 2 -2
BITMAP
03
03
06
04
0F
1C
78
D0
70
3C
66
40
C0
C0
ENDCHAR
STARTCHAR uni226F
ENCODING 8815
SWIDTH 584 0
DWIDTH 11 0
BBX 8 14 2 -2
BITMAP
03
03
06
04
6C
3C
1E
13
3E
38
E0
40
C0
C0
ENDCHAR
STARTCHAR uni2270
ENCODING 8816
SWIDTH 584 0
DWIDTH 11 0
BBX 8 14 2 -4
BITMAP
03
03
07
1C
7C
CC
78
1C
36
30
FF
FF
C0
C0
ENDCHAR
STARTCHAR uni2271
ENCODING 8817
SWIDTH 584 0
DWIDTH 11 0
BBX 8 14 2 -4
BITMAP
03
03
66
3C
0E
0F
1E
38
F0
30
FF
FF
C0
C0
ENDCHAR
STARTCHAR fi
ENCODING -1
SWIDTH 500 0
DWIDTH 9 0
BBX 10 14 1 0
BITMAP
0EC0
1EC0
1800
3000
FD80
FD80
3180
6300
6300
6300
6300
C600
C600
C600
ENDCHAR
STARTCHAR fl
ENCODING -1
SWIDTH 500 0
DWIDTH 9 0
BBX 10 14 1 0
BITMAP
0EC0
1EC0
18C0
3180
FD80
FD80
3180
6300
6300
6300
6300
C600
C600
C600
ENDCHAR
ENDFONT
